G04 Layer_Color=8421504*
%FSLAX25Y25*%
%MOIN*%
G70*
G01*
G75*
%ADD10R,0.08661X0.04134*%
%ADD11R,0.04134X0.03937*%
%ADD12R,0.06693X0.04331*%
%ADD13R,0.04331X0.06693*%
%ADD14R,0.12992X0.05512*%
%ADD15R,0.05905X0.05905*%
%ADD16R,0.01968X0.05905*%
%ADD17R,0.05905X0.01968*%
%ADD18R,0.07874X0.21654*%
%ADD19R,0.05433X0.08268*%
%ADD20R,0.03937X0.05905*%
%ADD21R,0.07800X0.02200*%
%ADD22R,0.03543X0.03150*%
%ADD23R,0.03150X0.02165*%
%ADD24R,0.12200X0.06300*%
%ADD25R,0.03300X0.06300*%
%ADD26R,0.05905X0.05905*%
D10*
X282800Y100493D02*
D03*
Y112107D02*
D03*
X283400Y119600D02*
D03*
Y131214D02*
D03*
D11*
X276796Y106300D02*
D03*
X277396Y125407D02*
D03*
D12*
X211400Y250385D02*
D03*
Y261015D02*
D03*
X283100Y202015D02*
D03*
Y191385D02*
D03*
X201400Y85185D02*
D03*
Y95815D02*
D03*
X112700Y109285D02*
D03*
Y119915D02*
D03*
X120600Y219785D02*
D03*
Y230415D02*
D03*
X167600Y184315D02*
D03*
Y173685D02*
D03*
X176600Y184315D02*
D03*
Y173685D02*
D03*
X146500Y94170D02*
D03*
Y104800D02*
D03*
X157300Y86885D02*
D03*
Y97515D02*
D03*
X131400Y168200D02*
D03*
Y178830D02*
D03*
X205500Y13400D02*
D03*
Y24030D02*
D03*
X206000Y49800D02*
D03*
Y60430D02*
D03*
X96400Y52015D02*
D03*
Y41385D02*
D03*
X31300Y49885D02*
D03*
Y60515D02*
D03*
X150900Y253085D02*
D03*
Y263715D02*
D03*
X162600Y253085D02*
D03*
Y263715D02*
D03*
X107300Y229415D02*
D03*
Y218785D02*
D03*
X189400Y106085D02*
D03*
Y116715D02*
D03*
X206000Y42300D02*
D03*
Y31670D02*
D03*
D13*
X286015Y151300D02*
D03*
X275385D02*
D03*
X107185Y129400D02*
D03*
X117815D02*
D03*
X110285Y139600D02*
D03*
X120915D02*
D03*
X124315Y63000D02*
D03*
X113685D02*
D03*
X286015Y162100D02*
D03*
X275385D02*
D03*
X286215Y140800D02*
D03*
X275585D02*
D03*
X83785Y247400D02*
D03*
X94415D02*
D03*
D14*
X149700Y280920D02*
D03*
Y295880D02*
D03*
D15*
X134800Y233090D02*
D03*
Y219310D02*
D03*
X198100Y260580D02*
D03*
Y246800D02*
D03*
X283100Y227290D02*
D03*
Y213510D02*
D03*
X228000Y69210D02*
D03*
Y82990D02*
D03*
D16*
X139252Y160528D02*
D03*
X142402D02*
D03*
X145551D02*
D03*
X148701D02*
D03*
X151850D02*
D03*
X155000D02*
D03*
X158150D02*
D03*
X161299D02*
D03*
X164449D02*
D03*
X167598D02*
D03*
X170748D02*
D03*
Y114072D02*
D03*
X167598D02*
D03*
X164449D02*
D03*
X161299D02*
D03*
X158150D02*
D03*
X155000D02*
D03*
X151850D02*
D03*
X148701D02*
D03*
X145551D02*
D03*
X142402D02*
D03*
X139252D02*
D03*
D17*
X178228Y153048D02*
D03*
Y149898D02*
D03*
Y146749D02*
D03*
Y143599D02*
D03*
Y140450D02*
D03*
Y137300D02*
D03*
Y134150D02*
D03*
Y131001D02*
D03*
Y127851D02*
D03*
Y124702D02*
D03*
Y121552D02*
D03*
X131772D02*
D03*
Y124702D02*
D03*
Y127851D02*
D03*
Y131001D02*
D03*
Y134150D02*
D03*
Y137300D02*
D03*
Y140450D02*
D03*
Y143599D02*
D03*
Y146749D02*
D03*
Y149898D02*
D03*
Y153048D02*
D03*
D18*
X187100Y61401D02*
D03*
Y23999D02*
D03*
D19*
X106381Y51413D02*
D03*
X124019D02*
D03*
X106381Y15587D02*
D03*
X124019D02*
D03*
D20*
X293599Y68754D02*
D03*
X281001D02*
D03*
Y88046D02*
D03*
X293599D02*
D03*
D21*
X31300Y84400D02*
D03*
Y79400D02*
D03*
Y74400D02*
D03*
Y69400D02*
D03*
X11900D02*
D03*
Y74400D02*
D03*
Y79400D02*
D03*
Y84400D02*
D03*
D22*
X297357Y148738D02*
D03*
X304443D02*
D03*
X297357Y153462D02*
D03*
X304443D02*
D03*
D23*
X160324Y243340D02*
D03*
Y239600D02*
D03*
Y235860D02*
D03*
X150876Y243340D02*
D03*
Y239600D02*
D03*
Y235860D02*
D03*
D24*
X84800Y230000D02*
D03*
D25*
X93900Y204800D02*
D03*
X84800D02*
D03*
X75700D02*
D03*
D26*
X98310Y94200D02*
D03*
X112090D02*
D03*
M02*
