G04 Layer_Physical_Order=1*
G04 Layer_Color=255*
%FSLAX25Y25*%
%MOIN*%
G70*
G01*
G75*
%ADD10R,0.08661X0.04134*%
%ADD11R,0.04134X0.03937*%
%ADD12R,0.06693X0.04331*%
%ADD13R,0.04331X0.06693*%
%ADD14R,0.12992X0.05512*%
%ADD15R,0.05905X0.05905*%
%ADD16R,0.01968X0.05905*%
%ADD17R,0.05905X0.01968*%
%ADD18R,0.07874X0.21654*%
%ADD19R,0.05433X0.08268*%
%ADD20R,0.03937X0.05905*%
%ADD21R,0.07800X0.02200*%
%ADD22R,0.03543X0.03150*%
%ADD23R,0.03150X0.02165*%
%ADD24R,0.12200X0.06300*%
%ADD25R,0.03300X0.06300*%
%ADD26R,0.05905X0.05905*%
%ADD27C,0.02000*%
%ADD28C,0.00600*%
%ADD29C,0.01000*%
%ADD30C,0.05905*%
%ADD31C,0.06000*%
%ADD32C,0.04756*%
%ADD33O,0.05150X0.10299*%
%ADD34O,0.05937X0.11874*%
%ADD35O,0.11874X0.05937*%
%ADD36C,0.02500*%
G36*
X325100Y303500D02*
Y2700D01*
X323000Y600D01*
X3000D01*
X2400Y1400D01*
X500Y3500D01*
Y303000D01*
X3500Y305400D01*
X323200D01*
X325100Y303500D01*
D02*
G37*
%LPC*%
G36*
X30800Y83900D02*
X26400D01*
Y82300D01*
X30800D01*
Y83900D01*
D02*
G37*
G36*
X36200Y81500D02*
X26400D01*
Y77300D01*
X36200D01*
Y81500D01*
D02*
G37*
G36*
Y83900D02*
X31800D01*
Y82300D01*
X36200D01*
Y83900D01*
D02*
G37*
G36*
Y86500D02*
X31800D01*
Y84900D01*
X36200D01*
Y86500D01*
D02*
G37*
G36*
X30800D02*
X26400D01*
Y84900D01*
X30800D01*
Y86500D01*
D02*
G37*
G36*
X16800Y76500D02*
X7000D01*
Y72300D01*
X16800D01*
Y76500D01*
D02*
G37*
G36*
X36200Y71500D02*
X31800D01*
Y69900D01*
X36200D01*
Y71500D01*
D02*
G37*
G36*
Y76500D02*
X26400D01*
Y72300D01*
X36200D01*
Y76500D01*
D02*
G37*
G36*
X16800Y81500D02*
X7000D01*
Y77300D01*
X16800D01*
Y81500D01*
D02*
G37*
G36*
X45600Y83987D02*
X44568Y83851D01*
X43607Y83453D01*
X42781Y82819D01*
X42147Y81993D01*
X41749Y81032D01*
X41613Y80000D01*
X41749Y78968D01*
X42147Y78007D01*
X42781Y77181D01*
X43607Y76547D01*
X44568Y76149D01*
X45600Y76013D01*
X46632Y76149D01*
X47593Y76547D01*
X48419Y77181D01*
X49053Y78007D01*
X49451Y78968D01*
X49587Y80000D01*
X49451Y81032D01*
X49053Y81993D01*
X48419Y82819D01*
X47593Y83453D01*
X46632Y83851D01*
X45600Y83987D01*
D02*
G37*
G36*
X102263Y98153D02*
X94357D01*
Y96239D01*
X90398D01*
X90278Y96319D01*
X89400Y96494D01*
X88522Y96319D01*
X87778Y95822D01*
X87281Y95078D01*
X87106Y94200D01*
X87281Y93322D01*
X87778Y92578D01*
X88522Y92081D01*
X89400Y91906D01*
X90278Y92081D01*
X90398Y92161D01*
X94357D01*
Y90247D01*
X102263D01*
Y98153D01*
D02*
G37*
G36*
X45600Y153987D02*
X44568Y153851D01*
X43607Y153453D01*
X42781Y152819D01*
X42147Y151993D01*
X41749Y151032D01*
X41613Y150000D01*
X41749Y148968D01*
X42147Y148007D01*
X42781Y147181D01*
X43607Y146547D01*
X44568Y146149D01*
X45600Y146013D01*
X46632Y146149D01*
X47593Y146547D01*
X48419Y147181D01*
X49053Y148007D01*
X49451Y148968D01*
X49587Y150000D01*
X49451Y151032D01*
X49053Y151993D01*
X48419Y152819D01*
X47593Y153453D01*
X46632Y153851D01*
X45600Y153987D01*
D02*
G37*
G36*
X60600Y143987D02*
X59568Y143851D01*
X58607Y143453D01*
X57781Y142819D01*
X57147Y141993D01*
X56749Y141032D01*
X56613Y140000D01*
X56749Y138968D01*
X57147Y138007D01*
X57781Y137181D01*
X58607Y136547D01*
X59568Y136149D01*
X60600Y136013D01*
X61632Y136149D01*
X62593Y136547D01*
X63419Y137181D01*
X64053Y138007D01*
X64451Y138968D01*
X64587Y140000D01*
X64451Y141032D01*
X64053Y141993D01*
X63419Y142819D01*
X62593Y143453D01*
X61632Y143851D01*
X60600Y143987D01*
D02*
G37*
G36*
X60100Y149500D02*
X56679D01*
X56749Y148968D01*
X57147Y148007D01*
X57781Y147181D01*
X58607Y146547D01*
X59568Y146149D01*
X60100Y146079D01*
Y149500D01*
D02*
G37*
G36*
Y153921D02*
X59568Y153851D01*
X58607Y153453D01*
X57781Y152819D01*
X57147Y151993D01*
X56749Y151032D01*
X56679Y150500D01*
X60100D01*
Y153921D01*
D02*
G37*
G36*
X64521Y149500D02*
X61100D01*
Y146079D01*
X61632Y146149D01*
X62593Y146547D01*
X63419Y147181D01*
X64053Y148007D01*
X64451Y148968D01*
X64521Y149500D01*
D02*
G37*
G36*
X45600Y133987D02*
X44568Y133851D01*
X43607Y133453D01*
X42781Y132819D01*
X42147Y131993D01*
X41749Y131032D01*
X41613Y130000D01*
X41749Y128968D01*
X42147Y128007D01*
X42781Y127181D01*
X43607Y126547D01*
X44568Y126149D01*
X45600Y126013D01*
X46632Y126149D01*
X47593Y126547D01*
X48419Y127181D01*
X49053Y128007D01*
X49451Y128968D01*
X49587Y130000D01*
X49451Y131032D01*
X49053Y131993D01*
X48419Y132819D01*
X47593Y133453D01*
X46632Y133851D01*
X45600Y133987D01*
D02*
G37*
G36*
X49553Y123953D02*
X41647D01*
Y116047D01*
X49553D01*
Y123953D01*
D02*
G37*
G36*
X60600Y133987D02*
X59568Y133851D01*
X58607Y133453D01*
X57781Y132819D01*
X57147Y131993D01*
X56749Y131032D01*
X56613Y130000D01*
X56749Y128968D01*
X57147Y128007D01*
X57781Y127181D01*
X58607Y126547D01*
X59568Y126149D01*
X60600Y126013D01*
X61632Y126149D01*
X62593Y126547D01*
X63419Y127181D01*
X64053Y128007D01*
X64451Y128968D01*
X64587Y130000D01*
X64451Y131032D01*
X64053Y131993D01*
X63419Y132819D01*
X62593Y133453D01*
X61632Y133851D01*
X60600Y133987D01*
D02*
G37*
G36*
X45600Y143987D02*
X44568Y143851D01*
X43607Y143453D01*
X42781Y142819D01*
X42147Y141993D01*
X41749Y141032D01*
X41613Y140000D01*
X41749Y138968D01*
X42147Y138007D01*
X42781Y137181D01*
X43607Y136547D01*
X44568Y136149D01*
X45600Y136013D01*
X46632Y136149D01*
X47593Y136547D01*
X48419Y137181D01*
X49053Y138007D01*
X49451Y138968D01*
X49587Y140000D01*
X49451Y141032D01*
X49053Y141993D01*
X48419Y142819D01*
X47593Y143453D01*
X46632Y143851D01*
X45600Y143987D01*
D02*
G37*
G36*
X110350Y133747D02*
X104020D01*
Y131939D01*
X102798D01*
X102678Y132019D01*
X101800Y132194D01*
X100922Y132019D01*
X100178Y131522D01*
X99681Y130778D01*
X99506Y129900D01*
X99681Y129022D01*
X100178Y128278D01*
X100922Y127780D01*
X101800Y127606D01*
X102678Y127780D01*
X102798Y127861D01*
X104020D01*
Y125054D01*
X110350D01*
Y133747D01*
D02*
G37*
G36*
X30800Y71500D02*
X26400D01*
Y69900D01*
X30800D01*
Y71500D01*
D02*
G37*
G36*
X95900Y40885D02*
X92054D01*
Y38220D01*
X95900D01*
Y40885D01*
D02*
G37*
G36*
X285900Y38795D02*
Y37100D01*
X287595D01*
X287520Y37478D01*
X287022Y38222D01*
X286278Y38719D01*
X285900Y38795D01*
D02*
G37*
G36*
X100747Y40885D02*
X96900D01*
Y38220D01*
X100747D01*
Y40885D01*
D02*
G37*
G36*
Y44550D02*
X96900D01*
Y41885D01*
X100747D01*
Y44550D01*
D02*
G37*
G36*
X95900D02*
X92054D01*
Y41885D01*
X95900D01*
Y44550D01*
D02*
G37*
G36*
X11000Y18285D02*
X9579Y18145D01*
X8212Y17730D01*
X6953Y17057D01*
X5849Y16151D01*
X4943Y15047D01*
X4270Y13788D01*
X3855Y12421D01*
X3715Y11000D01*
X3855Y9579D01*
X4270Y8212D01*
X4943Y6953D01*
X5849Y5849D01*
X6953Y4943D01*
X8212Y4270D01*
X9579Y3855D01*
X11000Y3715D01*
X12421Y3855D01*
X13788Y4270D01*
X15047Y4943D01*
X16151Y5849D01*
X17057Y6953D01*
X17730Y8212D01*
X18145Y9579D01*
X18285Y11000D01*
X18145Y12421D01*
X17730Y13788D01*
X17057Y15047D01*
X16151Y16151D01*
X15047Y17057D01*
X13788Y17730D01*
X12421Y18145D01*
X11000Y18285D01*
D02*
G37*
G36*
X315400Y17385D02*
X313979Y17245D01*
X312612Y16830D01*
X311353Y16157D01*
X310249Y15251D01*
X309343Y14147D01*
X308669Y12888D01*
X308255Y11521D01*
X308115Y10100D01*
X308255Y8679D01*
X308669Y7312D01*
X309343Y6053D01*
X310249Y4949D01*
X311353Y4043D01*
X312612Y3370D01*
X313979Y2955D01*
X315400Y2815D01*
X316821Y2955D01*
X318188Y3370D01*
X319447Y4043D01*
X320551Y4949D01*
X321457Y6053D01*
X322130Y7312D01*
X322545Y8679D01*
X322685Y10100D01*
X322545Y11521D01*
X322130Y12888D01*
X321457Y14147D01*
X320551Y15251D01*
X319447Y16157D01*
X318188Y16830D01*
X316821Y17245D01*
X315400Y17385D01*
D02*
G37*
G36*
X284900Y36100D02*
X283205D01*
X283280Y35722D01*
X283778Y34978D01*
X284522Y34481D01*
X284900Y34405D01*
Y36100D01*
D02*
G37*
G36*
Y38795D02*
X284522Y38719D01*
X283778Y38222D01*
X283280Y37478D01*
X283205Y37100D01*
X284900D01*
Y38795D01*
D02*
G37*
G36*
X287595Y36100D02*
X285900D01*
Y34405D01*
X286278Y34481D01*
X287022Y34978D01*
X287520Y35722D01*
X287595Y36100D01*
D02*
G37*
G36*
X49553Y53953D02*
X41647D01*
Y52039D01*
X35646D01*
Y53050D01*
X26954D01*
Y46720D01*
X35646D01*
Y47961D01*
X41647D01*
Y46047D01*
X49553D01*
Y53953D01*
D02*
G37*
G36*
X16800Y71500D02*
X7000D01*
Y67300D01*
X9861D01*
Y65798D01*
X9781Y65678D01*
X9606Y64800D01*
X9781Y63922D01*
X10278Y63178D01*
X11022Y62681D01*
X11900Y62506D01*
X12778Y62681D01*
X13522Y63178D01*
X14019Y63922D01*
X14194Y64800D01*
X14019Y65678D01*
X13939Y65798D01*
Y67300D01*
X16800D01*
Y71500D01*
D02*
G37*
G36*
X35646Y63680D02*
X31800D01*
Y61015D01*
X35646D01*
Y63680D01*
D02*
G37*
G36*
X45600Y73987D02*
X44568Y73851D01*
X43607Y73453D01*
X42781Y72819D01*
X42147Y71993D01*
X41749Y71032D01*
X41613Y70000D01*
X41749Y68968D01*
X42147Y68007D01*
X42781Y67181D01*
X43607Y66547D01*
X44568Y66149D01*
X45600Y66013D01*
X46632Y66149D01*
X47593Y66547D01*
X48419Y67181D01*
X49053Y68007D01*
X49451Y68968D01*
X49587Y70000D01*
X49451Y71032D01*
X49053Y71993D01*
X48419Y72819D01*
X47593Y73453D01*
X46632Y73851D01*
X45600Y73987D01*
D02*
G37*
G36*
X36200Y68900D02*
X31800D01*
Y67300D01*
X36200D01*
Y68900D01*
D02*
G37*
G36*
X30800D02*
X26400D01*
Y67300D01*
X30800D01*
Y68900D01*
D02*
G37*
G36*
X45600Y63987D02*
X44568Y63851D01*
X43607Y63453D01*
X42781Y62819D01*
X42147Y61993D01*
X41749Y61032D01*
X41613Y60000D01*
X41749Y58968D01*
X42147Y58007D01*
X42781Y57181D01*
X43607Y56547D01*
X44568Y56149D01*
X45600Y56013D01*
X46632Y56149D01*
X47593Y56547D01*
X48419Y57181D01*
X49053Y58007D01*
X49451Y58968D01*
X49587Y60000D01*
X49451Y61032D01*
X49053Y61993D01*
X48419Y62819D01*
X47593Y63453D01*
X46632Y63851D01*
X45600Y63987D01*
D02*
G37*
G36*
X127480Y67347D02*
X121150D01*
Y58653D01*
X121980D01*
Y56547D01*
X120302D01*
Y53453D01*
X117411D01*
X117291Y53533D01*
X116413Y53707D01*
X115535Y53533D01*
X114791Y53036D01*
X114294Y52291D01*
X114119Y51413D01*
X114294Y50536D01*
X114791Y49791D01*
X115535Y49294D01*
X116413Y49119D01*
X117291Y49294D01*
X117411Y49374D01*
X120302D01*
Y46279D01*
X122694D01*
Y20720D01*
X120302D01*
Y10453D01*
X127735D01*
Y20720D01*
X125345D01*
Y46279D01*
X127735D01*
Y56547D01*
X126058D01*
Y58653D01*
X127480D01*
Y67347D01*
D02*
G37*
G36*
X30800Y60015D02*
X26954D01*
Y57350D01*
X30800D01*
Y60015D01*
D02*
G37*
G36*
Y63680D02*
X26954D01*
Y61015D01*
X30800D01*
Y63680D01*
D02*
G37*
G36*
X35646Y60015D02*
X31800D01*
Y57350D01*
X35646D01*
Y60015D01*
D02*
G37*
G36*
X64553Y193953D02*
X56647D01*
Y186047D01*
X64553D01*
Y193953D01*
D02*
G37*
G36*
X45600Y193987D02*
X44568Y193851D01*
X43607Y193453D01*
X42781Y192819D01*
X42147Y191993D01*
X41749Y191032D01*
X41613Y190000D01*
X41749Y188968D01*
X42147Y188007D01*
X42781Y187181D01*
X43607Y186547D01*
X44568Y186149D01*
X45600Y186013D01*
X46632Y186149D01*
X47593Y186547D01*
X48419Y187181D01*
X49053Y188007D01*
X49451Y188968D01*
X49587Y190000D01*
X49451Y191032D01*
X49053Y191993D01*
X48419Y192819D01*
X47593Y193453D01*
X46632Y193851D01*
X45600Y193987D01*
D02*
G37*
G36*
X176600Y193594D02*
X175722Y193420D01*
X174978Y192922D01*
X174480Y192178D01*
X174306Y191300D01*
X174480Y190422D01*
X174561Y190302D01*
Y187480D01*
X172254D01*
Y187480D01*
X171946D01*
Y187480D01*
X163253D01*
Y181150D01*
X171946D01*
Y181150D01*
X172254D01*
Y181150D01*
X180947D01*
Y187480D01*
X178639D01*
Y190302D01*
X178719Y190422D01*
X178894Y191300D01*
X178719Y192178D01*
X178222Y192922D01*
X177478Y193420D01*
X176600Y193594D01*
D02*
G37*
G36*
X78350Y208950D02*
X73050D01*
Y200650D01*
X73661D01*
Y198198D01*
X73581Y198078D01*
X73406Y197200D01*
X73581Y196322D01*
X74078Y195578D01*
X74822Y195080D01*
X75700Y194906D01*
X76578Y195080D01*
X77322Y195578D01*
X77819Y196322D01*
X77994Y197200D01*
X77819Y198078D01*
X77739Y198198D01*
Y200650D01*
X78350D01*
Y208950D01*
D02*
G37*
G36*
X250600Y199987D02*
X249568Y199851D01*
X248607Y199453D01*
X247781Y198819D01*
X247147Y197993D01*
X246749Y197032D01*
X246613Y196000D01*
X246749Y194968D01*
X247147Y194007D01*
X247781Y193181D01*
X248607Y192547D01*
X249568Y192149D01*
X250600Y192013D01*
X251632Y192149D01*
X252593Y192547D01*
X253419Y193181D01*
X254053Y194007D01*
X254451Y194968D01*
X254587Y196000D01*
X254451Y197032D01*
X254053Y197993D01*
X253419Y198819D01*
X252593Y199453D01*
X251632Y199851D01*
X250600Y199987D01*
D02*
G37*
G36*
X61100Y183921D02*
Y180500D01*
X64521D01*
X64451Y181032D01*
X64053Y181993D01*
X63419Y182819D01*
X62593Y183453D01*
X61632Y183851D01*
X61100Y183921D01*
D02*
G37*
G36*
X60100Y179500D02*
X56679D01*
X56749Y178968D01*
X57147Y178007D01*
X57781Y177181D01*
X58607Y176547D01*
X59568Y176149D01*
X60100Y176079D01*
Y179500D01*
D02*
G37*
G36*
X45600Y183987D02*
X44568Y183851D01*
X43607Y183453D01*
X42781Y182819D01*
X42147Y181993D01*
X41749Y181032D01*
X41613Y180000D01*
X41749Y178968D01*
X42147Y178007D01*
X42781Y177181D01*
X43607Y176547D01*
X44568Y176149D01*
X45600Y176013D01*
X46632Y176149D01*
X47593Y176547D01*
X48419Y177181D01*
X49053Y178007D01*
X49451Y178968D01*
X49587Y180000D01*
X49451Y181032D01*
X49053Y181993D01*
X48419Y182819D01*
X47593Y183453D01*
X46632Y183851D01*
X45600Y183987D01*
D02*
G37*
G36*
X183000Y285621D02*
Y282200D01*
X186421D01*
X186351Y282732D01*
X185953Y283693D01*
X185319Y284519D01*
X184493Y285153D01*
X183532Y285551D01*
X183000Y285621D01*
D02*
G37*
G36*
X60100Y183921D02*
X59568Y183851D01*
X58607Y183453D01*
X57781Y182819D01*
X57147Y181993D01*
X56749Y181032D01*
X56679Y180500D01*
X60100D01*
Y183921D01*
D02*
G37*
G36*
X64521Y179500D02*
X61100D01*
Y176079D01*
X61632Y176149D01*
X62593Y176547D01*
X63419Y177181D01*
X64053Y178007D01*
X64451Y178968D01*
X64521Y179500D01*
D02*
G37*
G36*
X138753Y223263D02*
X130847D01*
Y221824D01*
X124946D01*
Y222950D01*
X116253D01*
Y216620D01*
X124946D01*
Y217746D01*
X130847D01*
Y215357D01*
X138753D01*
Y223263D01*
D02*
G37*
G36*
X247069Y279334D02*
X241131D01*
X240095Y279198D01*
X239130Y278798D01*
X238301Y278162D01*
X237694Y277371D01*
X237407D01*
X236627Y277216D01*
X235965Y276774D01*
X228506Y269314D01*
X228426Y269319D01*
X227597Y269955D01*
X226632Y270355D01*
X225596Y270492D01*
X224560Y270355D01*
X223595Y269955D01*
X222766Y269319D01*
X222130Y268490D01*
X221730Y267525D01*
X221593Y266489D01*
Y260552D01*
X221730Y259516D01*
X222130Y258551D01*
X222766Y257721D01*
X223595Y257085D01*
X224560Y256685D01*
X225596Y256549D01*
X226632Y256685D01*
X227597Y257085D01*
X228426Y257721D01*
X229063Y258551D01*
X229462Y259516D01*
X229599Y260552D01*
Y264639D01*
X237668Y272709D01*
X238167Y272676D01*
X238301Y272501D01*
X239130Y271865D01*
X240095Y271465D01*
X241131Y271329D01*
X242461D01*
Y267398D01*
X242380Y267278D01*
X242206Y266400D01*
X242380Y265522D01*
X242878Y264778D01*
X243622Y264281D01*
X244500Y264106D01*
X245378Y264281D01*
X246122Y264778D01*
X246620Y265522D01*
X246794Y266400D01*
X246620Y267278D01*
X246539Y267398D01*
Y271329D01*
X247069D01*
X248105Y271465D01*
X249070Y271865D01*
X249899Y272501D01*
X250535Y273330D01*
X250935Y274296D01*
X251071Y275332D01*
X250935Y276368D01*
X250535Y277333D01*
X249899Y278162D01*
X249070Y278798D01*
X248105Y279198D01*
X247069Y279334D01*
D02*
G37*
G36*
X202053Y264532D02*
X194147D01*
Y256627D01*
X196061D01*
Y255698D01*
X195981Y255578D01*
X195806Y254700D01*
X195981Y253822D01*
X196478Y253078D01*
X197222Y252580D01*
X198100Y252406D01*
X198978Y252580D01*
X199722Y253078D01*
X200219Y253822D01*
X200394Y254700D01*
X200219Y255578D01*
X200139Y255698D01*
Y256627D01*
X202053D01*
Y264532D01*
D02*
G37*
G36*
X182000Y281200D02*
X178579D01*
X178649Y280668D01*
X179047Y279707D01*
X179681Y278881D01*
X180507Y278247D01*
X181468Y277849D01*
X182000Y277779D01*
Y281200D01*
D02*
G37*
G36*
X192000D02*
X188579D01*
X188649Y280668D01*
X189047Y279707D01*
X189681Y278881D01*
X190507Y278247D01*
X191468Y277849D01*
X192000Y277779D01*
Y281200D01*
D02*
G37*
G36*
X186421D02*
X183000D01*
Y277779D01*
X183532Y277849D01*
X184493Y278247D01*
X185319Y278881D01*
X185953Y279707D01*
X186351Y280668D01*
X186421Y281200D01*
D02*
G37*
G36*
X86950Y251747D02*
X80620D01*
Y249439D01*
X77498D01*
X77378Y249519D01*
X76500Y249694D01*
X75622Y249519D01*
X74878Y249022D01*
X74381Y248278D01*
X74206Y247400D01*
X74381Y246522D01*
X74878Y245778D01*
X75622Y245281D01*
X76500Y245106D01*
X77378Y245281D01*
X77498Y245361D01*
X80620D01*
Y243054D01*
X86950D01*
Y251747D01*
D02*
G37*
G36*
X138753Y237042D02*
X130847D01*
Y229137D01*
X138753D01*
Y231051D01*
X142292D01*
X142412Y230970D01*
X143290Y230796D01*
X144168Y230970D01*
X144912Y231468D01*
X145409Y232212D01*
X145584Y233090D01*
X145409Y233968D01*
X144912Y234712D01*
X144168Y235209D01*
X143290Y235384D01*
X142412Y235209D01*
X142292Y235129D01*
X138753D01*
Y237042D01*
D02*
G37*
G36*
X182000Y285621D02*
X181468Y285551D01*
X180507Y285153D01*
X179681Y284519D01*
X179047Y283693D01*
X178649Y282732D01*
X178579Y282200D01*
X182000D01*
Y285621D01*
D02*
G37*
G36*
X196421Y281200D02*
X193000D01*
Y277779D01*
X193532Y277849D01*
X194493Y278247D01*
X195319Y278881D01*
X195953Y279707D01*
X196351Y280668D01*
X196421Y281200D01*
D02*
G37*
G36*
X215746Y253550D02*
X207053D01*
Y248922D01*
X206970Y248839D01*
X202053D01*
Y250753D01*
X194147D01*
Y242847D01*
X202053D01*
Y244761D01*
X207815D01*
X208595Y244916D01*
X209257Y245358D01*
X211119Y247220D01*
X215746D01*
Y253550D01*
D02*
G37*
G36*
X195600Y299487D02*
X194568Y299351D01*
X193607Y298953D01*
X192781Y298319D01*
X192147Y297493D01*
X191749Y296532D01*
X191613Y295500D01*
X191749Y294468D01*
X192147Y293507D01*
X192781Y292681D01*
X193607Y292047D01*
X194568Y291649D01*
X195600Y291513D01*
X196632Y291649D01*
X197593Y292047D01*
X198419Y292681D01*
X199018Y293461D01*
X240955D01*
X253661Y280755D01*
Y264154D01*
X245219Y255712D01*
X241131D01*
X240095Y255576D01*
X239130Y255176D01*
X238301Y254540D01*
X237665Y253711D01*
X237265Y252745D01*
X237129Y251709D01*
X237265Y250673D01*
X237665Y249708D01*
X238301Y248879D01*
X239130Y248243D01*
X240095Y247843D01*
X241131Y247707D01*
X247069D01*
X248105Y247843D01*
X249070Y248243D01*
X249899Y248879D01*
X250535Y249708D01*
X250935Y250673D01*
X251071Y251709D01*
X250935Y252745D01*
X250535Y253711D01*
X249899Y254540D01*
X249894Y254619D01*
X257142Y261867D01*
X257584Y262529D01*
X257739Y263309D01*
Y281600D01*
X257584Y282380D01*
X257142Y283042D01*
X243242Y296942D01*
X242580Y297384D01*
X241800Y297539D01*
X199018D01*
X198419Y298319D01*
X197593Y298953D01*
X196632Y299351D01*
X195600Y299487D01*
D02*
G37*
G36*
X265600Y179987D02*
X264568Y179851D01*
X263607Y179453D01*
X262781Y178819D01*
X262147Y177993D01*
X261749Y177032D01*
X261613Y176000D01*
X261749Y174968D01*
X262147Y174007D01*
X262781Y173181D01*
X263607Y172547D01*
X264384Y172225D01*
X264284Y171725D01*
X255000D01*
X254493Y171625D01*
X254063Y171337D01*
X252300Y169574D01*
X251632Y169851D01*
X250600Y169987D01*
X249568Y169851D01*
X248607Y169453D01*
X247781Y168819D01*
X247147Y167993D01*
X246749Y167032D01*
X246613Y166000D01*
X246749Y164968D01*
X247147Y164007D01*
X247781Y163181D01*
X248607Y162547D01*
X249568Y162149D01*
X250600Y162013D01*
X251632Y162149D01*
X252593Y162547D01*
X253419Y163181D01*
X254053Y164007D01*
X254451Y164968D01*
X254587Y166000D01*
X254451Y167032D01*
X254174Y167700D01*
X255549Y169074D01*
X262347D01*
X262593Y168575D01*
X262147Y167993D01*
X261749Y167032D01*
X261613Y166000D01*
X261749Y164968D01*
X262147Y164007D01*
X262781Y163181D01*
X263607Y162547D01*
X264568Y162149D01*
X265600Y162013D01*
X266632Y162149D01*
X267593Y162547D01*
X268419Y163181D01*
X269053Y164007D01*
X269451Y164968D01*
X269587Y166000D01*
X269451Y167032D01*
X269285Y167434D01*
X269708Y167717D01*
X272220Y165206D01*
Y157754D01*
X278550D01*
Y163391D01*
X280580Y165421D01*
X282850D01*
Y157754D01*
X289180D01*
Y158822D01*
X289642Y159014D01*
X294585Y154071D01*
Y151917D01*
X289180D01*
Y155647D01*
X282850D01*
Y146953D01*
X289180D01*
Y148858D01*
X294585D01*
Y146163D01*
X299052D01*
X299244Y145701D01*
X295872Y142329D01*
X289380D01*
Y145147D01*
X283050D01*
Y136453D01*
X289380D01*
Y139271D01*
X296506D01*
X297091Y139387D01*
X297587Y139719D01*
X304031Y146163D01*
X304526D01*
X304717Y145701D01*
X301563Y142547D01*
X301275Y142117D01*
X301174Y141609D01*
Y84620D01*
X300878Y84422D01*
X300380Y83678D01*
X300206Y82800D01*
X300380Y81922D01*
X300878Y81178D01*
X301622Y80681D01*
X302500Y80506D01*
X303378Y80681D01*
X304122Y81178D01*
X304620Y81922D01*
X304794Y82800D01*
X304620Y83678D01*
X304122Y84422D01*
X303825Y84620D01*
Y141060D01*
X308452Y145687D01*
X308740Y146117D01*
X308840Y146625D01*
Y159691D01*
X308740Y160198D01*
X308452Y160628D01*
X301397Y167684D01*
X300967Y167971D01*
X300460Y168072D01*
X280031D01*
X279524Y167971D01*
X279094Y167684D01*
X277857Y166446D01*
X274728D01*
X269837Y171337D01*
X269407Y171625D01*
X268900Y171725D01*
X266916D01*
X266816Y172225D01*
X267593Y172547D01*
X268419Y173181D01*
X269053Y174007D01*
X269451Y174968D01*
X269587Y176000D01*
X269451Y177032D01*
X269053Y177993D01*
X268419Y178819D01*
X267593Y179453D01*
X266632Y179851D01*
X265600Y179987D01*
D02*
G37*
G36*
X135747Y171365D02*
X131900D01*
Y168700D01*
X135747D01*
Y171365D01*
D02*
G37*
G36*
X130900D02*
X127053D01*
Y168700D01*
X130900D01*
Y171365D01*
D02*
G37*
G36*
X193200Y173953D02*
X189747D01*
Y170500D01*
X193200D01*
Y173953D01*
D02*
G37*
G36*
X157196Y299636D02*
X142204D01*
Y292125D01*
X150401D01*
X157232Y285294D01*
X157234Y285138D01*
X156786Y284676D01*
X156718Y284676D01*
X142204D01*
Y282959D01*
X134720D01*
X133939Y282804D01*
X133278Y282362D01*
X128419Y277503D01*
X127977Y276841D01*
X127928Y276597D01*
X127460Y276421D01*
X127186Y276631D01*
X126365Y276971D01*
X125483Y277087D01*
X124601Y276971D01*
X124223Y276815D01*
X121001Y280037D01*
X120570Y280325D01*
X120063Y280426D01*
X105800D01*
X105293Y280325D01*
X104863Y280037D01*
X102063Y277237D01*
X101775Y276807D01*
X101674Y276300D01*
Y263800D01*
X101775Y263293D01*
X102063Y262863D01*
X107363Y257563D01*
X107793Y257275D01*
X108300Y257174D01*
X157385D01*
X157892Y257275D01*
X158322Y257563D01*
X161309Y260550D01*
X166946D01*
Y266472D01*
X167446Y266679D01*
X172274Y261851D01*
Y249520D01*
X171978Y249322D01*
X171481Y248578D01*
X171306Y247700D01*
X171481Y246822D01*
X171978Y246078D01*
X172722Y245581D01*
X173600Y245406D01*
X174478Y245581D01*
X175222Y246078D01*
X175719Y246822D01*
X175894Y247700D01*
X175719Y248578D01*
X175222Y249322D01*
X174925Y249520D01*
Y262400D01*
X174825Y262907D01*
X174537Y263337D01*
X164325Y273549D01*
Y281400D01*
X164225Y281907D01*
X163937Y282337D01*
X154612Y291663D01*
X154803Y292125D01*
X157196D01*
Y293841D01*
X161647D01*
Y291547D01*
X169553D01*
Y299453D01*
X161647D01*
Y297920D01*
X157196D01*
Y299636D01*
D02*
G37*
G36*
X185600Y299487D02*
X184568Y299351D01*
X183607Y298953D01*
X182781Y298319D01*
X182182Y297539D01*
X179018D01*
X178419Y298319D01*
X177593Y298953D01*
X176632Y299351D01*
X175600Y299487D01*
X174568Y299351D01*
X173607Y298953D01*
X172781Y298319D01*
X172147Y297493D01*
X171749Y296532D01*
X171613Y295500D01*
X171741Y294525D01*
X171058Y293842D01*
X170616Y293180D01*
X170461Y292400D01*
Y285653D01*
X168547D01*
Y277747D01*
X173569D01*
X182561Y268755D01*
Y248445D01*
X175755Y241639D01*
X162899D01*
Y245423D01*
X161854D01*
Y249920D01*
X166946D01*
Y256250D01*
X158254D01*
Y249920D01*
X158795D01*
Y245423D01*
X157750D01*
Y241564D01*
X157250Y241337D01*
X156678Y241720D01*
X155800Y241894D01*
X154922Y241720D01*
X154178Y241222D01*
X154116Y241129D01*
X153450D01*
Y245423D01*
X152429D01*
Y249920D01*
X155246D01*
Y256250D01*
X146554D01*
Y249920D01*
X149371D01*
Y245423D01*
X148301D01*
Y241258D01*
Y237517D01*
Y233777D01*
X149550D01*
Y226296D01*
X149253Y226098D01*
X148756Y225354D01*
X148582Y224476D01*
X148756Y223598D01*
X149253Y222853D01*
X149998Y222356D01*
X150876Y222182D01*
X151753Y222356D01*
X152498Y222853D01*
X152995Y223598D01*
X153170Y224476D01*
X152995Y225354D01*
X152498Y226098D01*
X152201Y226296D01*
Y233777D01*
X153450D01*
Y238071D01*
X154116D01*
X154178Y237978D01*
X154922Y237480D01*
X155800Y237306D01*
X156678Y237480D01*
X157250Y237862D01*
X157750Y237636D01*
Y233777D01*
X158999D01*
Y226845D01*
X158702Y226647D01*
X158205Y225902D01*
X158030Y225024D01*
X158205Y224147D01*
X158702Y223402D01*
X159447Y222905D01*
X160324Y222730D01*
X161202Y222905D01*
X161947Y223402D01*
X162444Y224147D01*
X162619Y225024D01*
X162444Y225902D01*
X161947Y226647D01*
X161650Y226845D01*
Y233777D01*
X162899D01*
Y235234D01*
X163361Y235425D01*
X169761Y229026D01*
Y221545D01*
X152855Y204639D01*
X123745D01*
X111646Y216737D01*
Y221950D01*
X102954D01*
Y216737D01*
X95166Y208950D01*
X91250D01*
Y205034D01*
X87912Y201696D01*
X87450Y201887D01*
Y208950D01*
X82150D01*
Y200650D01*
X86213D01*
X86404Y200188D01*
X71439Y185223D01*
X70939Y185430D01*
Y207755D01*
X80345Y217161D01*
X87700D01*
X88480Y217316D01*
X89142Y217758D01*
X102492Y231108D01*
X102954Y230916D01*
Y226250D01*
X111646D01*
Y227376D01*
X112917D01*
X113037Y227296D01*
X113915Y227121D01*
X114793Y227296D01*
X115537Y227793D01*
X115753Y228117D01*
X116253Y227965D01*
Y227250D01*
X124946D01*
Y231878D01*
X125242Y232173D01*
X125684Y232835D01*
X125839Y233615D01*
Y243982D01*
X126619Y244581D01*
X127218Y245361D01*
X130382D01*
X130981Y244581D01*
X131807Y243947D01*
X132768Y243549D01*
X133800Y243413D01*
X134832Y243549D01*
X135793Y243947D01*
X136619Y244581D01*
X137253Y245407D01*
X137651Y246368D01*
X137787Y247400D01*
X137651Y248432D01*
X137253Y249393D01*
X136619Y250219D01*
X135793Y250853D01*
X134832Y251251D01*
X133800Y251387D01*
X132768Y251251D01*
X131807Y250853D01*
X130981Y250219D01*
X130382Y249439D01*
X127218D01*
X126619Y250219D01*
X125793Y250853D01*
X124832Y251251D01*
X123800Y251387D01*
X122768Y251251D01*
X121807Y250853D01*
X120981Y250219D01*
X120347Y249393D01*
X119949Y248432D01*
X119813Y247400D01*
X119949Y246368D01*
X120347Y245407D01*
X120981Y244581D01*
X121761Y243982D01*
Y234460D01*
X120881Y233580D01*
X120318D01*
X116057Y237842D01*
X115395Y238284D01*
X114615Y238439D01*
X104900D01*
X104120Y238284D01*
X103458Y237842D01*
X92362Y226746D01*
X91900Y226937D01*
Y234150D01*
X91900Y234150D01*
X91900D01*
X92195Y234511D01*
X95857Y238173D01*
X96299Y238835D01*
X96454Y239615D01*
Y243054D01*
X97580D01*
Y245361D01*
X109847D01*
Y243447D01*
X117753D01*
Y251353D01*
X109847D01*
Y249439D01*
X97580D01*
Y251747D01*
X91250D01*
Y243054D01*
X92376D01*
Y240460D01*
X86066Y234150D01*
X77700D01*
Y225850D01*
X90813D01*
X91004Y225388D01*
X86855Y221239D01*
X79500D01*
X78720Y221084D01*
X78058Y220642D01*
X67760Y210343D01*
X67458Y210142D01*
X67016Y209480D01*
X66861Y208700D01*
Y185587D01*
X66758Y185485D01*
X66316Y184823D01*
X66161Y184043D01*
Y168445D01*
X61575Y163858D01*
X60600Y163987D01*
X59568Y163851D01*
X58607Y163453D01*
X57781Y162819D01*
X57147Y161993D01*
X56749Y161032D01*
X56613Y160000D01*
X56749Y158968D01*
X57147Y158007D01*
X57781Y157181D01*
X58607Y156547D01*
X59568Y156149D01*
X60600Y156013D01*
X61632Y156149D01*
X62593Y156547D01*
X63419Y157181D01*
X64053Y158007D01*
X64451Y158968D01*
X64587Y160000D01*
X64459Y160975D01*
X68699Y165215D01*
X69161Y165024D01*
Y131445D01*
X61575Y123858D01*
X60600Y123987D01*
X59568Y123851D01*
X58607Y123453D01*
X57781Y122819D01*
X57147Y121993D01*
X56749Y121032D01*
X56613Y120000D01*
X56749Y118968D01*
X57147Y118007D01*
X57781Y117181D01*
X58607Y116547D01*
X59568Y116149D01*
X60600Y116013D01*
X61632Y116149D01*
X62593Y116547D01*
X63419Y117181D01*
X64053Y118007D01*
X64451Y118968D01*
X64587Y120000D01*
X64459Y120975D01*
X71713Y128229D01*
X72175Y128037D01*
Y113449D01*
X62678Y103953D01*
X56647D01*
Y98210D01*
X54667Y96229D01*
X48000D01*
X47831Y96729D01*
X48419Y97181D01*
X49053Y98007D01*
X49451Y98968D01*
X49587Y100000D01*
X49451Y101032D01*
X49053Y101993D01*
X48419Y102819D01*
X47593Y103453D01*
X46632Y103851D01*
X45600Y103987D01*
X44568Y103851D01*
X43607Y103453D01*
X42781Y102819D01*
X42147Y101993D01*
X41749Y101032D01*
X41613Y100000D01*
X41749Y98968D01*
X42147Y98007D01*
X42781Y97181D01*
X43369Y96729D01*
X43200Y96229D01*
X35845D01*
X35653Y96693D01*
X35019Y97519D01*
X34193Y98153D01*
X33232Y98551D01*
X32200Y98687D01*
X31168Y98551D01*
X30207Y98153D01*
X29381Y97519D01*
X28747Y96693D01*
X28349Y95732D01*
X28278Y95194D01*
X27778Y95227D01*
Y153004D01*
X38649Y163874D01*
X43375D01*
X43410Y163812D01*
X43505Y163374D01*
X42781Y162819D01*
X42147Y161993D01*
X41749Y161032D01*
X41613Y160000D01*
X41749Y158968D01*
X42147Y158007D01*
X42781Y157181D01*
X43607Y156547D01*
X44568Y156149D01*
X45600Y156013D01*
X46632Y156149D01*
X47593Y156547D01*
X48419Y157181D01*
X49053Y158007D01*
X49451Y158968D01*
X49587Y160000D01*
X49451Y161032D01*
X49053Y161993D01*
X48419Y162819D01*
X47695Y163374D01*
X47790Y163812D01*
X47825Y163874D01*
X55800D01*
X56307Y163975D01*
X56737Y164263D01*
X58900Y166426D01*
X59568Y166149D01*
X60600Y166013D01*
X61632Y166149D01*
X62593Y166547D01*
X63419Y167181D01*
X64053Y168007D01*
X64451Y168968D01*
X64587Y170000D01*
X64451Y171032D01*
X64053Y171993D01*
X63419Y172819D01*
X62593Y173453D01*
X61632Y173851D01*
X60600Y173987D01*
X59568Y173851D01*
X58607Y173453D01*
X57781Y172819D01*
X57147Y171993D01*
X56749Y171032D01*
X56613Y170000D01*
X56749Y168968D01*
X57026Y168300D01*
X55251Y166525D01*
X48386D01*
X48217Y167025D01*
X48419Y167181D01*
X49053Y168007D01*
X49451Y168968D01*
X49587Y170000D01*
X49451Y171032D01*
X49053Y171993D01*
X48419Y172819D01*
X47593Y173453D01*
X46632Y173851D01*
X45600Y173987D01*
X44568Y173851D01*
X43607Y173453D01*
X42781Y172819D01*
X42147Y171993D01*
X41749Y171032D01*
X41613Y170000D01*
X41749Y168968D01*
X42147Y168007D01*
X42781Y167181D01*
X42983Y167025D01*
X42814Y166525D01*
X38100D01*
X37593Y166425D01*
X37163Y166137D01*
X25515Y154490D01*
X25228Y154060D01*
X25127Y153553D01*
Y98066D01*
X24627Y97820D01*
X24193Y98153D01*
X23232Y98551D01*
X22200Y98687D01*
X21168Y98551D01*
X20207Y98153D01*
X19381Y97519D01*
X18747Y96693D01*
X18555Y96229D01*
X16153D01*
Y98653D01*
X8247D01*
Y90747D01*
X10671D01*
Y86500D01*
X7000D01*
Y82300D01*
X16800D01*
Y86500D01*
X13729D01*
Y90747D01*
X16153D01*
Y93171D01*
X18555D01*
X18747Y92707D01*
X19381Y91881D01*
X20207Y91247D01*
X21168Y90849D01*
X21924Y90749D01*
X22287Y90294D01*
X22302Y90222D01*
X22275Y90086D01*
Y39200D01*
X22375Y38693D01*
X22663Y38263D01*
X27063Y33863D01*
X27493Y33575D01*
X28000Y33474D01*
X69500D01*
X70007Y33575D01*
X70437Y33863D01*
X87264Y50690D01*
X92054D01*
Y48850D01*
X100747D01*
Y50690D01*
X102665D01*
Y46279D01*
X105056D01*
Y20720D01*
X102665D01*
Y10453D01*
X110098D01*
Y20720D01*
X107707D01*
Y46279D01*
X110098D01*
Y53255D01*
X114622Y57780D01*
X114910Y58210D01*
X114998Y58653D01*
X116850D01*
Y67347D01*
X115010D01*
Y75936D01*
X127937Y88863D01*
X128225Y89293D01*
X128325Y89800D01*
Y111351D01*
X134849Y117875D01*
X137268D01*
Y110119D01*
X137926D01*
Y27848D01*
X138027Y27341D01*
X138315Y26911D01*
X160063Y5163D01*
X160493Y4875D01*
X161000Y4775D01*
X246400D01*
X246907Y4875D01*
X247337Y5163D01*
X303437Y61263D01*
X303725Y61693D01*
X303825Y62200D01*
Y69680D01*
X304122Y69878D01*
X304620Y70622D01*
X304794Y71500D01*
X304620Y72378D01*
X304122Y73122D01*
X303894Y73274D01*
X304046Y73774D01*
X312800D01*
X313307Y73875D01*
X313737Y74163D01*
X320037Y80463D01*
X320325Y80893D01*
X320426Y81400D01*
Y203900D01*
X320325Y204407D01*
X320037Y204837D01*
X302237Y222637D01*
X301807Y222925D01*
X301300Y223025D01*
X287424D01*
X287053Y223337D01*
X287053Y223526D01*
Y231242D01*
X284425D01*
Y234480D01*
X284722Y234678D01*
X285220Y235422D01*
X285394Y236300D01*
X285220Y237178D01*
X284722Y237922D01*
X283978Y238420D01*
X283100Y238594D01*
X282222Y238420D01*
X281478Y237922D01*
X280980Y237178D01*
X280806Y236300D01*
X280980Y235422D01*
X281478Y234678D01*
X281774Y234480D01*
Y231242D01*
X279147D01*
Y223526D01*
X279147Y223337D01*
X278776Y223025D01*
X269553D01*
Y229953D01*
X261647D01*
Y223025D01*
X255449D01*
X254553Y223922D01*
Y229953D01*
X246647D01*
Y222047D01*
X252678D01*
X253963Y220763D01*
X254393Y220475D01*
X254900Y220374D01*
X264714D01*
X264747Y219875D01*
X264568Y219851D01*
X263607Y219453D01*
X262781Y218819D01*
X262147Y217993D01*
X261749Y217032D01*
X261613Y216000D01*
X261749Y214968D01*
X262147Y214007D01*
X262480Y213573D01*
X262234Y213073D01*
X260602D01*
X256737Y216937D01*
X256307Y217225D01*
X255800Y217325D01*
X254329D01*
X254053Y217993D01*
X253419Y218819D01*
X252593Y219453D01*
X251632Y219851D01*
X250600Y219987D01*
X249568Y219851D01*
X248607Y219453D01*
X247781Y218819D01*
X247147Y217993D01*
X246749Y217032D01*
X246613Y216000D01*
X246749Y214968D01*
X247147Y214007D01*
X247781Y213181D01*
X248607Y212547D01*
X249568Y212149D01*
X250600Y212013D01*
X251632Y212149D01*
X252593Y212547D01*
X253419Y213181D01*
X254053Y214007D01*
X254329Y214674D01*
X255251D01*
X259116Y210810D01*
X259545Y210523D01*
X260053Y210422D01*
X265073D01*
X265106Y209922D01*
X264568Y209851D01*
X263607Y209453D01*
X262781Y208819D01*
X262147Y207993D01*
X261749Y207032D01*
X261613Y206000D01*
X261749Y204968D01*
X262147Y204007D01*
X262781Y203181D01*
X263607Y202547D01*
X264568Y202149D01*
X265600Y202013D01*
X266632Y202149D01*
X267593Y202547D01*
X268419Y203181D01*
X269053Y204007D01*
X269451Y204968D01*
X269587Y206000D01*
X269451Y207032D01*
X269053Y207993D01*
X268419Y208819D01*
X267593Y209453D01*
X266632Y209851D01*
X266094Y209922D01*
X266127Y210422D01*
X272047D01*
X272554Y210523D01*
X272985Y210810D01*
X278685Y216511D01*
X279147Y216319D01*
Y209558D01*
X281774D01*
Y205180D01*
X278753D01*
Y198850D01*
X287446D01*
Y205180D01*
X284425D01*
Y209558D01*
X287053D01*
Y217463D01*
X287548Y217475D01*
X299251D01*
X310275Y206451D01*
Y81649D01*
X307851Y79225D01*
X295787D01*
X295520Y79725D01*
X295719Y80023D01*
X295893Y80901D01*
X295719Y81779D01*
X295638Y81899D01*
Y84093D01*
X296568D01*
Y91998D01*
X290631D01*
Y84093D01*
X291560D01*
Y81899D01*
X291480Y81779D01*
X291305Y80901D01*
X291480Y80023D01*
X291679Y79725D01*
X291411Y79225D01*
X281349D01*
X274937Y85637D01*
X274507Y85925D01*
X274000Y86026D01*
X267640D01*
X267541Y86525D01*
X267593Y86547D01*
X268419Y87181D01*
X269053Y88007D01*
X269451Y88968D01*
X269587Y90000D01*
X269451Y91032D01*
X269053Y91993D01*
X268419Y92819D01*
X267593Y93453D01*
X267541Y93475D01*
X267640Y93975D01*
X273197D01*
X278032Y89140D01*
Y84093D01*
X283969D01*
Y91998D01*
X278923D01*
X274684Y96237D01*
X274254Y96525D01*
X273746Y96626D01*
X268473D01*
X268312Y97099D01*
X268419Y97181D01*
X269053Y98007D01*
X269451Y98968D01*
X269587Y100000D01*
X269451Y101032D01*
X269053Y101993D01*
X268419Y102819D01*
X267593Y103453D01*
X266632Y103851D01*
X266094Y103922D01*
X266127Y104422D01*
X273729D01*
Y103331D01*
X277469D01*
Y97426D01*
X288131D01*
Y98454D01*
X294195D01*
X294315Y98374D01*
X295193Y98199D01*
X296071Y98374D01*
X296815Y98871D01*
X297312Y99615D01*
X297487Y100493D01*
X297312Y101371D01*
X296815Y102115D01*
X296071Y102612D01*
X295193Y102787D01*
X294315Y102612D01*
X294195Y102532D01*
X291957D01*
Y110869D01*
X291802Y111649D01*
X291360Y112311D01*
X291360Y112311D01*
X290189Y113482D01*
X289527Y113924D01*
X288747Y114079D01*
X288131D01*
Y115174D01*
X284839D01*
Y116533D01*
X288731D01*
Y117628D01*
X290518D01*
X291299Y117783D01*
X291960Y118225D01*
X292402Y118886D01*
X292557Y119667D01*
Y129976D01*
X292402Y130756D01*
X291960Y131418D01*
X291960Y131418D01*
X290789Y132589D01*
X290127Y133031D01*
X289347Y133186D01*
X288731D01*
Y134281D01*
X278069D01*
Y128375D01*
X274329D01*
Y125126D01*
X268363D01*
X268299Y125190D01*
X267869Y125477D01*
X267361Y125578D01*
X254853D01*
X254345Y125477D01*
X253916Y125190D01*
X252678Y123953D01*
X248522D01*
X237000Y135475D01*
X237207Y135975D01*
X246617D01*
X246749Y134968D01*
X247147Y134007D01*
X247781Y133181D01*
X248607Y132547D01*
X249568Y132149D01*
X250600Y132013D01*
X251632Y132149D01*
X252593Y132547D01*
X253419Y133181D01*
X254053Y134007D01*
X254451Y134968D01*
X254587Y136000D01*
X254451Y137032D01*
X254053Y137993D01*
X253419Y138819D01*
X252593Y139453D01*
X251632Y139851D01*
X250600Y139987D01*
X249568Y139851D01*
X248607Y139453D01*
X247781Y138819D01*
X247632Y138626D01*
X224653D01*
X224650Y139124D01*
X225157Y139225D01*
X225587Y139512D01*
X230749Y144675D01*
X246871D01*
X247147Y144007D01*
X247781Y143181D01*
X248607Y142547D01*
X249568Y142149D01*
X250600Y142013D01*
X251632Y142149D01*
X252300Y142426D01*
X254863Y139863D01*
X255293Y139575D01*
X255800Y139474D01*
X262814D01*
X262983Y138974D01*
X262781Y138819D01*
X262147Y137993D01*
X261749Y137032D01*
X261613Y136000D01*
X261749Y134968D01*
X262147Y134007D01*
X262781Y133181D01*
X263607Y132547D01*
X264568Y132149D01*
X265600Y132013D01*
X266632Y132149D01*
X267593Y132547D01*
X268419Y133181D01*
X269053Y134007D01*
X269451Y134968D01*
X269587Y136000D01*
X269451Y137032D01*
X269053Y137993D01*
X268419Y138819D01*
X268217Y138974D01*
X268386Y139474D01*
X272420D01*
Y136453D01*
X278750D01*
Y145147D01*
X272420D01*
Y142125D01*
X267825D01*
X267790Y142189D01*
X267695Y142625D01*
X268419Y143181D01*
X269053Y144007D01*
X269451Y144968D01*
X269587Y146000D01*
X269451Y147032D01*
X269053Y147993D01*
X268419Y148819D01*
X267593Y149453D01*
X267541Y149475D01*
X267640Y149975D01*
X272220D01*
Y146953D01*
X278550D01*
Y155647D01*
X272220D01*
Y152626D01*
X268473D01*
X268312Y153099D01*
X268419Y153181D01*
X269053Y154007D01*
X269451Y154968D01*
X269587Y156000D01*
X269451Y157032D01*
X269053Y157993D01*
X268419Y158819D01*
X267593Y159453D01*
X266632Y159851D01*
X265600Y159987D01*
X264568Y159851D01*
X263607Y159453D01*
X262781Y158819D01*
X262147Y157993D01*
X261749Y157032D01*
X261613Y156000D01*
X261749Y154968D01*
X262147Y154007D01*
X262781Y153181D01*
X262888Y153099D01*
X262727Y152626D01*
X255849D01*
X254174Y154300D01*
X254451Y154968D01*
X254587Y156000D01*
X254451Y157032D01*
X254053Y157993D01*
X253419Y158819D01*
X252593Y159453D01*
X251632Y159851D01*
X250600Y159987D01*
X249568Y159851D01*
X248607Y159453D01*
X247781Y158819D01*
X247147Y157993D01*
X246871Y157325D01*
X236200D01*
X235693Y157225D01*
X235263Y156937D01*
X223250Y144925D01*
X213482D01*
X213346Y145167D01*
X213299Y145425D01*
X242549Y174674D01*
X246871D01*
X247147Y174007D01*
X247781Y173181D01*
X248607Y172547D01*
X249568Y172149D01*
X250600Y172013D01*
X251632Y172149D01*
X252593Y172547D01*
X253419Y173181D01*
X254053Y174007D01*
X254451Y174968D01*
X254587Y176000D01*
X254451Y177032D01*
X254053Y177993D01*
X253419Y178819D01*
X252593Y179453D01*
X251632Y179851D01*
X250600Y179987D01*
X249568Y179851D01*
X248607Y179453D01*
X247781Y178819D01*
X247147Y177993D01*
X246871Y177325D01*
X242000D01*
X241493Y177225D01*
X241063Y176937D01*
X211749Y147624D01*
X191019D01*
X190821Y147921D01*
X190593Y148073D01*
X190744Y148573D01*
X199613D01*
X200120Y148674D01*
X200550Y148961D01*
X218890Y167301D01*
X219177Y167731D01*
X219278Y168238D01*
Y168904D01*
X235049Y184675D01*
X246871D01*
X247147Y184007D01*
X247781Y183181D01*
X248607Y182547D01*
X249568Y182149D01*
X250600Y182013D01*
X251632Y182149D01*
X252593Y182547D01*
X253419Y183181D01*
X254053Y184007D01*
X254451Y184968D01*
X254587Y186000D01*
X254451Y187032D01*
X254174Y187700D01*
X256534Y190059D01*
X263765D01*
X263864Y189559D01*
X263607Y189453D01*
X262781Y188819D01*
X262147Y187993D01*
X261749Y187032D01*
X261613Y186000D01*
X261749Y184968D01*
X262147Y184007D01*
X262781Y183181D01*
X263607Y182547D01*
X264568Y182149D01*
X265600Y182013D01*
X266632Y182149D01*
X267593Y182547D01*
X268419Y183181D01*
X269053Y184007D01*
X269451Y184968D01*
X269587Y186000D01*
X269451Y187032D01*
X269053Y187993D01*
X268419Y188819D01*
X267593Y189453D01*
X267336Y189559D01*
X267435Y190059D01*
X278753D01*
Y188220D01*
X287446D01*
Y194550D01*
X278753D01*
Y192710D01*
X268579D01*
X268476Y193014D01*
X268442Y193210D01*
X269053Y194007D01*
X269451Y194968D01*
X269587Y196000D01*
X269451Y197032D01*
X269053Y197993D01*
X268419Y198819D01*
X267593Y199453D01*
X266632Y199851D01*
X265600Y199987D01*
X264568Y199851D01*
X263607Y199453D01*
X262781Y198819D01*
X262147Y197993D01*
X261749Y197032D01*
X261613Y196000D01*
X261749Y194968D01*
X262147Y194007D01*
X262758Y193210D01*
X262724Y193014D01*
X262621Y192710D01*
X255985D01*
X255478Y192610D01*
X255048Y192322D01*
X252300Y189574D01*
X251632Y189851D01*
X250600Y189987D01*
X249568Y189851D01*
X248607Y189453D01*
X247781Y188819D01*
X247147Y187993D01*
X246871Y187326D01*
X234500D01*
X233993Y187225D01*
X233563Y186937D01*
X217965Y171339D01*
X217375Y171457D01*
X217153Y171993D01*
X216519Y172819D01*
X215739Y173418D01*
Y176702D01*
X215820Y176822D01*
X215994Y177700D01*
X215820Y178578D01*
X215322Y179322D01*
X214578Y179820D01*
X213700Y179994D01*
X212822Y179820D01*
X212078Y179322D01*
X211580Y178578D01*
X211406Y177700D01*
X211580Y176822D01*
X211661Y176702D01*
Y173418D01*
X210881Y172819D01*
X210247Y171993D01*
X209849Y171032D01*
X209713Y170000D01*
X209849Y168968D01*
X210247Y168007D01*
X210881Y167181D01*
X211707Y166547D01*
X212668Y166149D01*
X213210Y166078D01*
X213389Y165550D01*
X199064Y151224D01*
X186751D01*
X186748Y151723D01*
X187255Y151823D01*
X187685Y152111D01*
X202000Y166426D01*
X202668Y166149D01*
X203700Y166013D01*
X204732Y166149D01*
X205693Y166547D01*
X206519Y167181D01*
X207153Y168007D01*
X207551Y168968D01*
X207687Y170000D01*
X207551Y171032D01*
X207153Y171993D01*
X206519Y172819D01*
X205693Y173453D01*
X204732Y173851D01*
X203700Y173987D01*
X202668Y173851D01*
X201707Y173453D01*
X200881Y172819D01*
X200247Y171993D01*
X199849Y171032D01*
X199713Y170000D01*
X199849Y168968D01*
X200126Y168300D01*
X198153Y166327D01*
X197653Y166534D01*
Y169500D01*
X194200D01*
Y166047D01*
X197166D01*
X197373Y165547D01*
X186199Y154374D01*
X182181D01*
Y155032D01*
X174276D01*
Y151064D01*
Y148074D01*
X172849D01*
X172342Y147973D01*
X171912Y147686D01*
X169627Y145402D01*
X169166Y145648D01*
X169296Y146298D01*
X169121Y147176D01*
X168624Y147921D01*
X167879Y148418D01*
X167002Y148592D01*
X166124Y148418D01*
X165379Y147921D01*
X164882Y147176D01*
X164708Y146298D01*
X164882Y145421D01*
X165379Y144676D01*
X165676Y144478D01*
Y138643D01*
X165176Y138492D01*
X165022Y138722D01*
X164278Y139219D01*
X163400Y139394D01*
X162522Y139219D01*
X161778Y138722D01*
X161207Y138768D01*
X145989Y153985D01*
X145559Y154273D01*
X145052Y154374D01*
X135724D01*
Y155032D01*
X127819D01*
Y151224D01*
X127151D01*
X125826Y152549D01*
Y154880D01*
X126122Y155078D01*
X126620Y155822D01*
X126794Y156700D01*
X126620Y157578D01*
X126122Y158322D01*
X125378Y158819D01*
X124500Y158994D01*
X123622Y158819D01*
X122878Y158322D01*
X122380Y157578D01*
X122206Y156700D01*
X122380Y155822D01*
X122878Y155078D01*
X123175Y154880D01*
Y152000D01*
X123275Y151493D01*
X123563Y151063D01*
X125664Y148961D01*
X126094Y148674D01*
X126602Y148573D01*
X126598Y148074D01*
X124600D01*
X119237Y153437D01*
X118807Y153725D01*
X118300Y153825D01*
X110953D01*
Y156453D01*
X108425D01*
Y169980D01*
X108722Y170178D01*
X109220Y170922D01*
X109394Y171800D01*
X109220Y172678D01*
X108722Y173422D01*
X107978Y173919D01*
X107100Y174094D01*
X106222Y173919D01*
X105478Y173422D01*
X104981Y172678D01*
X104806Y171800D01*
X104981Y170922D01*
X105478Y170178D01*
X105774Y169980D01*
Y156453D01*
X103047D01*
Y149034D01*
X102547Y148827D01*
X100574Y150800D01*
X100851Y151468D01*
X100987Y152500D01*
X100851Y153532D01*
X100453Y154493D01*
X99819Y155319D01*
X98993Y155953D01*
X98326Y156229D01*
Y168780D01*
X98622Y168978D01*
X99119Y169722D01*
X99294Y170600D01*
X99119Y171478D01*
X98622Y172222D01*
X97878Y172720D01*
X97000Y172894D01*
X96122Y172720D01*
X95378Y172222D01*
X94881Y171478D01*
X94706Y170600D01*
X94881Y169722D01*
X95378Y168978D01*
X95675Y168780D01*
Y156229D01*
X95007Y155953D01*
X94181Y155319D01*
X93547Y154493D01*
X93149Y153532D01*
X93013Y152500D01*
X93149Y151468D01*
X93547Y150507D01*
X94181Y149681D01*
X95007Y149047D01*
X95968Y148649D01*
X97000Y148513D01*
X98032Y148649D01*
X98700Y148926D01*
X104316Y143309D01*
X104746Y143022D01*
X105254Y142921D01*
X107120D01*
Y141639D01*
X99598D01*
X99478Y141719D01*
X98600Y141894D01*
X97722Y141719D01*
X96978Y141222D01*
X96481Y140478D01*
X96306Y139600D01*
X96481Y138722D01*
X96978Y137978D01*
X97722Y137480D01*
X98600Y137306D01*
X99478Y137480D01*
X99598Y137561D01*
X107120D01*
Y135254D01*
X113450D01*
Y142921D01*
X117750D01*
Y135254D01*
X124080D01*
Y136667D01*
X124542Y136858D01*
X125377Y136023D01*
X125548Y135909D01*
X125502Y135338D01*
X121603Y131439D01*
X120980D01*
Y133747D01*
X114650D01*
Y125054D01*
X115321D01*
X115472Y124554D01*
X115448Y124537D01*
X113991Y123080D01*
X108353D01*
Y117325D01*
X103449D01*
X93274Y127500D01*
X93551Y128168D01*
X93687Y129200D01*
X93551Y130232D01*
X93153Y131193D01*
X92519Y132019D01*
X91693Y132653D01*
X90732Y133051D01*
X89700Y133187D01*
X88668Y133051D01*
X87707Y132653D01*
X86881Y132019D01*
X86247Y131193D01*
X85849Y130232D01*
X85713Y129200D01*
X85849Y128168D01*
X86247Y127207D01*
X86881Y126381D01*
X87707Y125747D01*
X88668Y125349D01*
X89700Y125213D01*
X90732Y125349D01*
X91400Y125626D01*
X96038Y120988D01*
X95808Y120541D01*
X95793Y120526D01*
X93429D01*
X93153Y121193D01*
X92519Y122019D01*
X91693Y122653D01*
X90732Y123051D01*
X89700Y123187D01*
X88668Y123051D01*
X87707Y122653D01*
X86881Y122019D01*
X86247Y121193D01*
X85849Y120232D01*
X85713Y119200D01*
X85849Y118168D01*
X86247Y117207D01*
X86881Y116381D01*
X87707Y115747D01*
X88668Y115349D01*
X89700Y115213D01*
X90732Y115349D01*
X91693Y115747D01*
X92519Y116381D01*
X93153Y117207D01*
X93429Y117875D01*
X95251D01*
X99663Y113463D01*
X100093Y113175D01*
X100600Y113075D01*
X100600Y113075D01*
X106611D01*
X106803Y112613D01*
X104716Y110526D01*
X93653D01*
Y113153D01*
X85747D01*
Y105247D01*
X93653D01*
Y107875D01*
X105265D01*
X105772Y107975D01*
X106202Y108263D01*
X107892Y109952D01*
X108353Y109761D01*
Y106120D01*
X111374D01*
Y98153D01*
X108137D01*
Y90247D01*
X116043D01*
Y98153D01*
X114025D01*
Y106120D01*
X117046D01*
Y111425D01*
X118250D01*
X118758Y111526D01*
X119188Y111813D01*
X127319Y119944D01*
X127819Y119737D01*
Y119568D01*
X132140D01*
X132331Y119106D01*
X126063Y112837D01*
X125775Y112407D01*
X125674Y111900D01*
Y90349D01*
X112748Y77422D01*
X112460Y76992D01*
X112359Y76485D01*
Y67347D01*
X110520D01*
Y58653D01*
X111094D01*
X111285Y58192D01*
X109641Y56547D01*
X102665D01*
Y53341D01*
X100747D01*
Y55180D01*
X92054D01*
Y53341D01*
X86715D01*
X86208Y53240D01*
X85778Y52952D01*
X68951Y36125D01*
X28549D01*
X24926Y39749D01*
Y89537D01*
X27390Y92001D01*
X27677Y92431D01*
X27778Y92939D01*
Y94173D01*
X28278Y94206D01*
X28349Y93668D01*
X28747Y92707D01*
X29381Y91881D01*
X30207Y91247D01*
X31168Y90849D01*
X32200Y90713D01*
X33232Y90849D01*
X34193Y91247D01*
X35019Y91881D01*
X35653Y92707D01*
X35845Y93171D01*
X42466D01*
X42667Y92671D01*
X42147Y91993D01*
X41749Y91032D01*
X41613Y90000D01*
X41749Y88968D01*
X42147Y88007D01*
X42781Y87181D01*
X43607Y86547D01*
X44568Y86149D01*
X45600Y86013D01*
X46632Y86149D01*
X47593Y86547D01*
X48419Y87181D01*
X49053Y88007D01*
X49451Y88968D01*
X49587Y90000D01*
X49451Y91032D01*
X49053Y91993D01*
X48533Y92671D01*
X48734Y93171D01*
X55300D01*
X55885Y93287D01*
X56381Y93619D01*
X58810Y96047D01*
X64066D01*
X64273Y95547D01*
X62300Y93574D01*
X61632Y93851D01*
X60600Y93987D01*
X59568Y93851D01*
X58607Y93453D01*
X57781Y92819D01*
X57147Y91993D01*
X56749Y91032D01*
X56613Y90000D01*
X56749Y88968D01*
X57147Y88007D01*
X57781Y87181D01*
X58607Y86547D01*
X59568Y86149D01*
X60600Y86013D01*
X61632Y86149D01*
X62593Y86547D01*
X63419Y87181D01*
X64053Y88007D01*
X64451Y88968D01*
X64587Y90000D01*
X64451Y91032D01*
X64174Y91700D01*
X74913Y102438D01*
X75375Y102247D01*
Y96649D01*
X62300Y83574D01*
X61632Y83851D01*
X60600Y83987D01*
X59568Y83851D01*
X58607Y83453D01*
X57781Y82819D01*
X57147Y81993D01*
X56749Y81032D01*
X56613Y80000D01*
X56749Y78968D01*
X57147Y78007D01*
X57781Y77181D01*
X58607Y76547D01*
X59568Y76149D01*
X60600Y76013D01*
X61632Y76149D01*
X62593Y76547D01*
X63419Y77181D01*
X64053Y78007D01*
X64451Y78968D01*
X64587Y80000D01*
X64451Y81032D01*
X64174Y81700D01*
X76613Y94138D01*
X77074Y93947D01*
Y88349D01*
X62300Y73574D01*
X61632Y73851D01*
X60600Y73987D01*
X59568Y73851D01*
X58607Y73453D01*
X57781Y72819D01*
X57147Y71993D01*
X56749Y71032D01*
X56613Y70000D01*
X56749Y68968D01*
X57147Y68007D01*
X57781Y67181D01*
X58607Y66547D01*
X59568Y66149D01*
X60600Y66013D01*
X61632Y66149D01*
X62593Y66547D01*
X63419Y67181D01*
X64053Y68007D01*
X64451Y68968D01*
X64587Y70000D01*
X64451Y71032D01*
X64174Y71700D01*
X78313Y85838D01*
X78774Y85647D01*
Y79249D01*
X62811Y63286D01*
X62593Y63453D01*
X61632Y63851D01*
X60600Y63987D01*
X59568Y63851D01*
X58607Y63453D01*
X57781Y62819D01*
X57147Y61993D01*
X56749Y61032D01*
X56613Y60000D01*
X56749Y58968D01*
X57147Y58007D01*
X57781Y57181D01*
X58607Y56547D01*
X59568Y56149D01*
X60600Y56013D01*
X61632Y56149D01*
X62593Y56547D01*
X63419Y57181D01*
X64053Y58007D01*
X64451Y58968D01*
X64587Y60000D01*
X64451Y61032D01*
X64409Y61134D01*
X80113Y76838D01*
X80575Y76647D01*
Y71849D01*
X62300Y53574D01*
X61632Y53851D01*
X60600Y53987D01*
X59568Y53851D01*
X58607Y53453D01*
X57781Y52819D01*
X57147Y51993D01*
X56749Y51032D01*
X56613Y50000D01*
X56749Y48968D01*
X57147Y48007D01*
X57781Y47181D01*
X58607Y46547D01*
X59568Y46149D01*
X60600Y46013D01*
X61632Y46149D01*
X62593Y46547D01*
X63419Y47181D01*
X64053Y48007D01*
X64451Y48968D01*
X64587Y50000D01*
X64451Y51032D01*
X64174Y51700D01*
X82837Y70363D01*
X83125Y70793D01*
X83226Y71300D01*
Y171200D01*
X93900Y181875D01*
X127053D01*
Y180869D01*
X124228D01*
X124108Y180949D01*
X123230Y181124D01*
X122352Y180949D01*
X121608Y180452D01*
X121110Y179708D01*
X120936Y178830D01*
X121110Y177952D01*
X121608Y177208D01*
X122352Y176710D01*
X123230Y176536D01*
X124108Y176710D01*
X124228Y176791D01*
X127053D01*
Y175665D01*
X135747D01*
Y181875D01*
X141463D01*
X147375Y175962D01*
Y164481D01*
X144441D01*
Y165200D01*
X144521Y165321D01*
X144696Y166198D01*
X144521Y167076D01*
X144024Y167821D01*
X143280Y168318D01*
X142402Y168492D01*
X141524Y168318D01*
X140779Y167821D01*
X140282Y167076D01*
X140108Y166198D01*
X140282Y165321D01*
X140362Y165200D01*
Y164481D01*
X139752D01*
Y160528D01*
Y156576D01*
X145091D01*
Y156276D01*
X145192Y155768D01*
X145479Y155338D01*
X145909Y155051D01*
X146417Y154950D01*
X172271D01*
X172271Y154950D01*
X172271Y154950D01*
X172539Y155003D01*
X172778Y155051D01*
X172778Y155051D01*
X172778Y155051D01*
X172994Y155195D01*
X173208Y155338D01*
X173208Y155338D01*
X173208Y155339D01*
X173970Y156100D01*
X174107Y156305D01*
X174257Y156530D01*
X174257Y156530D01*
X174257Y156530D01*
X174309Y156792D01*
X174358Y157037D01*
Y160883D01*
X218149Y204675D01*
X246871D01*
X247147Y204007D01*
X247781Y203181D01*
X248607Y202547D01*
X249568Y202149D01*
X250600Y202013D01*
X251632Y202149D01*
X252593Y202547D01*
X253419Y203181D01*
X254053Y204007D01*
X254451Y204968D01*
X254587Y206000D01*
X254451Y207032D01*
X254053Y207993D01*
X253419Y208819D01*
X252593Y209453D01*
X251632Y209851D01*
X250600Y209987D01*
X249568Y209851D01*
X248607Y209453D01*
X247781Y208819D01*
X247147Y207993D01*
X246871Y207326D01*
X217600D01*
X217093Y207225D01*
X216663Y206937D01*
X181408Y171683D01*
X180947Y171874D01*
Y173185D01*
X177100D01*
Y170520D01*
X179592D01*
X179783Y170058D01*
X173194Y163469D01*
X172732Y163660D01*
Y164481D01*
X171248D01*
Y160528D01*
X170248D01*
Y164481D01*
X169638D01*
Y165100D01*
X169718Y165220D01*
X169893Y166098D01*
X169718Y166976D01*
X169221Y167721D01*
X168476Y168218D01*
X167598Y168393D01*
X166720Y168218D01*
X166274Y167920D01*
X165774Y168187D01*
Y169486D01*
X165673Y169993D01*
X165656Y170020D01*
X165923Y170520D01*
X167100D01*
Y173685D01*
Y176850D01*
X163253D01*
Y175974D01*
X162792Y175783D01*
X146437Y192137D01*
X146007Y192425D01*
X145500Y192525D01*
X89800D01*
X89293Y192425D01*
X88863Y192137D01*
X73701Y176976D01*
X73239Y177167D01*
Y181255D01*
X92634Y200650D01*
X96550D01*
Y204566D01*
X107300Y215316D01*
X121458Y201158D01*
X122120Y200716D01*
X122900Y200561D01*
X153700D01*
X154480Y200716D01*
X155142Y201158D01*
X173242Y219258D01*
X173242Y219258D01*
X173684Y219920D01*
X173839Y220700D01*
X173839Y220700D01*
Y229870D01*
X173684Y230650D01*
X173242Y231312D01*
X167455Y237099D01*
X167646Y237561D01*
X176600D01*
X177380Y237716D01*
X178042Y238158D01*
X186042Y246158D01*
X186484Y246820D01*
X186639Y247600D01*
Y266961D01*
X202570D01*
X207053Y262478D01*
Y257850D01*
X215746D01*
Y264180D01*
X211119D01*
X204857Y270442D01*
X204195Y270884D01*
X203415Y271039D01*
X186045D01*
X176453Y280631D01*
Y285653D01*
X174539D01*
Y291158D01*
X175025Y291589D01*
X175600Y291513D01*
X176632Y291649D01*
X177593Y292047D01*
X178419Y292681D01*
X179018Y293461D01*
X182182D01*
X182781Y292681D01*
X183607Y292047D01*
X184568Y291649D01*
X185600Y291513D01*
X186632Y291649D01*
X187593Y292047D01*
X188419Y292681D01*
X189053Y293507D01*
X189451Y294468D01*
X189587Y295500D01*
X189451Y296532D01*
X189053Y297493D01*
X188419Y298319D01*
X187593Y298953D01*
X186632Y299351D01*
X185600Y299487D01*
D02*
G37*
G36*
X138752Y164481D02*
X137268D01*
Y161028D01*
X138752D01*
Y164481D01*
D02*
G37*
G36*
Y160028D02*
X137268D01*
Y156576D01*
X138752D01*
Y160028D01*
D02*
G37*
G36*
X61100Y153921D02*
Y150500D01*
X64521D01*
X64451Y151032D01*
X64053Y151993D01*
X63419Y152819D01*
X62593Y153453D01*
X61632Y153851D01*
X61100Y153921D01*
D02*
G37*
G36*
X193200Y169500D02*
X189747D01*
Y166047D01*
X193200D01*
Y169500D01*
D02*
G37*
G36*
X135747Y167700D02*
X131900D01*
Y165035D01*
X135747D01*
Y167700D01*
D02*
G37*
G36*
X130900D02*
X127053D01*
Y165035D01*
X130900D01*
Y167700D01*
D02*
G37*
G36*
X315100Y303485D02*
X313679Y303345D01*
X312312Y302930D01*
X311053Y302257D01*
X309949Y301351D01*
X309043Y300247D01*
X308369Y298988D01*
X307955Y297621D01*
X307815Y296200D01*
X307955Y294779D01*
X308369Y293412D01*
X309043Y292153D01*
X309949Y291049D01*
X311053Y290143D01*
X312312Y289470D01*
X313679Y289055D01*
X315100Y288915D01*
X316521Y289055D01*
X317888Y289470D01*
X319147Y290143D01*
X320251Y291049D01*
X321157Y292153D01*
X321831Y293412D01*
X322245Y294779D01*
X322385Y296200D01*
X322245Y297621D01*
X321831Y298988D01*
X321157Y300247D01*
X320251Y301351D01*
X319147Y302257D01*
X317888Y302930D01*
X316521Y303345D01*
X315100Y303485D01*
D02*
G37*
G36*
X197653Y173953D02*
X194200D01*
Y170500D01*
X197653D01*
Y173953D01*
D02*
G37*
G36*
X193000Y285621D02*
Y282200D01*
X196421D01*
X196351Y282732D01*
X195953Y283693D01*
X195319Y284519D01*
X194493Y285153D01*
X193532Y285551D01*
X193000Y285621D01*
D02*
G37*
G36*
X107766Y297380D02*
X106833Y297258D01*
X105963Y296897D01*
X105217Y296324D01*
X104644Y295578D01*
X104283Y294708D01*
X104160Y293775D01*
Y288625D01*
X104283Y287692D01*
X104644Y286822D01*
X105217Y286076D01*
X105963Y285503D01*
X106833Y285142D01*
X107766Y285019D01*
X108699Y285142D01*
X109569Y285503D01*
X110316Y286076D01*
X110889Y286822D01*
X111249Y287692D01*
X111372Y288625D01*
Y293775D01*
X111249Y294708D01*
X110889Y295578D01*
X110316Y296324D01*
X109569Y296897D01*
X108699Y297258D01*
X107766Y297380D01*
D02*
G37*
G36*
X180947Y176850D02*
X177100D01*
Y174185D01*
X180947D01*
Y176850D01*
D02*
G37*
G36*
X171946Y176850D02*
Y176850D01*
X168100D01*
Y173685D01*
Y170520D01*
X171946D01*
Y170520D01*
X172254D01*
Y170520D01*
X176100D01*
Y173685D01*
Y176850D01*
X172254D01*
Y176850D01*
X171946D01*
D02*
G37*
G36*
X192000Y285621D02*
X191468Y285551D01*
X190507Y285153D01*
X189681Y284519D01*
X189047Y283693D01*
X188649Y282732D01*
X188579Y282200D01*
X192000D01*
Y285621D01*
D02*
G37*
G36*
X136900Y297380D02*
X135967Y297258D01*
X135097Y296897D01*
X134350Y296324D01*
X133777Y295578D01*
X133417Y294708D01*
X133294Y293775D01*
Y288625D01*
X133417Y287692D01*
X133777Y286822D01*
X134350Y286076D01*
X135097Y285503D01*
X135967Y285142D01*
X136900Y285019D01*
X137833Y285142D01*
X138703Y285503D01*
X139450Y286076D01*
X140023Y286822D01*
X140383Y287692D01*
X140506Y288625D01*
Y293775D01*
X140383Y294708D01*
X140023Y295578D01*
X139450Y296324D01*
X138703Y296897D01*
X137833Y297258D01*
X136900Y297380D01*
D02*
G37*
G36*
X12900Y302785D02*
X11479Y302645D01*
X10112Y302231D01*
X8853Y301557D01*
X7749Y300651D01*
X6843Y299547D01*
X6169Y298288D01*
X5755Y296921D01*
X5615Y295500D01*
X5755Y294079D01*
X6169Y292712D01*
X6843Y291453D01*
X7749Y290349D01*
X8853Y289443D01*
X10112Y288770D01*
X11479Y288355D01*
X12900Y288215D01*
X14321Y288355D01*
X15688Y288770D01*
X16947Y289443D01*
X18051Y290349D01*
X18957Y291453D01*
X19631Y292712D01*
X20045Y294079D01*
X20185Y295500D01*
X20045Y296921D01*
X19631Y298288D01*
X18957Y299547D01*
X18051Y300651D01*
X16947Y301557D01*
X15688Y302231D01*
X14321Y302645D01*
X12900Y302785D01*
D02*
G37*
%LPD*%
G36*
X160063Y136163D02*
X160493Y135875D01*
X161000Y135775D01*
X161580D01*
X161778Y135478D01*
X162522Y134980D01*
X163400Y134806D01*
X164278Y134980D01*
X165022Y135478D01*
X165176Y135708D01*
X165676Y135557D01*
Y133100D01*
X165777Y132593D01*
X166064Y132163D01*
X168164Y130064D01*
X168594Y129776D01*
X169101Y129675D01*
X174276D01*
Y125867D01*
Y125202D01*
X182181D01*
Y126526D01*
X188900D01*
X226363Y89063D01*
X226793Y88775D01*
X227300Y88674D01*
X246871D01*
X247147Y88007D01*
X247781Y87181D01*
X248607Y86547D01*
X248659Y86525D01*
X248560Y86026D01*
X248500D01*
X247993Y85925D01*
X247563Y85637D01*
X244863Y82937D01*
X244575Y82507D01*
X244475Y82000D01*
Y74800D01*
X244575Y74293D01*
X244863Y73863D01*
X247026Y71700D01*
X246749Y71032D01*
X246613Y70000D01*
X246749Y68968D01*
X247147Y68007D01*
X247781Y67181D01*
X248607Y66547D01*
X249568Y66149D01*
X250600Y66013D01*
X251632Y66149D01*
X252300Y66426D01*
X256474Y62251D01*
Y43449D01*
X253151Y40126D01*
X240512D01*
X232425Y48213D01*
X232616Y48674D01*
X246871D01*
X247147Y48007D01*
X247781Y47181D01*
X248607Y46547D01*
X249568Y46149D01*
X250600Y46013D01*
X251632Y46149D01*
X252593Y46547D01*
X253419Y47181D01*
X254053Y48007D01*
X254451Y48968D01*
X254587Y50000D01*
X254451Y51032D01*
X254053Y51993D01*
X253419Y52819D01*
X252593Y53453D01*
X251632Y53851D01*
X250600Y53987D01*
X249568Y53851D01*
X248607Y53453D01*
X247781Y52819D01*
X247147Y51993D01*
X246871Y51326D01*
X231575D01*
X224687Y58213D01*
X224879Y58675D01*
X246871D01*
X247147Y58007D01*
X247781Y57181D01*
X248607Y56547D01*
X249568Y56149D01*
X250600Y56013D01*
X251632Y56149D01*
X252593Y56547D01*
X253419Y57181D01*
X254053Y58007D01*
X254451Y58968D01*
X254587Y60000D01*
X254451Y61032D01*
X254053Y61993D01*
X253419Y62819D01*
X252593Y63453D01*
X251632Y63851D01*
X250600Y63987D01*
X249568Y63851D01*
X248607Y63453D01*
X247781Y62819D01*
X247147Y61993D01*
X246871Y61326D01*
X223837D01*
X208125Y77037D01*
X207696Y77325D01*
X207188Y77425D01*
X198749D01*
X168924Y107251D01*
Y110119D01*
X172732D01*
X172732Y110119D01*
Y110119D01*
X173104Y109841D01*
X187882Y95063D01*
X188312Y94775D01*
X188820Y94674D01*
X197054D01*
Y92650D01*
X205747D01*
Y98980D01*
X197054D01*
Y97325D01*
X189369D01*
X172732Y113962D01*
Y118024D01*
X150230D01*
Y119315D01*
X150323Y119377D01*
X150820Y120121D01*
X150995Y120999D01*
X150820Y121877D01*
X150323Y122621D01*
X149579Y123119D01*
X148701Y123293D01*
X147823Y123119D01*
X147079Y122621D01*
X146581Y121877D01*
X146407Y120999D01*
X146581Y120121D01*
X147079Y119377D01*
X147171Y119315D01*
Y118024D01*
X146051D01*
Y114072D01*
Y110119D01*
X150525D01*
Y107965D01*
X147000D01*
Y104800D01*
Y101635D01*
X150525D01*
Y97335D01*
X142154D01*
Y91005D01*
X144461D01*
Y89798D01*
X144380Y89678D01*
X144206Y88800D01*
X144380Y87922D01*
X144878Y87178D01*
X145622Y86681D01*
X146500Y86506D01*
X147378Y86681D01*
X148122Y87178D01*
X148619Y87922D01*
X148794Y88800D01*
X148619Y89678D01*
X148539Y89798D01*
Y91005D01*
X150525D01*
Y59249D01*
X150626Y58742D01*
X150913Y58311D01*
X182163Y27062D01*
Y12172D01*
X192037D01*
Y22470D01*
X201153D01*
Y20865D01*
X209846D01*
Y27195D01*
X207326D01*
Y28505D01*
X210347D01*
Y34835D01*
X201654D01*
Y28505D01*
X204675D01*
Y27195D01*
X201153D01*
Y25529D01*
X192037D01*
Y35826D01*
X182163D01*
Y31464D01*
X181701Y31273D01*
X153176Y59798D01*
Y83720D01*
X154561D01*
Y82298D01*
X154481Y82178D01*
X154306Y81300D01*
X154481Y80422D01*
X154978Y79678D01*
X155722Y79181D01*
X156600Y79006D01*
X157478Y79181D01*
X158222Y79678D01*
X158720Y80422D01*
X158894Y81300D01*
X158720Y82178D01*
X158639Y82298D01*
Y83720D01*
X161646D01*
Y90050D01*
X153176D01*
Y94350D01*
X156800D01*
Y97515D01*
X157300D01*
Y98015D01*
X161704D01*
X162108Y98182D01*
X170574Y89716D01*
Y76601D01*
X170675Y76094D01*
X170963Y75664D01*
X182163Y64463D01*
Y49574D01*
X192037D01*
Y59105D01*
X197277D01*
X197468Y58643D01*
X197363Y58537D01*
X197075Y58107D01*
X196975Y57600D01*
Y45800D01*
X197075Y45293D01*
X197363Y44863D01*
X200863Y41363D01*
X201293Y41075D01*
X201654Y41004D01*
Y39135D01*
X210347D01*
Y45465D01*
X201654D01*
Y44974D01*
X201192Y44783D01*
X199626Y46349D01*
Y57051D01*
X201192Y58617D01*
X201654Y58426D01*
Y57265D01*
X210347D01*
Y62326D01*
X210808Y62517D01*
X240863Y32463D01*
X241293Y32175D01*
X241800Y32074D01*
X254000D01*
X254507Y32175D01*
X254937Y32463D01*
X261837Y39363D01*
X262125Y39793D01*
X262226Y40300D01*
Y46047D01*
X269553D01*
Y53953D01*
X262226D01*
Y57127D01*
X262699Y57288D01*
X262781Y57181D01*
X263607Y56547D01*
X264568Y56149D01*
X265600Y56013D01*
X266632Y56149D01*
X267593Y56547D01*
X268419Y57181D01*
X269053Y58007D01*
X269451Y58968D01*
X269587Y60000D01*
X269451Y61032D01*
X269053Y61993D01*
X268419Y62819D01*
X267593Y63453D01*
X266632Y63851D01*
X265600Y63987D01*
X264568Y63851D01*
X263607Y63453D01*
X262781Y62819D01*
X262699Y62712D01*
X262226Y62873D01*
Y67127D01*
X262699Y67288D01*
X262781Y67181D01*
X263607Y66547D01*
X264568Y66149D01*
X265600Y66013D01*
X266632Y66149D01*
X267593Y66547D01*
X268419Y67181D01*
X269053Y68007D01*
X269451Y68968D01*
X269587Y70000D01*
X269451Y71032D01*
X269053Y71993D01*
X268419Y72819D01*
X267826Y73274D01*
X267995Y73774D01*
X300954D01*
X301106Y73274D01*
X300878Y73122D01*
X300380Y72378D01*
X300206Y71500D01*
X300380Y70622D01*
X300878Y69878D01*
X301174Y69680D01*
Y62749D01*
X245851Y7425D01*
X161549D01*
X140577Y28397D01*
Y110119D01*
X145051D01*
Y114072D01*
Y118024D01*
X143642D01*
X143626Y118106D01*
X143339Y118536D01*
X141737Y120137D01*
X141307Y120425D01*
X140800Y120526D01*
X135724D01*
Y122717D01*
Y125867D01*
Y129017D01*
Y132621D01*
X139350D01*
X139936Y132737D01*
X140432Y133069D01*
X142981Y135619D01*
X143313Y136115D01*
X143429Y136700D01*
Y148100D01*
X143313Y148685D01*
X142981Y149181D01*
X141183Y150980D01*
X140820Y151223D01*
X140972Y151723D01*
X144503D01*
X160063Y136163D01*
D02*
G37*
%LPC*%
G36*
X278895Y42900D02*
X277200D01*
Y41205D01*
X277578Y41280D01*
X278322Y41778D01*
X278819Y42522D01*
X278895Y42900D01*
D02*
G37*
G36*
X276200D02*
X274505D01*
X274581Y42522D01*
X275078Y41778D01*
X275822Y41280D01*
X276200Y41205D01*
Y42900D01*
D02*
G37*
G36*
X277200Y45595D02*
Y43900D01*
X278895D01*
X278819Y44278D01*
X278322Y45022D01*
X277578Y45520D01*
X277200Y45595D01*
D02*
G37*
G36*
X276200D02*
X275822Y45520D01*
X275078Y45022D01*
X274581Y44278D01*
X274505Y43900D01*
X276200D01*
Y45595D01*
D02*
G37*
G36*
X209846Y16565D02*
X201153D01*
Y10235D01*
X209846D01*
Y11361D01*
X212602D01*
X212722Y11281D01*
X213600Y11106D01*
X214478Y11281D01*
X215222Y11778D01*
X215720Y12522D01*
X215894Y13400D01*
X215720Y14278D01*
X215222Y15022D01*
X214478Y15519D01*
X213600Y15694D01*
X212722Y15519D01*
X212602Y15439D01*
X209846D01*
Y16565D01*
D02*
G37*
G36*
X210347Y52965D02*
X201654D01*
Y46635D01*
X210347D01*
Y47761D01*
X212502D01*
X212622Y47681D01*
X213500Y47506D01*
X214378Y47681D01*
X215122Y48178D01*
X215619Y48922D01*
X215794Y49800D01*
X215619Y50678D01*
X215122Y51422D01*
X214378Y51919D01*
X213500Y52094D01*
X212622Y51919D01*
X212502Y51839D01*
X210347D01*
Y52965D01*
D02*
G37*
G36*
X146000Y107965D02*
X142154D01*
Y105300D01*
X146000D01*
Y107965D01*
D02*
G37*
G36*
X188900Y116215D02*
X185054D01*
Y113550D01*
X188900D01*
Y116215D01*
D02*
G37*
G36*
X146000Y104300D02*
X142154D01*
Y101635D01*
X146000D01*
Y104300D01*
D02*
G37*
G36*
X193746Y109250D02*
X185054D01*
Y102920D01*
X193746D01*
Y104046D01*
X195517D01*
X195637Y103966D01*
X196515Y103791D01*
X197393Y103966D01*
X198137Y104463D01*
X198634Y105207D01*
X198809Y106085D01*
X198634Y106963D01*
X198137Y107707D01*
X197393Y108204D01*
X196515Y108379D01*
X195637Y108204D01*
X195517Y108124D01*
X193746D01*
Y109250D01*
D02*
G37*
G36*
X188900Y119880D02*
X185054D01*
Y117215D01*
X188900D01*
Y119880D01*
D02*
G37*
G36*
X193746D02*
X189900D01*
Y117215D01*
X193746D01*
Y119880D01*
D02*
G37*
G36*
Y116215D02*
X189900D01*
Y113550D01*
X193746D01*
Y116215D01*
D02*
G37*
G36*
X182181Y124202D02*
X174276D01*
Y122717D01*
Y119568D01*
X176416D01*
X176559Y119212D01*
X176589Y119068D01*
X176109Y118350D01*
X175934Y117472D01*
X176109Y116594D01*
X176606Y115849D01*
X177350Y115352D01*
X178228Y115178D01*
X179106Y115352D01*
X179851Y115849D01*
X180348Y116594D01*
X180523Y117472D01*
X180348Y118350D01*
X179868Y119068D01*
X179898Y119212D01*
X180041Y119568D01*
X182181D01*
Y122717D01*
Y124202D01*
D02*
G37*
G36*
X296568Y72707D02*
X290631D01*
Y64802D01*
X296568D01*
Y72707D01*
D02*
G37*
G36*
X231953Y73163D02*
X224047D01*
Y65257D01*
X231953D01*
Y67171D01*
X235912D01*
X236032Y67091D01*
X236910Y66916D01*
X237788Y67091D01*
X238532Y67588D01*
X239030Y68332D01*
X239204Y69210D01*
X239030Y70088D01*
X238532Y70832D01*
X237788Y71330D01*
X236910Y71504D01*
X236032Y71330D01*
X235912Y71249D01*
X231953D01*
Y73163D01*
D02*
G37*
G36*
X280501Y68254D02*
X278032D01*
Y64802D01*
X280501D01*
Y68254D01*
D02*
G37*
G36*
X283969D02*
X281501D01*
Y64802D01*
X283969D01*
Y68254D01*
D02*
G37*
G36*
X205747Y88350D02*
X197054D01*
Y82020D01*
X205747D01*
Y83859D01*
X224047D01*
Y79037D01*
X231953D01*
Y86943D01*
X224047D01*
Y86510D01*
X205747D01*
Y88350D01*
D02*
G37*
G36*
X161646Y97015D02*
X157800D01*
Y94350D01*
X161646D01*
Y97015D01*
D02*
G37*
G36*
X280501Y72707D02*
X278032D01*
Y69254D01*
X280501D01*
Y72707D01*
D02*
G37*
G36*
X283969D02*
X281501D01*
Y69254D01*
X283969D01*
Y72707D01*
D02*
G37*
%LPD*%
D10*
X282800Y100493D02*
D03*
Y112107D02*
D03*
X283400Y119600D02*
D03*
Y131214D02*
D03*
D11*
X276796Y106300D02*
D03*
X277396Y125407D02*
D03*
D12*
X211400Y250385D02*
D03*
Y261015D02*
D03*
X283100Y202015D02*
D03*
Y191385D02*
D03*
X201400Y85185D02*
D03*
Y95815D02*
D03*
X112700Y109285D02*
D03*
Y119915D02*
D03*
X120600Y219785D02*
D03*
Y230415D02*
D03*
X167600Y184315D02*
D03*
Y173685D02*
D03*
X176600Y184315D02*
D03*
Y173685D02*
D03*
X146500Y94170D02*
D03*
Y104800D02*
D03*
X157300Y86885D02*
D03*
Y97515D02*
D03*
X131400Y168200D02*
D03*
Y178830D02*
D03*
X205500Y13400D02*
D03*
Y24030D02*
D03*
X206000Y49800D02*
D03*
Y60430D02*
D03*
X96400Y52015D02*
D03*
Y41385D02*
D03*
X31300Y49885D02*
D03*
Y60515D02*
D03*
X150900Y253085D02*
D03*
Y263715D02*
D03*
X162600Y253085D02*
D03*
Y263715D02*
D03*
X107300Y229415D02*
D03*
Y218785D02*
D03*
X189400Y106085D02*
D03*
Y116715D02*
D03*
X206000Y42300D02*
D03*
Y31670D02*
D03*
D13*
X286015Y151300D02*
D03*
X275385D02*
D03*
X107185Y129400D02*
D03*
X117815D02*
D03*
X110285Y139600D02*
D03*
X120915D02*
D03*
X124315Y63000D02*
D03*
X113685D02*
D03*
X286015Y162100D02*
D03*
X275385D02*
D03*
X286215Y140800D02*
D03*
X275585D02*
D03*
X83785Y247400D02*
D03*
X94415D02*
D03*
D14*
X149700Y280920D02*
D03*
Y295880D02*
D03*
D15*
X134800Y233090D02*
D03*
Y219310D02*
D03*
X198100Y260580D02*
D03*
Y246800D02*
D03*
X283100Y227290D02*
D03*
Y213510D02*
D03*
X228000Y69210D02*
D03*
Y82990D02*
D03*
X89700Y109200D02*
D03*
X250600Y226000D02*
D03*
X265600D02*
D03*
X60600Y100000D02*
D03*
X45600Y120000D02*
D03*
Y50000D02*
D03*
X60600Y190000D02*
D03*
X250600Y120000D02*
D03*
X265600Y50000D02*
D03*
D16*
X139252Y160528D02*
D03*
X142402D02*
D03*
X145551D02*
D03*
X148701D02*
D03*
X151850D02*
D03*
X155000D02*
D03*
X158150D02*
D03*
X161299D02*
D03*
X164449D02*
D03*
X167598D02*
D03*
X170748D02*
D03*
Y114072D02*
D03*
X167598D02*
D03*
X164449D02*
D03*
X161299D02*
D03*
X158150D02*
D03*
X155000D02*
D03*
X151850D02*
D03*
X148701D02*
D03*
X145551D02*
D03*
X142402D02*
D03*
X139252D02*
D03*
D17*
X178228Y153048D02*
D03*
Y149898D02*
D03*
Y146749D02*
D03*
Y143599D02*
D03*
Y140450D02*
D03*
Y137300D02*
D03*
Y134150D02*
D03*
Y131001D02*
D03*
Y127851D02*
D03*
Y124702D02*
D03*
Y121552D02*
D03*
X131772D02*
D03*
Y124702D02*
D03*
Y127851D02*
D03*
Y131001D02*
D03*
Y134150D02*
D03*
Y137300D02*
D03*
Y140450D02*
D03*
Y143599D02*
D03*
Y146749D02*
D03*
Y149898D02*
D03*
Y153048D02*
D03*
D18*
X187100Y61401D02*
D03*
Y23999D02*
D03*
D19*
X106381Y51413D02*
D03*
X124019D02*
D03*
X106381Y15587D02*
D03*
X124019D02*
D03*
D20*
X293599Y68754D02*
D03*
X281001D02*
D03*
Y88046D02*
D03*
X293599D02*
D03*
D21*
X31300Y84400D02*
D03*
Y79400D02*
D03*
Y74400D02*
D03*
Y69400D02*
D03*
X11900D02*
D03*
Y74400D02*
D03*
Y79400D02*
D03*
Y84400D02*
D03*
D22*
X297357Y148738D02*
D03*
X304443D02*
D03*
X297357Y153462D02*
D03*
X304443D02*
D03*
D23*
X160324Y243340D02*
D03*
Y239600D02*
D03*
Y235860D02*
D03*
X150876Y243340D02*
D03*
Y239600D02*
D03*
Y235860D02*
D03*
D24*
X84800Y230000D02*
D03*
D25*
X93900Y204800D02*
D03*
X84800D02*
D03*
X75700D02*
D03*
D26*
X98310Y94200D02*
D03*
X112090D02*
D03*
X165600Y295500D02*
D03*
X107000Y152500D02*
D03*
X193700Y170000D02*
D03*
X12200Y94700D02*
D03*
X113800Y247400D02*
D03*
X172500Y281700D02*
D03*
D27*
X283400Y131147D02*
X289347D01*
X283400Y119667D02*
X290518D01*
X282800Y112040D02*
X288747D01*
X282800Y100560D02*
X289918D01*
X184600Y269600D02*
X185200Y269000D01*
X203415D01*
X172500Y281700D02*
X184600Y269600D01*
X195600Y295500D02*
X241800D01*
X184600Y247600D02*
Y269600D01*
X176600Y239600D02*
X184600Y247600D01*
X160324Y239600D02*
X176600D01*
X134720Y280920D02*
X149700D01*
X129861Y276061D02*
X134720Y280920D01*
X129861Y271867D02*
Y276061D01*
X128632Y270639D02*
X129861Y271867D01*
X128632Y268956D02*
Y270639D01*
X107300Y218200D02*
X122900Y202600D01*
X153700D01*
X171800Y220700D01*
Y229870D01*
X162728Y238943D02*
X171800Y229870D01*
X160982Y238943D02*
X162728D01*
X160324Y239600D02*
X160982Y238943D01*
X123230Y178830D02*
X131400D01*
X75700Y197200D02*
Y204800D01*
X244100Y251709D02*
X255700Y263309D01*
Y281600D01*
X241800Y295500D02*
X255700Y281600D01*
X198100Y254700D02*
Y260580D01*
X203415Y269000D02*
X211400Y261015D01*
X207815Y246800D02*
X211400Y250385D01*
X198100Y246800D02*
X207815D01*
X172500Y292400D02*
X175600Y295500D01*
X172500Y281700D02*
Y292400D01*
X175600Y295500D02*
X185600D01*
X165220Y295880D02*
X165600Y295500D01*
X149700Y295880D02*
X165220D01*
X134800Y233090D02*
X143290D01*
X107300Y229415D02*
X113915D01*
X94415Y239615D02*
Y247400D01*
X84800Y230000D02*
X94415Y239615D01*
X76500Y247400D02*
X83785D01*
X104900Y236400D02*
X114615D01*
X87700Y219200D02*
X104900Y236400D01*
X79500Y219200D02*
X87700D01*
X68900Y184743D02*
Y208700D01*
X69000D01*
X79500Y219200D01*
X134325Y219785D02*
X134800Y219310D01*
X120600Y219785D02*
X134325D01*
X93900Y204800D02*
X107300Y218200D01*
X94415Y247400D02*
X113800D01*
X123800D02*
X133800D01*
X120600Y230415D02*
X123800Y233615D01*
Y247400D01*
X114615Y236400D02*
X120600Y230415D01*
X68200Y184043D02*
X68900Y184743D01*
X68200Y167600D02*
Y184043D01*
X60600Y160000D02*
X68200Y167600D01*
X71200Y130600D02*
Y182100D01*
X60600Y120000D02*
X71200Y130600D01*
Y182100D02*
X93900Y204800D01*
X206000Y49800D02*
X213500D01*
X205500Y13400D02*
X213600D01*
X176600Y184315D02*
Y191300D01*
X167600Y184315D02*
X176600D01*
X146500Y88800D02*
Y94170D01*
X228000Y69210D02*
X236910D01*
X282800Y100493D02*
X295193D01*
X283400Y119600D02*
Y119667D01*
X290518D02*
Y129976D01*
X289347Y131147D02*
X290518Y129976D01*
X283400Y131147D02*
Y131214D01*
X282800Y119000D02*
X283400Y119600D01*
X282800Y112107D02*
Y119000D01*
Y100493D02*
Y100560D01*
X289918D02*
Y110869D01*
X288747Y112040D02*
X289918Y110869D01*
X282800Y112040D02*
Y112107D01*
X98600Y139600D02*
X110285D01*
X131606Y137465D02*
X131772Y137300D01*
X126819Y137465D02*
X131606D01*
X124684Y139600D02*
X126819Y137465D01*
X120915Y139600D02*
X124684D01*
X131606Y133985D02*
X131772Y134150D01*
X127032Y133985D02*
X131606D01*
X122447Y129400D02*
X127032Y133985D01*
X117815Y129400D02*
X122447D01*
X244500Y266400D02*
Y274932D01*
X244100Y275332D02*
X244500Y274932D01*
X237407Y275332D02*
X244100D01*
X225596Y263520D02*
X237407Y275332D01*
X293599Y80901D02*
Y88046D01*
X11900Y64800D02*
Y69400D01*
X31300Y49885D02*
X31415Y50000D01*
X45600D01*
X189400Y106085D02*
X196515D01*
X142402Y160528D02*
Y166198D01*
X213600Y169900D02*
X213700Y170000D01*
X116413Y51413D02*
X124019D01*
Y62704D02*
X124315Y63000D01*
X124019Y51413D02*
Y62704D01*
X146500Y94170D02*
X146585Y94085D01*
X213700Y170000D02*
Y177700D01*
X106685Y129900D02*
X107185Y129400D01*
X304443Y153462D02*
Y159157D01*
X205500Y13400D02*
X206300Y12600D01*
X156600Y81300D02*
Y86185D01*
X157300Y86885D01*
X167598Y160528D02*
Y166098D01*
X89400Y94200D02*
X98310D01*
X101800Y129900D02*
X106685D01*
D28*
X246400Y6100D02*
X302500Y62200D01*
X161000Y6100D02*
X246400D01*
X302500Y62200D02*
Y71500D01*
X257800Y42900D02*
Y62800D01*
X253700Y38800D02*
X257800Y42900D01*
X187100Y61401D02*
X188071Y60430D01*
X105254Y144246D02*
X131772D01*
X146417Y156276D02*
Y160528D01*
X124500Y152000D02*
Y156700D01*
Y152000D02*
X126602Y149898D01*
X131772D01*
X173600Y247700D02*
Y262400D01*
X163000Y273000D02*
X173600Y262400D01*
X163000Y273000D02*
Y281400D01*
X149700Y294700D02*
X163000Y281400D01*
X149700Y294700D02*
Y295880D01*
X107000Y152500D02*
X107100Y152600D01*
Y171800D01*
X160324Y225024D02*
Y235860D01*
X97000Y152500D02*
Y170600D01*
X150876Y224476D02*
Y235860D01*
X89700Y109200D02*
X105265D01*
X100600Y114400D02*
X108202D01*
X95800Y119200D02*
X100600Y114400D01*
X89700Y119200D02*
X95800D01*
X102900Y116000D02*
X108865D01*
X89700Y129200D02*
X102900Y116000D01*
X255500Y75100D02*
X260900Y69700D01*
Y40300D02*
Y69700D01*
X245800Y82000D02*
X248500Y84700D01*
X245800Y74800D02*
Y82000D01*
Y74800D02*
X250600Y70000D01*
X157385Y258500D02*
X162600Y263715D01*
X108300Y258500D02*
X157385D01*
X103000Y263800D02*
X108300Y258500D01*
X103000Y263800D02*
Y276300D01*
X105800Y279100D01*
X120063D01*
X125483Y273680D01*
X122333Y268956D02*
X127574Y263715D01*
X150900D01*
X93351Y183200D02*
X142012D01*
X92688Y184800D02*
X142675D01*
X92026Y186400D02*
X143337D01*
X91363Y188000D02*
X144000D01*
X90700Y189600D02*
X144837D01*
X89800Y191200D02*
X145500D01*
X81900Y171749D02*
X93351Y183200D01*
X142012D02*
X148701Y176511D01*
X80100Y172212D02*
X92688Y184800D01*
X142675D02*
X151850Y175624D01*
X78400Y172775D02*
X92026Y186400D01*
X143337D02*
X155000Y174737D01*
X76700Y173337D02*
X91363Y188000D01*
X144000D02*
X158150Y173850D01*
X75100Y174000D02*
X90700Y189600D01*
X144837D02*
X161299Y173138D01*
X73500Y174900D02*
X89800Y191200D01*
X145500D02*
X162953Y173747D01*
X97000Y152500D02*
X105254Y144246D01*
X131772Y143599D02*
Y144246D01*
X124051Y146749D02*
X131772D01*
X118300Y152500D02*
X124051Y146749D01*
X107000Y152500D02*
X118300D01*
X255500Y75100D02*
X312800D01*
X308400Y77900D02*
X311600Y81100D01*
X280800Y77900D02*
X308400D01*
X250600Y80000D02*
X255500Y75100D01*
X274000Y84700D02*
X280800Y77900D01*
X302500Y82800D02*
Y141609D01*
X73500Y112900D02*
Y174900D01*
X75100Y104500D02*
Y174000D01*
X76700Y96100D02*
Y173337D01*
X78400Y87800D02*
Y172775D01*
X80100Y78700D02*
Y172212D01*
X81900Y71300D02*
Y171749D01*
X60600Y100000D02*
X73500Y112900D01*
X60600Y90000D02*
X75100Y104500D01*
X60600Y80000D02*
X76700Y96100D01*
X60600Y70000D02*
X78400Y87800D01*
X61400Y60000D02*
X80100Y78700D01*
X60600Y60000D02*
X61400D01*
X60600Y50000D02*
X81900Y71300D01*
X201215Y96000D02*
X201400Y95815D01*
X188820Y96000D02*
X201215D01*
X170748Y114072D02*
X188820Y96000D01*
X142402Y114072D02*
Y117598D01*
X140800Y119200D02*
X142402Y117598D01*
X134300Y119200D02*
X140800D01*
X127000Y111900D02*
X134300Y119200D01*
X127000Y89800D02*
Y111900D01*
X113685Y76485D02*
X127000Y89800D01*
X113685Y63000D02*
Y76485D01*
X86715Y52015D02*
X96400D01*
X69500Y34800D02*
X86715Y52015D01*
X28000Y34800D02*
X69500D01*
X23600Y39200D02*
X28000Y34800D01*
X23600Y39200D02*
Y90086D01*
X26453Y153553D02*
X38100Y165200D01*
X23600Y90086D02*
X26453Y92939D01*
Y153553D01*
X225805Y85185D02*
X228000Y82990D01*
X201400Y85185D02*
X225805D01*
X299800Y218800D02*
X311600Y207000D01*
X279100Y218800D02*
X299800D01*
X272047Y211747D02*
X279100Y218800D01*
X283100Y202015D02*
Y213510D01*
X255800Y216000D02*
X260053Y211747D01*
X250600Y216000D02*
X255800D01*
X311600Y81100D02*
Y207000D01*
X248500Y84700D02*
X274000D01*
X312800Y75100D02*
X319100Y81400D01*
X301300Y221700D02*
X319100Y203900D01*
Y81400D02*
Y203900D01*
X273746Y95300D02*
X281001Y88046D01*
X260053Y211747D02*
X272047D01*
X254900Y221700D02*
X301300D01*
X250600Y226000D02*
X254900Y221700D01*
X112090Y94200D02*
X112700Y94810D01*
Y109285D01*
X235900Y134700D02*
X250600Y120000D01*
X219400Y134700D02*
X235900D01*
X161000Y137100D02*
X163400D01*
X145052Y153048D02*
X161000Y137100D01*
X131772Y153048D02*
X145052D01*
X217200Y132500D02*
X239700Y110000D01*
X187506Y132500D02*
X217200D01*
X185856Y134150D02*
X187506Y132500D01*
X178228Y134150D02*
X185856D01*
X127301Y131001D02*
X131772D01*
X119900Y123600D02*
X127301Y131001D01*
X116385Y123600D02*
X119900D01*
X112700Y119915D02*
X116385Y123600D01*
X127951Y127851D02*
X131772D01*
X117347Y117246D02*
X127951Y127851D01*
X117347Y117211D02*
Y117246D01*
X116098Y115963D02*
X117347Y117211D01*
X108902Y115963D02*
X116098D01*
X108865Y116000D02*
X108902Y115963D01*
X108152Y114350D02*
X108202Y114400D01*
X108152Y114350D02*
X117588D01*
X127074Y123836D01*
X130906D01*
X131772Y124702D01*
X127052Y121552D02*
X131772D01*
X118250Y112750D02*
X127052Y121552D01*
X108815Y112750D02*
X118250D01*
X105265Y109200D02*
X108815Y112750D01*
X240800Y100000D02*
X250600D01*
X209900Y130900D02*
X240800Y100000D01*
X185500Y130900D02*
X209900D01*
X169600Y134800D02*
Y143500D01*
X172849Y146749D01*
X178228D01*
X242000Y176000D02*
X250600D01*
X212298Y146298D02*
X242000Y176000D01*
X189198Y146298D02*
X212298D01*
X167002Y133100D02*
Y146298D01*
Y133100D02*
X169101Y131001D01*
X178228D01*
X275789Y123800D02*
X277396Y125407D01*
X267814Y123800D02*
X275789D01*
X267361Y124253D02*
X267814Y123800D01*
X254853Y124253D02*
X267361D01*
X250600Y120000D02*
X254853Y124253D01*
X276243Y105747D02*
X276796Y106300D01*
X254853Y105747D02*
X276243D01*
X250600Y110000D02*
X254853Y105747D01*
X239700Y110000D02*
X250600D01*
X249300Y137300D02*
X250600Y136000D01*
X178228Y137300D02*
X249300D01*
X178228Y140450D02*
X224650D01*
X230200Y146000D01*
X250600D01*
X236200Y156000D02*
X250600D01*
X223799Y143599D02*
X236200Y156000D01*
X178228Y143599D02*
X223799D01*
X241800Y33400D02*
X254000D01*
X203900Y71300D02*
X241800Y33400D01*
X193803Y71300D02*
X203900D01*
X205570Y24100D02*
X206000Y24530D01*
Y31670D01*
X178228Y127851D02*
X189449D01*
X227300Y90000D01*
X250600D01*
X223288Y60000D02*
X250600D01*
X207188Y76100D02*
X223288Y60000D01*
X198200Y76100D02*
X207188D01*
X167598Y106702D02*
X198200Y76100D01*
X167598Y106702D02*
Y114072D01*
X231026Y50000D02*
X250600D01*
X206525Y74500D02*
X231026Y50000D01*
X196663Y74500D02*
X206525D01*
X164449Y106714D02*
X196663Y74500D01*
X164449Y106714D02*
Y114072D01*
X161299Y107601D02*
Y114072D01*
Y107601D02*
X196000Y72900D01*
X205863D01*
X239963Y38800D01*
X162523Y102580D02*
X193803Y71300D01*
X161820Y102580D02*
X162523D01*
X158150Y106250D02*
X161820Y102580D01*
X158150Y106250D02*
Y114072D01*
X171900Y76601D02*
X187100Y61401D01*
X171900Y76601D02*
Y90265D01*
X161185Y100980D02*
X171900Y90265D01*
X159320Y100980D02*
X161185D01*
X155000Y105300D02*
X159320Y100980D01*
X155000Y105300D02*
Y114072D01*
X151850Y59249D02*
X187100Y23999D01*
X139252Y27848D02*
X161000Y6100D01*
X139252Y27848D02*
Y114072D01*
X201130Y60430D02*
X206000D01*
X188071D02*
X201130D01*
X198300Y57600D02*
X201130Y60430D01*
X198300Y45800D02*
Y57600D01*
Y45800D02*
X201800Y42300D01*
X206000D01*
X167053Y113527D02*
X167598Y114072D01*
X234500Y186000D02*
X250600D01*
X217953Y169453D02*
X234500Y186000D01*
X217953Y168238D02*
Y169453D01*
X199613Y149898D02*
X217953Y168238D01*
X178228Y149898D02*
X199613D01*
X186748Y153048D02*
X203700Y170000D01*
X178228Y153048D02*
X186748D01*
X148701Y160528D02*
Y176511D01*
X151850Y160528D02*
Y175624D01*
X155000Y160528D02*
Y174737D01*
X158150Y160528D02*
Y173850D01*
X161299Y160528D02*
Y173138D01*
X162953Y170981D02*
X164449Y169486D01*
Y160528D02*
Y169486D01*
X162953Y170981D02*
Y173747D01*
X217600Y206000D02*
X250600D01*
X173032Y161432D02*
X217600Y206000D01*
X173032Y157037D02*
Y161432D01*
X172271Y156276D02*
X173032Y157037D01*
X146417Y156276D02*
X172271D01*
X145551Y160528D02*
X146417D01*
X255800Y140800D02*
X275585D01*
X250600Y146000D02*
X255800Y140800D01*
X255300Y151300D02*
X275385D01*
X250600Y156000D02*
X255300Y151300D01*
X283100Y227290D02*
Y236300D01*
X250600Y186000D02*
X255985Y191385D01*
X250600Y100000D02*
X255300Y95300D01*
X273746D01*
X279096Y124193D02*
Y124253D01*
X255985Y191385D02*
X283100D01*
X106381Y15587D02*
Y51413D01*
X124019Y15587D02*
Y51413D01*
X96400Y52015D02*
X105780D01*
X106381Y51413D01*
X113685Y58717D01*
Y63000D01*
X151850Y114072D02*
X152546Y113376D01*
X254000Y33400D02*
X260900Y40300D01*
X250600Y70000D02*
X257800Y62800D01*
X239963Y38800D02*
X253700D01*
X250600Y166000D02*
X255000Y170400D01*
X268900D01*
X275385Y163915D01*
Y162100D02*
Y163915D01*
X302500Y141609D02*
X307515Y146625D01*
Y159691D01*
X300460Y166746D02*
X307515Y159691D01*
X280031Y166746D02*
X300460D01*
X275385Y162100D02*
X280031Y166746D01*
X151850Y59249D02*
Y114072D01*
X38100Y165200D02*
X55800D01*
X60600Y170000D01*
D29*
X160324Y250809D02*
X162600Y253085D01*
X160324Y243340D02*
Y250809D01*
X150876Y243340D02*
X150900Y243365D01*
Y253085D01*
X12200Y94700D02*
X22200D01*
X12200Y84700D02*
Y94700D01*
X286015Y150387D02*
X295707D01*
X150876Y239600D02*
X155800D01*
X296506Y140800D02*
X304443Y148738D01*
X286215Y140800D02*
X296506D01*
X295707Y150387D02*
X297357Y148738D01*
X286015Y150387D02*
Y151300D01*
X288719Y162100D02*
X297357Y153462D01*
X286015Y162100D02*
X288719D01*
X265600Y110000D02*
X267301Y108299D01*
X55300Y94700D02*
X60600Y100000D01*
X32200Y94700D02*
X55300D01*
X11900Y84400D02*
X12200Y84700D01*
X60600Y80000D02*
Y82200D01*
X142402Y160528D02*
X142900Y160030D01*
X205399Y61284D02*
X205515Y61400D01*
X187100Y23999D02*
X205471D01*
X131772Y134150D02*
X139350D01*
X141900Y136700D01*
X140102Y149898D02*
X141900Y148100D01*
X131772Y149898D02*
X140102D01*
X131772Y140450D02*
X138550D01*
X148701Y114072D02*
Y120999D01*
X178228Y117472D02*
Y121552D01*
X141900Y136700D02*
Y148100D01*
D30*
X89700Y119200D02*
D03*
Y129200D02*
D03*
X175600Y295500D02*
D03*
X185600D02*
D03*
X195600D02*
D03*
X250600Y216000D02*
D03*
Y196000D02*
D03*
Y186000D02*
D03*
Y176000D02*
D03*
Y166000D02*
D03*
Y156000D02*
D03*
Y146000D02*
D03*
Y136000D02*
D03*
Y206000D02*
D03*
X265600Y216000D02*
D03*
Y196000D02*
D03*
Y186000D02*
D03*
Y176000D02*
D03*
Y166000D02*
D03*
Y156000D02*
D03*
Y146000D02*
D03*
Y136000D02*
D03*
Y206000D02*
D03*
X60600Y50000D02*
D03*
Y60000D02*
D03*
Y70000D02*
D03*
Y80000D02*
D03*
Y90000D02*
D03*
X45600Y190000D02*
D03*
Y180000D02*
D03*
Y170000D02*
D03*
Y160000D02*
D03*
Y150000D02*
D03*
Y140000D02*
D03*
Y130000D02*
D03*
Y100000D02*
D03*
Y90000D02*
D03*
Y80000D02*
D03*
Y70000D02*
D03*
Y60000D02*
D03*
X60600Y120000D02*
D03*
Y130000D02*
D03*
Y140000D02*
D03*
Y150000D02*
D03*
Y160000D02*
D03*
Y170000D02*
D03*
Y180000D02*
D03*
X250600Y50000D02*
D03*
Y60000D02*
D03*
Y70000D02*
D03*
Y80000D02*
D03*
Y90000D02*
D03*
Y100000D02*
D03*
Y110000D02*
D03*
X265600Y120000D02*
D03*
Y110000D02*
D03*
Y100000D02*
D03*
Y90000D02*
D03*
Y80000D02*
D03*
Y70000D02*
D03*
Y60000D02*
D03*
X97000Y152500D02*
D03*
X213700Y170000D02*
D03*
X203700D02*
D03*
X32200Y94700D02*
D03*
X22200D02*
D03*
X133800Y247400D02*
D03*
X123800D02*
D03*
X192500Y281700D02*
D03*
X182500D02*
D03*
D31*
X315400Y10100D02*
D03*
X11000Y11000D02*
D03*
X12900Y295500D02*
D03*
X315100Y296200D02*
D03*
D32*
X128632Y268956D02*
D03*
X122333D02*
D03*
X116034D02*
D03*
X125483Y273680D02*
D03*
X119184D02*
D03*
D33*
X136900Y291200D02*
D03*
Y272499D02*
D03*
X107766D02*
D03*
Y291200D02*
D03*
D34*
X225596Y263520D02*
D03*
D35*
X244100Y275332D02*
D03*
Y251709D02*
D03*
D36*
X285400Y36600D02*
D03*
X276700Y43400D02*
D03*
X124500Y156700D02*
D03*
X173600Y247700D02*
D03*
X107100Y171800D02*
D03*
X160324Y225024D02*
D03*
X97000Y170600D02*
D03*
X150876Y224476D02*
D03*
X123230Y178830D02*
D03*
X302500Y71500D02*
D03*
Y82800D02*
D03*
X75700Y197200D02*
D03*
X198100Y254700D02*
D03*
X143290Y233090D02*
D03*
X113915Y229415D02*
D03*
X76500Y247400D02*
D03*
X213500Y49800D02*
D03*
X213600Y13400D02*
D03*
X176600Y191300D02*
D03*
X236910Y69210D02*
D03*
X295193Y100493D02*
D03*
X98600Y139600D02*
D03*
X219400Y134700D02*
D03*
X163400Y137100D02*
D03*
X185500Y130900D02*
D03*
X169600Y134800D02*
D03*
X189198Y146298D02*
D03*
X167002D02*
D03*
X283100Y236300D02*
D03*
X244500Y266400D02*
D03*
X293599Y80901D02*
D03*
X155800Y239600D02*
D03*
X11900Y64800D02*
D03*
X196515Y106085D02*
D03*
X213700Y177700D02*
D03*
X142402Y166198D02*
D03*
X116413Y51413D02*
D03*
X138550Y140450D02*
D03*
X148701Y120999D02*
D03*
X178228Y117472D02*
D03*
X101800Y129900D02*
D03*
X304443Y159157D02*
D03*
X146500Y88800D02*
D03*
X156600Y81300D02*
D03*
X167598Y166098D02*
D03*
X89400Y94200D02*
D03*
M02*
