M48
;Layer_Color=9474304
;FILE_FORMAT=2:5
INCH,LZ
;TYPE=PLATED
T1F00S00C0.01300
T2F00S00C0.02756
T3F00S00C0.03150
T4F00S00C0.03543
T5F00S00C0.03937
T6F00S00C0.12500
%
T01
X00119Y00648
X0116413Y0051413
X02135Y00498
X02136Y00134
X023691Y006921
X02767Y00434
X02854Y00366
X03025Y00715
Y00828
X0304443Y0159157
X0295193Y0100493
X0293599Y0080901
X0196515Y0106085
X0178228Y0117472
X01855Y01309
X0189198Y0146298
X0167002
X01634Y01371
X01696Y01348
X0167598Y0166098
X01766Y01913
X0160324Y0225024
X0150876Y0224476
X0148701Y0120999
X01465Y00888
X01566Y00813
X02194Y01347
X02137Y01777
X0142402Y0166198
X01245Y01567
X012323Y017883
X01071Y01718
X0097Y01706
X00986Y01396
X01018Y01299
X013855Y014045
X00894Y00942
X00757Y01972
X0113915Y0229415
X014329Y023309
X00765Y02474
X01558Y02396
X01736Y02477
X01981Y02547
X02445Y02664
X02831Y02363
T02
X0116034Y0268956
X0122333
X0128632
X0125483Y027368
X0119184
T03
X0107766Y0272499
Y02912
X01369
Y0272499
T04
X00456Y005
Y006
Y007
X00606
Y006
Y005
X02506
Y006
Y007
X02656
Y006
Y005
Y008
Y009
Y01
Y011
Y012
X02506
Y011
Y01
Y009
Y008
Y0136
Y0146
Y0156
Y0166
Y0176
Y0186
Y0196
Y0206
Y0216
Y0226
X02656
Y0216
Y0206
Y0196
Y0186
Y0176
Y0166
Y0156
Y0146
Y0136
X02137Y017
X02037
X01937
X0107Y01525
X0097
X00897Y01292
Y01192
Y01092
X00606Y01
Y009
Y008
X00456
Y009
Y01
X00322Y00947
X00222
X00122
X00456Y012
Y013
Y014
Y015
Y016
Y017
Y018
Y019
X00606
Y018
Y017
Y016
Y015
Y014
Y013
Y012
X01138Y02474
X01238
X01338
X01725Y02817
X01825
X01925
X01956Y02955
X01856
X01756
X01656
T05
X0225596Y026352
X02441Y0251709
Y0275332
T06
X0011Y0011
X03154Y00101
X00129Y02955
X03151Y02962
M30
