G04 Layer_Physical_Order=4*
G04 Layer_Color=16711680*
%FSLAX25Y25*%
%MOIN*%
G70*
G01*
G75*
%ADD19C,0.02000*%
%ADD20C,0.01000*%
%ADD21R,0.05905X0.05905*%
%ADD22C,0.05905*%
%ADD23R,0.05905X0.05905*%
%ADD24C,0.02500*%
D19*
X88600Y185100D02*
X98600D01*
X67600Y128100D02*
X72600Y133100D01*
X51800Y128100D02*
X67600D01*
X43200Y136700D02*
X51800Y128100D01*
X14900Y136700D02*
X43200D01*
X156700Y47000D02*
X168600Y35100D01*
X62330Y47000D02*
X156700D01*
X49700Y59630D02*
X62330Y47000D01*
X72600Y133100D02*
X100300Y105400D01*
X101470Y112370D02*
X166500D01*
X167800Y113670D01*
Y117400D01*
X98600Y185100D02*
X103553Y190053D01*
X172400D01*
X174800Y187653D01*
X229985D01*
D20*
X157800Y127400D02*
X167800D01*
X62600Y143100D02*
X72600D01*
X82600D01*
X92600D01*
X98600Y198800D02*
X103647Y193753D01*
X153553D01*
X158600Y198800D01*
X160650Y76450D02*
X174500Y90300D01*
X150500Y76450D02*
X160650D01*
X78600Y185100D02*
X84147Y190647D01*
Y200900D01*
X86500Y203253D01*
X124147D01*
X128600Y198800D01*
X68600Y185100D02*
X74147Y190647D01*
Y202100D01*
X76900Y204853D01*
X142547D01*
X148600Y198800D01*
X190900Y76700D02*
X204900D01*
X15200Y203500D02*
X36200Y224500D01*
X66600D01*
X104900Y178700D02*
X106600Y180400D01*
X163900D01*
X168600Y185100D01*
X15200Y243500D02*
X19800Y248100D01*
X66600D01*
X136600Y259900D02*
X139600Y256900D01*
X205300D01*
X15200Y233500D02*
X72600D01*
X76000Y236900D01*
Y242169D01*
X15200Y213500D02*
X32100Y230400D01*
X76000D01*
X15200Y253500D02*
X15700Y254000D01*
X76000D01*
X10747Y227953D02*
X15200Y223500D01*
X10747Y227953D02*
Y236247D01*
X12700Y238200D01*
X64664D01*
X66600Y236264D01*
X9147Y237447D02*
X15200Y243500D01*
X9147Y202453D02*
Y237447D01*
Y202453D02*
X21900Y189700D01*
X63000D01*
X63100Y189600D01*
Y179000D02*
Y189600D01*
Y179000D02*
X79400Y162700D01*
X204900D01*
X200400Y108200D02*
X204900Y112700D01*
X100470Y108200D02*
X200400D01*
X92600Y116070D02*
X100470Y108200D01*
X92600Y116070D02*
Y133100D01*
X146000Y218547D02*
X164353Y236900D01*
X205300D01*
X88600Y198800D02*
X95247Y192153D01*
X200247D01*
X200794Y192700D01*
X204900D01*
X158600Y198800D02*
X162500Y202700D01*
X204900D01*
X40800Y167300D02*
X58600Y185100D01*
X40800Y146700D02*
Y167300D01*
X35300Y141200D02*
X40800Y146700D01*
X12300Y141200D02*
X35300D01*
X10400Y139300D02*
X12300Y141200D01*
X10400Y134200D02*
Y139300D01*
Y134200D02*
X12900Y131700D01*
X32100D01*
X202700Y54500D02*
X204900Y56700D01*
X62900Y100900D02*
Y113300D01*
X82900D01*
X87400Y108800D01*
X190600Y61700D02*
X207000D01*
X209400Y64100D01*
Y72200D01*
X204900Y76700D02*
X209400Y72200D01*
X67400Y108800D02*
X82700Y93500D01*
X116100D01*
X32100Y131700D02*
X62900Y100900D01*
X109300Y54500D02*
X202700D01*
X62900Y100900D02*
X109300Y54500D01*
X93385Y75800D02*
X108000Y61185D01*
X92800Y75800D02*
X93385D01*
X184300Y63200D02*
X184700Y62800D01*
X105100Y70200D02*
X109900Y75000D01*
X105100Y69378D02*
Y70200D01*
X116100Y93500D02*
X146400Y63200D01*
X137000Y61600D02*
X153400D01*
X188800Y59900D02*
X190600Y61700D01*
X153400Y61600D02*
X155100Y59900D01*
X188800D01*
X146400Y63200D02*
X184300D01*
X204700Y66900D02*
X204900Y66700D01*
X156300Y66900D02*
X204700D01*
X100Y100D02*
Y273200D01*
Y100D02*
X200Y0D01*
X250000D01*
X100Y273200D02*
X250000D01*
Y0D02*
Y273200D01*
D21*
X44000Y85900D02*
D03*
X14900Y26700D02*
D03*
X204900D02*
D03*
Y112700D02*
D03*
X14900Y96700D02*
D03*
X15200Y253500D02*
D03*
X205300Y256900D02*
D03*
D22*
X44000Y95900D02*
D03*
Y105900D02*
D03*
X14900Y36700D02*
D03*
Y46700D02*
D03*
Y56700D02*
D03*
Y66700D02*
D03*
Y76700D02*
D03*
X204900Y36700D02*
D03*
Y46700D02*
D03*
Y56700D02*
D03*
Y66700D02*
D03*
Y76700D02*
D03*
Y86700D02*
D03*
Y96700D02*
D03*
Y132700D02*
D03*
Y202700D02*
D03*
Y192700D02*
D03*
Y182700D02*
D03*
Y172700D02*
D03*
Y162700D02*
D03*
Y152700D02*
D03*
Y142700D02*
D03*
Y122700D02*
D03*
X14900Y106700D02*
D03*
Y116700D02*
D03*
Y126700D02*
D03*
Y136700D02*
D03*
Y146700D02*
D03*
Y156700D02*
D03*
Y166700D02*
D03*
X15200Y243500D02*
D03*
Y233500D02*
D03*
Y223500D02*
D03*
Y213500D02*
D03*
Y203500D02*
D03*
X167800Y127400D02*
D03*
Y117400D02*
D03*
X157800Y127400D02*
D03*
X205300Y246900D02*
D03*
Y236900D02*
D03*
X168600Y35100D02*
D03*
X58600D02*
D03*
X121600Y21700D02*
D03*
Y11700D02*
D03*
X111600Y21700D02*
D03*
Y11700D02*
D03*
X101600Y21700D02*
D03*
Y11700D02*
D03*
X91600Y21700D02*
D03*
X142400Y11400D02*
D03*
X62800Y12000D02*
D03*
X77400Y108800D02*
D03*
X87400D02*
D03*
X92600Y143100D02*
D03*
Y133100D02*
D03*
X82600Y143100D02*
D03*
Y133100D02*
D03*
X72600Y143100D02*
D03*
Y133100D02*
D03*
X62600Y143100D02*
D03*
X88600Y198800D02*
D03*
X158600D02*
D03*
X148600D02*
D03*
X138600D02*
D03*
X128600D02*
D03*
X118600D02*
D03*
X108600D02*
D03*
X98600D02*
D03*
X78600D02*
D03*
X158600Y185100D02*
D03*
X148600D02*
D03*
X138600D02*
D03*
X128600D02*
D03*
X118600D02*
D03*
X108600D02*
D03*
X98600D02*
D03*
X88600D02*
D03*
X78600D02*
D03*
X68600D02*
D03*
X58600D02*
D03*
X48600D02*
D03*
D23*
X157800Y117400D02*
D03*
X158600Y35100D02*
D03*
X48600D02*
D03*
X91600Y11700D02*
D03*
X152400Y11400D02*
D03*
X52800Y12000D02*
D03*
X67400Y108800D02*
D03*
X62600Y133100D02*
D03*
X68600Y198800D02*
D03*
X168600Y185100D02*
D03*
D24*
X223481Y266797D02*
D03*
Y219203D02*
D03*
X153285Y267597D02*
D03*
X145983Y265791D02*
D03*
X136636Y236264D02*
D03*
X110237Y250219D02*
D03*
X75964Y218547D02*
D03*
X215852Y92599D02*
D03*
X215752Y60399D02*
D03*
Y27999D02*
D03*
X146800Y57550D02*
D03*
X49700Y59630D02*
D03*
X174500Y90300D02*
D03*
X150500Y76450D02*
D03*
X109900Y75000D02*
D03*
X100300Y105400D02*
D03*
X101470Y112370D02*
D03*
X190900Y76700D02*
D03*
X66600Y224500D02*
D03*
X104900Y178700D02*
D03*
X66600Y248100D02*
D03*
X136600Y259900D02*
D03*
X76000Y242169D02*
D03*
Y230400D02*
D03*
Y254000D02*
D03*
X66600Y236264D02*
D03*
X146000Y218547D02*
D03*
X108000Y61185D02*
D03*
X184700Y62800D02*
D03*
X229985Y187653D02*
D03*
X92800Y75800D02*
D03*
X72200Y69100D02*
D03*
X137000Y61600D02*
D03*
X105100Y69378D02*
D03*
X156300Y66900D02*
D03*
M02*
