G04 Layer_Color=65535*
%FSLAX25Y25*%
%MOIN*%
G70*
G01*
G75*
%ADD20C,0.01000*%
%ADD30C,0.00000*%
%ADD31C,0.00787*%
%ADD32C,0.01575*%
%ADD33C,0.00500*%
%ADD34C,0.00600*%
%ADD35C,0.00700*%
G36*
X136700Y150600D02*
X135900D01*
Y149800D01*
Y149000D01*
Y148200D01*
Y147400D01*
X129500D01*
Y148200D01*
X132700D01*
Y149000D01*
X133500D01*
Y149800D01*
X134300D01*
Y150600D01*
X135100D01*
Y151400D01*
X136700D01*
Y150600D01*
D02*
G37*
G36*
X118300Y160200D02*
Y159400D01*
X117500D01*
Y158600D01*
Y157800D01*
Y157000D01*
Y156200D01*
Y155400D01*
Y154600D01*
Y153800D01*
X116700D01*
Y153000D01*
Y152200D01*
Y151400D01*
X117500D01*
Y150600D01*
X118300D01*
Y149800D01*
X119100D01*
Y149000D01*
X119900D01*
Y148200D01*
X123900D01*
Y147400D01*
X123100D01*
Y146600D01*
Y145800D01*
Y145000D01*
X123900D01*
Y144200D01*
X124700D01*
Y143400D01*
X120700D01*
Y142600D01*
X117500D01*
Y143400D01*
X114300D01*
Y144200D01*
X110300D01*
Y143400D01*
Y142600D01*
Y141800D01*
Y141000D01*
X109500D01*
Y140200D01*
Y139400D01*
Y138600D01*
Y137800D01*
Y137000D01*
Y136200D01*
X108700D01*
Y135400D01*
X107900D01*
Y134600D01*
X107100D01*
Y133800D01*
X106300D01*
Y133000D01*
X105500D01*
Y133800D01*
Y134600D01*
X104700D01*
Y135400D01*
Y136200D01*
X103900D01*
Y137000D01*
Y137800D01*
Y138600D01*
Y139400D01*
Y140200D01*
X104700D01*
Y141000D01*
Y141800D01*
X105500D01*
Y142600D01*
X106300D01*
Y143400D01*
Y144200D01*
X107100D01*
Y145000D01*
Y145800D01*
Y146600D01*
Y147400D01*
Y148200D01*
X108700D01*
Y149000D01*
X110300D01*
Y149800D01*
Y150600D01*
Y151400D01*
Y152200D01*
Y153000D01*
Y153800D01*
Y154600D01*
Y155400D01*
Y156200D01*
X111100D01*
Y157000D01*
X110300D01*
Y157800D01*
X111900D01*
Y158600D01*
X112700D01*
Y159400D01*
X113500D01*
Y160200D01*
X115900D01*
Y161000D01*
X118300D01*
Y160200D01*
D02*
G37*
G36*
X139100Y169800D02*
X140700D01*
Y169000D01*
X142300D01*
Y168200D01*
X143100D01*
Y167400D01*
X143900D01*
Y166600D01*
X144700D01*
Y165800D01*
X145500D01*
Y165000D01*
Y164200D01*
X146300D01*
Y163400D01*
X151900D01*
Y162600D01*
X153500D01*
Y161800D01*
X154300D01*
Y161000D01*
X155100D01*
Y160200D01*
X155900D01*
Y159400D01*
X156700D01*
Y158600D01*
Y157800D01*
X157500D01*
Y157000D01*
Y156200D01*
Y155400D01*
X158300D01*
Y154600D01*
Y153800D01*
Y153000D01*
X157500D01*
Y152200D01*
Y151400D01*
Y150600D01*
X156700D01*
Y149800D01*
Y149000D01*
X155900D01*
Y148200D01*
X155100D01*
Y147400D01*
X154300D01*
Y146600D01*
X153500D01*
Y145800D01*
X152700D01*
Y145000D01*
X151900D01*
Y144200D01*
X151100D01*
Y143400D01*
X150300D01*
Y142600D01*
X147900D01*
Y141800D01*
X147100D01*
Y141000D01*
X146300D01*
Y141800D01*
Y142600D01*
X145500D01*
Y143400D01*
X143100D01*
Y142600D01*
X142300D01*
Y141800D01*
Y141000D01*
X141500D01*
Y140200D01*
X140700D01*
Y139400D01*
X139100D01*
Y138600D01*
X138300D01*
Y137800D01*
X136700D01*
Y137000D01*
X135900D01*
Y136200D01*
X134300D01*
Y135400D01*
X133500D01*
Y136200D01*
X132700D01*
Y135400D01*
X131100D01*
Y136200D01*
Y137000D01*
Y137800D01*
Y138600D01*
Y139400D01*
X131900D01*
Y140200D01*
Y141000D01*
X137500D01*
Y141800D01*
X139100D01*
Y142600D01*
Y143400D01*
X140700D01*
Y144200D01*
X141500D01*
Y145000D01*
Y145800D01*
X142300D01*
Y146600D01*
Y147400D01*
Y148200D01*
Y149000D01*
Y149800D01*
Y150600D01*
Y151400D01*
X143100D01*
Y152200D01*
Y153000D01*
Y153800D01*
Y154600D01*
Y155400D01*
Y156200D01*
X144700D01*
Y157000D01*
Y157800D01*
Y158600D01*
X145500D01*
Y159400D01*
Y160200D01*
Y161000D01*
X138300D01*
Y161800D01*
Y162600D01*
Y163400D01*
Y164200D01*
Y165000D01*
X137500D01*
Y165800D01*
Y166600D01*
X136700D01*
Y167400D01*
X135900D01*
Y168200D01*
X125500D01*
Y169000D01*
X127900D01*
Y169800D01*
X129500D01*
Y170600D01*
X139100D01*
Y169800D01*
D02*
G37*
G36*
X131900Y161800D02*
Y161000D01*
Y160200D01*
Y159400D01*
X137500D01*
Y158600D01*
Y157800D01*
Y157000D01*
X136700D01*
Y157800D01*
X131900D01*
Y157000D01*
X131100D01*
Y157800D01*
Y158600D01*
Y159400D01*
Y160200D01*
Y161000D01*
X123900D01*
Y161800D01*
Y162600D01*
X131900D01*
Y161800D01*
D02*
G37*
G36*
X124700Y155400D02*
Y154600D01*
X123100D01*
Y155400D01*
Y156200D01*
X124700D01*
Y155400D01*
D02*
G37*
%LPC*%
G36*
X152700Y158600D02*
X150300D01*
Y157800D01*
X149500D01*
Y157000D01*
X148700D01*
Y156200D01*
X147900D01*
Y155400D01*
X147100D01*
Y154600D01*
Y153800D01*
X146300D01*
Y153000D01*
Y152200D01*
Y151400D01*
X147100D01*
Y150600D01*
X150300D01*
Y151400D01*
X151100D01*
Y152200D01*
Y153000D01*
Y153800D01*
X151900D01*
Y154600D01*
Y155400D01*
Y156200D01*
X152700D01*
Y157000D01*
X153500D01*
Y157800D01*
X152700D01*
Y158600D01*
D02*
G37*
%LPD*%
D20*
X217506Y112132D02*
Y108800D01*
X222504D01*
Y112132D01*
X220005Y108800D02*
Y110466D01*
X218339Y117131D02*
X217506Y116298D01*
Y114631D01*
X218339Y113798D01*
X221671D01*
X222504Y114631D01*
Y116298D01*
X221671Y117131D01*
X217506Y122129D02*
Y118797D01*
X222504D01*
Y122129D01*
X220005Y118797D02*
Y120463D01*
X222504Y123795D02*
X217506D01*
X222504Y127127D01*
X217506D01*
Y132126D02*
Y128794D01*
X220005D01*
X219172Y130460D01*
Y131293D01*
X220005Y132126D01*
X221671D01*
X222504Y131293D01*
Y129627D01*
X221671Y128794D01*
X218339Y133792D02*
X217506Y134625D01*
Y136291D01*
X218339Y137124D01*
X221671D01*
X222504Y136291D01*
Y134625D01*
X221671Y133792D01*
X218339D01*
X222504Y138790D02*
Y140456D01*
Y139623D01*
X217506D01*
X218339Y138790D01*
Y142956D02*
X217506Y143789D01*
Y145455D01*
X218339Y146288D01*
X219172D01*
X220005Y145455D01*
Y144622D01*
Y145455D01*
X220838Y146288D01*
X221671D01*
X222504Y145455D01*
Y143789D01*
X221671Y142956D01*
X220005Y147954D02*
Y151286D01*
X218339Y152952D02*
X217506Y153785D01*
Y155452D01*
X218339Y156285D01*
X221671D01*
X222504Y155452D01*
Y153785D01*
X221671Y152952D01*
X218339D01*
Y157951D02*
X217506Y158784D01*
Y160450D01*
X218339Y161283D01*
X221671D01*
X222504Y160450D01*
Y158784D01*
X221671Y157951D01*
X218339D01*
X222504Y165448D02*
X217506D01*
X220005Y162949D01*
Y166281D01*
X217506Y177944D02*
X222504D01*
Y180444D01*
X221671Y181277D01*
X220838D01*
X220005Y180444D01*
Y177944D01*
Y180444D01*
X219172Y181277D01*
X218339D01*
X217506Y180444D01*
Y177944D01*
X222504Y183776D02*
Y185442D01*
X221671Y186275D01*
X220005D01*
X219172Y185442D01*
Y183776D01*
X220005Y182943D01*
X221671D01*
X222504Y183776D01*
X219172Y188774D02*
Y190440D01*
X220005Y191273D01*
X222504D01*
Y188774D01*
X221671Y187941D01*
X220838Y188774D01*
Y191273D01*
X219172Y192939D02*
X222504D01*
X220838D01*
X220005Y193772D01*
X219172Y194606D01*
Y195439D01*
X217506Y201270D02*
X222504D01*
Y198771D01*
X221671Y197938D01*
X220005D01*
X219172Y198771D01*
Y201270D01*
X218339Y207934D02*
X217506Y208768D01*
Y210434D01*
X218339Y211267D01*
X219172D01*
X220005Y210434D01*
Y209601D01*
Y210434D01*
X220838Y211267D01*
X221671D01*
X222504Y210434D01*
Y208768D01*
X221671Y207934D01*
X230902Y108800D02*
X227570D01*
X225904Y110466D01*
X227570Y112132D01*
X230902D01*
X228403D01*
Y108800D01*
X227570Y114631D02*
Y116298D01*
X228403Y117131D01*
X230902D01*
Y114631D01*
X230069Y113798D01*
X229236Y114631D01*
Y117131D01*
X230902Y118797D02*
X225904D01*
X229236D02*
X227570Y121296D01*
X229236Y118797D02*
X230902Y121296D01*
X227570Y124628D02*
Y126294D01*
X228403Y127127D01*
X230902D01*
Y124628D01*
X230069Y123795D01*
X229236Y124628D01*
Y127127D01*
X230902Y128794D02*
Y131293D01*
X230069Y132126D01*
X229236Y131293D01*
Y129627D01*
X228403Y128794D01*
X227570Y129627D01*
Y132126D01*
X225904Y133792D02*
X230902D01*
X228403D01*
X227570Y134625D01*
Y136291D01*
X228403Y137124D01*
X230902D01*
X225904Y143789D02*
X230902D01*
X229236D01*
X225904Y147121D01*
X228403Y144622D01*
X230902Y147121D01*
X227570Y148787D02*
X230069D01*
X230902Y149620D01*
Y152119D01*
X227570D01*
X230902Y153785D02*
X227570D01*
Y154619D01*
X228403Y155452D01*
X230902D01*
X228403D01*
X227570Y156285D01*
X228403Y157118D01*
X230902D01*
X227570Y159617D02*
Y161283D01*
X228403Y162116D01*
X230902D01*
Y159617D01*
X230069Y158784D01*
X229236Y159617D01*
Y162116D01*
X227570Y163782D02*
X230902D01*
X229236D01*
X228403Y164615D01*
X227570Y165448D01*
Y166281D01*
X239300Y108800D02*
X235968D01*
X234302Y110466D01*
X235968Y112132D01*
X239300D01*
X236801D01*
Y108800D01*
X235968Y113798D02*
X239300D01*
X237634D01*
X236801Y114631D01*
X235968Y115464D01*
Y116298D01*
Y118797D02*
X238467D01*
X239300Y119630D01*
Y122129D01*
X235968D01*
X239300Y123795D02*
X235968D01*
Y126294D01*
X236801Y127127D01*
X239300D01*
Y128794D02*
Y131293D01*
X238467Y132126D01*
X237634Y131293D01*
Y129627D01*
X236801Y128794D01*
X235968Y129627D01*
Y132126D01*
Y133792D02*
X238467D01*
X239300Y134625D01*
Y137124D01*
X235968D01*
X239300Y138790D02*
X235968D01*
Y141289D01*
X236801Y142122D01*
X239300D01*
X234302Y147121D02*
X239300D01*
Y144622D01*
X238467Y143789D01*
X236801D01*
X235968Y144622D01*
Y147121D01*
Y149620D02*
Y151286D01*
X236801Y152119D01*
X239300D01*
Y149620D01*
X238467Y148787D01*
X237634Y149620D01*
Y152119D01*
X235968Y153785D02*
X239300D01*
X237634D01*
X236801Y154619D01*
X235968Y155452D01*
Y156285D01*
X234302Y163782D02*
X239300D01*
X237634D01*
X234302Y167114D01*
X236801Y164615D01*
X239300Y167114D01*
X235968Y169614D02*
Y171280D01*
X236801Y172113D01*
X239300D01*
Y169614D01*
X238467Y168781D01*
X237634Y169614D01*
Y172113D01*
X239300Y173779D02*
X235968D01*
Y176278D01*
X236801Y177111D01*
X239300D01*
Y178777D02*
X235968D01*
Y181277D01*
X236801Y182110D01*
X239300D01*
X235968Y184609D02*
Y186275D01*
X236801Y187108D01*
X239300D01*
Y184609D01*
X238467Y183776D01*
X237634Y184609D01*
Y187108D01*
X239300Y188774D02*
X235968D01*
Y191273D01*
X236801Y192106D01*
X239300D01*
X100Y100D02*
Y273200D01*
Y100D02*
X200Y0D01*
X250000D01*
X100Y273200D02*
X250000D01*
Y0D02*
Y273200D01*
D30*
X218868Y64258D02*
G03*
X218868Y64258I-787J0D01*
G01*
Y31857D02*
G03*
X218868Y31857I-787J0D01*
G01*
X218968Y96457D02*
G03*
X218968Y96457I-787J0D01*
G01*
X140700Y65800D02*
G03*
X140700Y68200I0J1200D01*
G01*
D31*
X241548Y267216D02*
G03*
X241548Y267216I-394J0D01*
G01*
X88310Y73037D02*
G03*
X88310Y73037I-472J0D01*
G01*
X80283Y75399D02*
G03*
X80283Y75399I-319J0D01*
G01*
X49000Y80900D02*
Y110900D01*
X39000D02*
X49000D01*
X39000Y80900D02*
Y110900D01*
Y80900D02*
X49000D01*
X9900Y81700D02*
X19900D01*
X9900Y21700D02*
X19900D01*
X9900D02*
Y81700D01*
X19900Y21700D02*
Y81700D01*
X199900Y101700D02*
X209900D01*
Y21700D02*
Y101700D01*
X199900Y21700D02*
X209900D01*
X199900D02*
Y101700D01*
X157025Y259547D02*
X160175D01*
X157025Y265453D02*
X160175D01*
X199900Y115200D02*
Y207700D01*
Y107700D02*
Y115200D01*
Y107700D02*
X209900D01*
Y207700D01*
X199900D02*
X209900D01*
X9900Y171700D02*
X19900D01*
Y91700D02*
Y171700D01*
X9900Y91700D02*
X19900D01*
X9900D02*
Y171700D01*
X10200Y198500D02*
X20200D01*
X10200Y258500D02*
X20200D01*
Y198500D02*
Y258500D01*
X10200Y198500D02*
Y258500D01*
X152147Y93525D02*
Y96675D01*
X158053Y93525D02*
Y96675D01*
X52925Y264453D02*
X56075D01*
X52925Y258547D02*
X56075D01*
X52725Y247747D02*
X55875D01*
X52725Y253653D02*
X55875D01*
X152800Y132400D02*
X172800D01*
X152800Y112400D02*
Y132400D01*
X172800Y112400D02*
Y132400D01*
X152800Y112400D02*
X172800D01*
X98547Y90825D02*
Y93975D01*
X104453Y90825D02*
Y93975D01*
X85525Y90853D02*
X88675D01*
X85525Y84947D02*
X88675D01*
X117953Y77125D02*
Y80275D01*
X112047Y77125D02*
Y80275D01*
X176647Y66525D02*
Y69675D01*
X182553Y66525D02*
Y69675D01*
X200300Y231900D02*
Y261900D01*
Y231900D02*
X210300D01*
Y261900D01*
X200300D02*
X210300D01*
X157925Y174853D02*
X161075D01*
X157925Y168947D02*
X161075D01*
X182225Y195447D02*
X185375D01*
X182225Y201353D02*
X185375D01*
X98010Y176553D02*
X101160D01*
X98010Y170647D02*
X101160D01*
X42553Y52740D02*
Y55890D01*
X36647Y52740D02*
Y55890D01*
X173600Y30100D02*
Y40100D01*
X153600Y30100D02*
X173600D01*
X153600D02*
Y40100D01*
X173600D01*
X63600Y30100D02*
Y40100D01*
X43600Y30100D02*
X63600D01*
X43600D02*
Y40100D01*
X63600D01*
X86600Y6700D02*
X126600D01*
X86600Y26700D02*
X126600D01*
X86600Y6700D02*
Y26700D01*
X126600Y6700D02*
Y26700D01*
X137400Y6400D02*
Y16400D01*
X157400D01*
Y6400D02*
Y16400D01*
X137400Y6400D02*
X157400D01*
X67800Y7000D02*
Y17000D01*
X47800Y7000D02*
X67800D01*
X47800D02*
Y17000D01*
X67800D01*
X62400Y103800D02*
X92400D01*
Y113800D01*
X62400D02*
X92400D01*
X62400Y103800D02*
Y113800D01*
X57600Y128100D02*
X97600D01*
X57600Y148100D02*
X97600D01*
X57600Y128100D02*
Y148100D01*
X97600Y128100D02*
Y148100D01*
X233725Y215353D02*
X236875D01*
X233725Y209447D02*
X236875D01*
X85672Y75006D02*
X94728D01*
Y63194D02*
Y75006D01*
X85672Y63194D02*
X94728D01*
X85672D02*
Y75006D01*
X71100Y203800D02*
X163600D01*
X63600D02*
X71100D01*
X63600Y193800D02*
Y203800D01*
Y193800D02*
X163600D01*
Y203800D01*
X43600Y180100D02*
Y190100D01*
X173600D01*
Y180100D02*
Y190100D01*
X166100Y180100D02*
X173600D01*
X43600D02*
X166100D01*
X143953Y93425D02*
Y96575D01*
X138047Y93425D02*
Y96575D01*
X125447Y64925D02*
Y68075D01*
X131353Y64925D02*
Y68075D01*
X166447Y94025D02*
Y97175D01*
X172353Y94025D02*
Y97175D01*
X170453Y67025D02*
Y70175D01*
X164547Y67025D02*
Y70175D01*
D32*
X65946Y265791D02*
G03*
X65946Y265791I-197J0D01*
G01*
D33*
X220257Y63943D02*
X239943D01*
X220257Y44257D02*
X239943D01*
X220257Y31543D02*
X239943D01*
X220257Y11857D02*
X239943D01*
X220357Y96143D02*
X240043D01*
X220357Y76457D02*
X240043D01*
X220489Y254811D02*
X244111D01*
Y231189D02*
Y254811D01*
X220489Y231189D02*
X244111D01*
X220489D02*
Y254811D01*
X70867Y215004D02*
X141733D01*
X70867Y268705D02*
Y293744D01*
X141733Y268705D02*
Y293744D01*
X70867D02*
X141733D01*
X86833Y213699D02*
X84500D01*
Y210200D01*
X86833D01*
X84500Y211949D02*
X85666D01*
X90331Y213116D02*
X89748Y213699D01*
X88582D01*
X87999Y213116D01*
Y212533D01*
X88582Y211949D01*
X89748D01*
X90331Y211366D01*
Y210783D01*
X89748Y210200D01*
X88582D01*
X87999Y210783D01*
X91498Y210200D02*
Y213699D01*
X93247D01*
X93830Y213116D01*
Y211949D01*
X93247Y211366D01*
X91498D01*
X94997Y211949D02*
X97329D01*
X98496Y213699D02*
Y210200D01*
X99662Y211366D01*
X100828Y210200D01*
Y213699D01*
X101994Y210200D02*
Y213699D01*
X103744D01*
X104327Y213116D01*
Y211949D01*
X103744Y211366D01*
X101994D01*
X103161D02*
X104327Y210200D01*
X107243Y213699D02*
X106076D01*
X105493Y213116D01*
Y210783D01*
X106076Y210200D01*
X107243D01*
X107826Y210783D01*
Y213116D01*
X107243Y213699D01*
X110741D02*
X109575D01*
X108992Y213116D01*
Y210783D01*
X109575Y210200D01*
X110741D01*
X111325Y210783D01*
Y213116D01*
X110741Y213699D01*
X112491Y210200D02*
Y213699D01*
X113657Y212533D01*
X114823Y213699D01*
Y210200D01*
X115990Y211949D02*
X118322D01*
X119489Y213116D02*
X120072Y213699D01*
X121238D01*
X121821Y213116D01*
Y210783D01*
X121238Y210200D01*
X120072D01*
X119489Y210783D01*
Y213116D01*
X125320Y210200D02*
X122988D01*
X125320Y212533D01*
Y213116D01*
X124737Y213699D01*
X123571D01*
X122988Y213116D01*
X70800Y56100D02*
Y58433D01*
X71966Y59599D01*
X73133Y58433D01*
Y56100D01*
Y57849D01*
X70800D01*
X74299Y59599D02*
Y56100D01*
X76048D01*
X76631Y56683D01*
Y59016D01*
X76048Y59599D01*
X74299D01*
X80130Y59016D02*
X79547Y59599D01*
X78381D01*
X77798Y59016D01*
Y58433D01*
X78381Y57849D01*
X79547D01*
X80130Y57266D01*
Y56683D01*
X79547Y56100D01*
X78381D01*
X77798Y56683D01*
X81297Y56100D02*
X82463D01*
X81880D01*
Y59599D01*
X81297Y59016D01*
X84212Y56100D02*
X85379D01*
X84795D01*
Y59599D01*
X84212Y59016D01*
X87128Y56100D02*
X88294D01*
X87711D01*
Y59599D01*
X87128Y59016D01*
X92376Y59599D02*
X90044D01*
Y57849D01*
X91210Y58433D01*
X91793D01*
X92376Y57849D01*
Y56683D01*
X91793Y56100D01*
X90627D01*
X90044Y56683D01*
X93543Y59599D02*
X94709D01*
X94126D01*
Y56100D01*
X93543D01*
X94709D01*
X96458Y59599D02*
Y56100D01*
X98208D01*
X98791Y56683D01*
Y59016D01*
X98208Y59599D01*
X96458D01*
X102290Y59016D02*
X101707Y59599D01*
X100540D01*
X99957Y59016D01*
Y56683D01*
X100540Y56100D01*
X101707D01*
X102290Y56683D01*
Y57849D01*
X101123D01*
X105789Y59016D02*
X105206Y59599D01*
X104039D01*
X103456Y59016D01*
Y58433D01*
X104039Y57849D01*
X105206D01*
X105789Y57266D01*
Y56683D01*
X105206Y56100D01*
X104039D01*
X103456Y56683D01*
X106955Y56100D02*
Y59599D01*
X108704D01*
X109288Y59016D01*
Y57849D01*
X108704Y57266D01*
X106955D01*
X108121D02*
X109288Y56100D01*
X126200Y51400D02*
Y54899D01*
X127366Y53733D01*
X128533Y54899D01*
Y51400D01*
X132031Y54316D02*
X131448Y54899D01*
X130282D01*
X129699Y54316D01*
Y51983D01*
X130282Y51400D01*
X131448D01*
X132031Y51983D01*
X133198Y51400D02*
Y54899D01*
X134947D01*
X135530Y54316D01*
Y53149D01*
X134947Y52566D01*
X133198D01*
X138446Y51400D02*
Y54899D01*
X136697Y53149D01*
X139029D01*
X140196Y54899D02*
X142528D01*
Y54316D01*
X140196Y51983D01*
Y51400D01*
X146027D02*
X143694D01*
X146027Y53733D01*
Y54316D01*
X145444Y54899D01*
X144278D01*
X143694Y54316D01*
X149526Y54899D02*
X147193D01*
Y53149D01*
X148360Y53733D01*
X148943D01*
X149526Y53149D01*
Y51983D01*
X148943Y51400D01*
X147776D01*
X147193Y51983D01*
X150692Y51400D02*
Y53733D01*
X151858Y54899D01*
X153025Y53733D01*
Y51400D01*
Y53149D01*
X150692D01*
X154191Y54316D02*
X154774Y54899D01*
X155940D01*
X156524Y54316D01*
Y51983D01*
X155940Y51400D01*
X154774D01*
X154191Y51983D01*
Y54316D01*
X157690Y54899D02*
X160022D01*
X158856D01*
Y51400D01*
X161189Y53149D02*
X163521D01*
X167020Y54899D02*
X164688D01*
Y51400D01*
X167020D01*
X164688Y53149D02*
X165854D01*
X168186Y51400D02*
X170519Y53733D01*
X174018Y54316D02*
X173435Y54899D01*
X172268D01*
X171685Y54316D01*
Y51983D01*
X172268Y51400D01*
X173435D01*
X174018Y51983D01*
X175184Y54899D02*
Y51400D01*
Y53149D01*
X177517D01*
Y54899D01*
Y51400D01*
X217400Y225800D02*
X213901D01*
Y227549D01*
X214484Y228133D01*
X215651D01*
X216234Y227549D01*
Y225800D01*
Y226966D02*
X217400Y228133D01*
X213901Y231631D02*
Y229299D01*
X217400D01*
Y231631D01*
X215651Y229299D02*
Y230465D01*
X214484Y235130D02*
X213901Y234547D01*
Y233381D01*
X214484Y232798D01*
X215067D01*
X215651Y233381D01*
Y234547D01*
X216234Y235130D01*
X216817D01*
X217400Y234547D01*
Y233381D01*
X216817Y232798D01*
X213901Y238629D02*
Y236297D01*
X217400D01*
Y238629D01*
X215651Y236297D02*
Y237463D01*
X213901Y239795D02*
Y242128D01*
Y240962D01*
X217400D01*
X48800Y47700D02*
X45301D01*
Y49449D01*
X45884Y50033D01*
X47051D01*
X47634Y49449D01*
Y47700D01*
Y48866D02*
X48800Y50033D01*
Y51199D02*
Y52365D01*
Y51782D01*
X45301D01*
X45884Y51199D01*
Y54115D02*
X45301Y54698D01*
Y55864D01*
X45884Y56447D01*
X48217D01*
X48800Y55864D01*
Y54698D01*
X48217Y54115D01*
X45884D01*
X235900Y203300D02*
Y206799D01*
X237649D01*
X238233Y206216D01*
Y205049D01*
X237649Y204466D01*
X235900D01*
X237066D02*
X238233Y203300D01*
X239399Y203883D02*
X239982Y203300D01*
X241148D01*
X241731Y203883D01*
Y206216D01*
X241148Y206799D01*
X239982D01*
X239399Y206216D01*
Y205633D01*
X239982Y205049D01*
X241731D01*
X38600Y249300D02*
Y252799D01*
X40349D01*
X40933Y252216D01*
Y251049D01*
X40349Y250466D01*
X38600D01*
X39766D02*
X40933Y249300D01*
X42099Y252216D02*
X42682Y252799D01*
X43848D01*
X44431Y252216D01*
Y251633D01*
X43848Y251049D01*
X44431Y250466D01*
Y249883D01*
X43848Y249300D01*
X42682D01*
X42099Y249883D01*
Y250466D01*
X42682Y251049D01*
X42099Y251633D01*
Y252216D01*
X42682Y251049D02*
X43848D01*
X137800Y105300D02*
Y108799D01*
X139549D01*
X140133Y108216D01*
Y107049D01*
X139549Y106466D01*
X137800D01*
X138966D02*
X140133Y105300D01*
X141299Y108799D02*
X143631D01*
Y108216D01*
X141299Y105883D01*
Y105300D01*
X84800Y78700D02*
Y82199D01*
X86549D01*
X87133Y81616D01*
Y80449D01*
X86549Y79866D01*
X84800D01*
X85966D02*
X87133Y78700D01*
X90631Y82199D02*
X89465Y81616D01*
X88299Y80449D01*
Y79283D01*
X88882Y78700D01*
X90048D01*
X90631Y79283D01*
Y79866D01*
X90048Y80449D01*
X88299D01*
X175800Y95600D02*
Y99099D01*
X177549D01*
X178133Y98516D01*
Y97349D01*
X177549Y96766D01*
X175800D01*
X176966D02*
X178133Y95600D01*
X181631Y99099D02*
X179299D01*
Y97349D01*
X180465Y97933D01*
X181048D01*
X181631Y97349D01*
Y96183D01*
X181048Y95600D01*
X179882D01*
X179299Y96183D01*
X151700Y81000D02*
Y84499D01*
X153449D01*
X154033Y83916D01*
Y82749D01*
X153449Y82166D01*
X151700D01*
X152866D02*
X154033Y81000D01*
X156948D02*
Y84499D01*
X155199Y82749D01*
X157531D01*
X176200Y78300D02*
Y81799D01*
X177949D01*
X178533Y81216D01*
Y80049D01*
X177949Y79466D01*
X176200D01*
X177366D02*
X178533Y78300D01*
X179699Y81216D02*
X180282Y81799D01*
X181448D01*
X182031Y81216D01*
Y80633D01*
X181448Y80049D01*
X180865D01*
X181448D01*
X182031Y79466D01*
Y78883D01*
X181448Y78300D01*
X180282D01*
X179699Y78883D01*
X125700Y76600D02*
Y80099D01*
X127449D01*
X128033Y79516D01*
Y78349D01*
X127449Y77766D01*
X125700D01*
X126866D02*
X128033Y76600D01*
X131531D02*
X129199D01*
X131531Y78933D01*
Y79516D01*
X130948Y80099D01*
X129782D01*
X129199Y79516D01*
X108300Y90900D02*
Y94399D01*
X110049D01*
X110633Y93816D01*
Y92649D01*
X110049Y92066D01*
X108300D01*
X109466D02*
X110633Y90900D01*
X111799D02*
X112965D01*
X112382D01*
Y94399D01*
X111799Y93816D01*
X163600Y42200D02*
Y45699D01*
X165349D01*
X165933Y45116D01*
Y43949D01*
X165349Y43366D01*
X163600D01*
X167099Y42200D02*
X168265D01*
X167682D01*
Y45699D01*
X167099Y45116D01*
X170015Y45699D02*
X172347D01*
Y45116D01*
X170015Y42783D01*
Y42200D01*
X137200Y209599D02*
X139533D01*
X138366D01*
Y206100D01*
X143031Y209599D02*
X140699D01*
Y207849D01*
X141865D01*
X140699D01*
Y206100D01*
X144198Y209599D02*
X146530D01*
X145364D01*
Y206100D01*
X147697Y205517D02*
X150029D01*
X151196Y209599D02*
Y206100D01*
X153528D01*
X157027Y209016D02*
X156444Y209599D01*
X155278D01*
X154694Y209016D01*
Y206683D01*
X155278Y206100D01*
X156444D01*
X157027Y206683D01*
X158193Y209599D02*
Y206100D01*
X159943D01*
X160526Y206683D01*
Y209016D01*
X159943Y209599D01*
X158193D01*
X54200Y41900D02*
Y45399D01*
X55949D01*
X56533Y44816D01*
Y43649D01*
X55949Y43066D01*
X54200D01*
X57699Y41900D02*
X58865D01*
X58282D01*
Y45399D01*
X57699Y44816D01*
X62947Y45399D02*
X60615D01*
Y43649D01*
X61781Y44233D01*
X62364D01*
X62947Y43649D01*
Y42483D01*
X62364Y41900D01*
X61198D01*
X60615Y42483D01*
X44500Y177499D02*
Y174000D01*
X46833D01*
X50331Y176916D02*
X49748Y177499D01*
X48582D01*
X47999Y176916D01*
Y174583D01*
X48582Y174000D01*
X49748D01*
X50331Y174583D01*
X51498Y177499D02*
Y174000D01*
X53247D01*
X53830Y174583D01*
Y176916D01*
X53247Y177499D01*
X51498D01*
X54997Y173417D02*
X57329D01*
X58495Y177499D02*
Y174000D01*
X60245D01*
X60828Y174583D01*
Y176916D01*
X60245Y177499D01*
X58495D01*
X61994D02*
X63161D01*
X62577D01*
Y174000D01*
X61994D01*
X63161D01*
X67243Y176916D02*
X66659Y177499D01*
X65493D01*
X64910Y176916D01*
Y176333D01*
X65493Y175749D01*
X66659D01*
X67243Y175166D01*
Y174583D01*
X66659Y174000D01*
X65493D01*
X64910Y174583D01*
X68409Y174000D02*
Y177499D01*
X70158D01*
X70741Y176916D01*
Y175749D01*
X70158Y175166D01*
X68409D01*
X41433Y77416D02*
X40849Y77999D01*
X39683D01*
X39100Y77416D01*
Y76833D01*
X39683Y76249D01*
X40849D01*
X41433Y75666D01*
Y75083D01*
X40849Y74500D01*
X39683D01*
X39100Y75083D01*
X42599Y74500D02*
Y77999D01*
X44348D01*
X44932Y77416D01*
Y76249D01*
X44348Y75666D01*
X42599D01*
X46098Y77999D02*
X47264D01*
X46681D01*
Y74500D01*
X46098D01*
X47264D01*
X201100Y264000D02*
Y267499D01*
X202849D01*
X203433Y266916D01*
Y265749D01*
X202849Y265166D01*
X201100D01*
X204599Y264000D02*
X205765D01*
X205182D01*
Y267499D01*
X204599Y266916D01*
X209847Y264000D02*
X207515D01*
X209847Y266333D01*
Y266916D01*
X209264Y267499D01*
X208098D01*
X207515Y266916D01*
X11000Y260600D02*
Y264099D01*
X12749D01*
X13333Y263516D01*
Y262349D01*
X12749Y261766D01*
X11000D01*
X14499Y260600D02*
X15665D01*
X15082D01*
Y264099D01*
X14499Y263516D01*
X17415Y260600D02*
X18581D01*
X17998D01*
Y264099D01*
X17415Y263516D01*
X63000Y123200D02*
Y125533D01*
X64166Y126699D01*
X65333Y125533D01*
Y123200D01*
Y124949D01*
X63000D01*
X66499Y126699D02*
Y123200D01*
X68248D01*
X68831Y123783D01*
Y126116D01*
X68248Y126699D01*
X66499D01*
X72330Y126116D02*
X71747Y126699D01*
X70581D01*
X69998Y126116D01*
Y123783D01*
X70581Y123200D01*
X71747D01*
X72330Y123783D01*
X73497Y122617D02*
X75829D01*
X76995Y123200D02*
Y125533D01*
X78162Y126699D01*
X79328Y125533D01*
Y123200D01*
Y124949D01*
X76995D01*
X80494Y126699D02*
Y123200D01*
X82244D01*
X82827Y123783D01*
Y126116D01*
X82244Y126699D01*
X80494D01*
X83993D02*
Y123200D01*
X85743D01*
X86326Y123783D01*
Y126116D01*
X85743Y126699D01*
X83993D01*
X87492Y123200D02*
Y126699D01*
X89241D01*
X89825Y126116D01*
Y124949D01*
X89241Y124366D01*
X87492D01*
X88658D02*
X89825Y123200D01*
X152900Y109499D02*
Y106000D01*
X154649D01*
X155233Y106583D01*
Y108916D01*
X154649Y109499D01*
X152900D01*
X156399Y106000D02*
Y108333D01*
X157565Y109499D01*
X158731Y108333D01*
Y106000D01*
Y107749D01*
X156399D01*
X162230Y108916D02*
X161647Y109499D01*
X160481D01*
X159898Y108916D01*
Y106583D01*
X160481Y106000D01*
X161647D01*
X162230Y106583D01*
X163397Y105417D02*
X165729D01*
X166895Y106000D02*
Y108333D01*
X168062Y109499D01*
X169228Y108333D01*
Y106000D01*
Y107749D01*
X166895D01*
X170394Y109499D02*
Y106000D01*
X172144D01*
X172727Y106583D01*
Y108916D01*
X172144Y109499D01*
X170394D01*
X173893D02*
Y106000D01*
X175643D01*
X176226Y106583D01*
Y108916D01*
X175643Y109499D01*
X173893D01*
X177392Y106000D02*
Y109499D01*
X179141D01*
X179725Y108916D01*
Y107749D01*
X179141Y107166D01*
X177392D01*
X178558D02*
X179725Y106000D01*
X10000Y15300D02*
Y18799D01*
X11749D01*
X12333Y18216D01*
Y17049D01*
X11749Y16466D01*
X10000D01*
X13499Y18216D02*
X14082Y18799D01*
X15248D01*
X15832Y18216D01*
Y17633D01*
X15248Y17049D01*
X15832Y16466D01*
Y15883D01*
X15248Y15300D01*
X14082D01*
X13499Y15883D01*
Y16466D01*
X14082Y17049D01*
X13499Y17633D01*
Y18216D01*
X14082Y17049D02*
X15248D01*
X200000Y15300D02*
Y18799D01*
X201749D01*
X202333Y18216D01*
Y17049D01*
X201749Y16466D01*
X200000D01*
X203499Y18799D02*
X205831D01*
Y18216D01*
X203499Y15883D01*
Y15300D01*
X65500Y97800D02*
Y100133D01*
X66666Y101299D01*
X67833Y100133D01*
Y97800D01*
Y99549D01*
X65500D01*
X68999Y101299D02*
Y97800D01*
X71331D01*
X72498D02*
Y101299D01*
X74247D01*
X74830Y100716D01*
Y99549D01*
X74247Y98966D01*
X72498D01*
X73664D02*
X74830Y97800D01*
X75997Y101299D02*
X78329D01*
X77163D01*
Y97800D01*
X79496Y97217D02*
X81828D01*
X85327Y100716D02*
X84744Y101299D01*
X83578D01*
X82994Y100716D01*
Y100133D01*
X83578Y99549D01*
X84744D01*
X85327Y98966D01*
Y98383D01*
X84744Y97800D01*
X83578D01*
X82994Y98383D01*
X88826Y101299D02*
X86493D01*
Y97800D01*
X88826D01*
X86493Y99549D02*
X87660D01*
X89992Y101299D02*
Y97800D01*
X92325D01*
X96800Y41000D02*
Y43333D01*
X97966Y44499D01*
X99133Y43333D01*
Y41000D01*
Y42749D01*
X96800D01*
X100299Y44499D02*
Y41000D01*
X102048D01*
X102631Y41583D01*
Y43916D01*
X102048Y44499D01*
X100299D01*
X106130Y43916D02*
X105547Y44499D01*
X104381D01*
X103798Y43916D01*
Y41583D01*
X104381Y41000D01*
X105547D01*
X106130Y41583D01*
X107297Y40417D02*
X109629D01*
X110795Y44499D02*
X111962D01*
X111379D01*
Y41000D01*
X110795D01*
X111962D01*
X113711D02*
Y44499D01*
X116044Y41000D01*
Y44499D01*
X160500Y12899D02*
Y9400D01*
X162249D01*
X162833Y9983D01*
Y12316D01*
X162249Y12899D01*
X160500D01*
X163999Y9400D02*
Y11733D01*
X165165Y12899D01*
X166331Y11733D01*
Y9400D01*
Y11149D01*
X163999D01*
X169830Y12316D02*
X169247Y12899D01*
X168081D01*
X167498Y12316D01*
Y9983D01*
X168081Y9400D01*
X169247D01*
X169830Y9983D01*
X45200Y20000D02*
Y22333D01*
X46366Y23499D01*
X47533Y22333D01*
Y20000D01*
Y21749D01*
X45200D01*
X48699Y23499D02*
Y20000D01*
X50448D01*
X51032Y20583D01*
Y22916D01*
X50448Y23499D01*
X48699D01*
X54530Y22916D02*
X53947Y23499D01*
X52781D01*
X52198Y22916D01*
Y20583D01*
X52781Y20000D01*
X53947D01*
X54530Y20583D01*
X55697Y19417D02*
X58029D01*
X59196Y20000D02*
Y22333D01*
X60362Y23499D01*
X61528Y22333D01*
Y20000D01*
Y21749D01*
X59196D01*
X62694Y23499D02*
Y20000D01*
X65027D01*
X66193D02*
Y23499D01*
X67943D01*
X68526Y22916D01*
Y21749D01*
X67943Y21166D01*
X66193D01*
X67360D02*
X68526Y20000D01*
X69692Y23499D02*
X72025D01*
X70858D01*
Y20000D01*
X199900Y210400D02*
Y213899D01*
X201649D01*
X202233Y213316D01*
Y212149D01*
X201649Y211566D01*
X199900D01*
X205731Y210400D02*
X203399D01*
X205731Y212733D01*
Y213316D01*
X205148Y213899D01*
X203982D01*
X203399Y213316D01*
X10800Y175200D02*
Y178699D01*
X12549D01*
X13133Y178116D01*
Y176949D01*
X12549Y176366D01*
X10800D01*
X14299Y175200D02*
X15465D01*
X14882D01*
Y178699D01*
X14299Y178116D01*
X233700Y8599D02*
Y5100D01*
X235449D01*
X236033Y5683D01*
Y8016D01*
X235449Y8599D01*
X233700D01*
X237199Y8016D02*
X237782Y8599D01*
X238948D01*
X239531Y8016D01*
Y7433D01*
X238948Y6849D01*
X238365D01*
X238948D01*
X239531Y6266D01*
Y5683D01*
X238948Y5100D01*
X237782D01*
X237199Y5683D01*
X234800Y41299D02*
Y37800D01*
X236549D01*
X237133Y38383D01*
Y40716D01*
X236549Y41299D01*
X234800D01*
X240631Y37800D02*
X238299D01*
X240631Y40133D01*
Y40716D01*
X240048Y41299D01*
X238882D01*
X238299Y40716D01*
X236900Y73299D02*
Y69800D01*
X238649D01*
X239233Y70383D01*
Y72716D01*
X238649Y73299D01*
X236900D01*
X240399Y69800D02*
X241565D01*
X240982D01*
Y73299D01*
X240399Y72716D01*
X169833Y199616D02*
X169249Y200199D01*
X168083D01*
X167500Y199616D01*
Y197283D01*
X168083Y196700D01*
X169249D01*
X169833Y197283D01*
X170999Y200199D02*
X173331D01*
Y199616D01*
X170999Y197283D01*
Y196700D01*
X173433Y172616D02*
X172849Y173199D01*
X171683D01*
X171100Y172616D01*
Y170283D01*
X171683Y169700D01*
X172849D01*
X173433Y170283D01*
X176931Y173199D02*
X175765Y172616D01*
X174599Y171449D01*
Y170283D01*
X175182Y169700D01*
X176348D01*
X176931Y170283D01*
Y170866D01*
X176348Y171449D01*
X174599D01*
X112233Y175016D02*
X111649Y175599D01*
X110483D01*
X109900Y175016D01*
Y172683D01*
X110483Y172100D01*
X111649D01*
X112233Y172683D01*
X115731Y175599D02*
X113399D01*
Y173849D01*
X114565Y174433D01*
X115148D01*
X115731Y173849D01*
Y172683D01*
X115148Y172100D01*
X113982D01*
X113399Y172683D01*
X153333Y255516D02*
X152749Y256099D01*
X151583D01*
X151000Y255516D01*
Y253183D01*
X151583Y252600D01*
X152749D01*
X153333Y253183D01*
X156248Y252600D02*
Y256099D01*
X154499Y254349D01*
X156831D01*
X40533Y263016D02*
X39949Y263599D01*
X38783D01*
X38200Y263016D01*
Y260683D01*
X38783Y260100D01*
X39949D01*
X40533Y260683D01*
X41699Y263016D02*
X42282Y263599D01*
X43448D01*
X44032Y263016D01*
Y262433D01*
X43448Y261849D01*
X42865D01*
X43448D01*
X44032Y261266D01*
Y260683D01*
X43448Y260100D01*
X42282D01*
X41699Y260683D01*
X124233Y90416D02*
X123649Y90999D01*
X122483D01*
X121900Y90416D01*
Y88083D01*
X122483Y87500D01*
X123649D01*
X124233Y88083D01*
X127731Y87500D02*
X125399D01*
X127731Y89833D01*
Y90416D01*
X127148Y90999D01*
X125982D01*
X125399Y90416D01*
X169133Y81416D02*
X168549Y81999D01*
X167383D01*
X166800Y81416D01*
Y79083D01*
X167383Y78500D01*
X168549D01*
X169133Y79083D01*
X170299Y78500D02*
X171465D01*
X170882D01*
Y81999D01*
X170299Y81416D01*
X148051Y115900D02*
Y118233D01*
X146301Y121731D02*
X146884Y120565D01*
X148051Y119399D01*
X149217D01*
X149800Y119982D01*
Y121148D01*
X149217Y121731D01*
X148634D01*
X148051Y121148D01*
Y119399D01*
X146884Y122898D02*
X146301Y123481D01*
Y124647D01*
X146884Y125230D01*
X149217D01*
X149800Y124647D01*
Y123481D01*
X149217Y122898D01*
X146884D01*
X148051Y126397D02*
Y128729D01*
X177451Y116400D02*
Y118733D01*
X175701Y122231D02*
X176284Y121065D01*
X177451Y119899D01*
X178617D01*
X179200Y120482D01*
Y121648D01*
X178617Y122231D01*
X178034D01*
X177451Y121648D01*
Y119899D01*
X179200Y123398D02*
Y124564D01*
Y123981D01*
X175701D01*
X176284Y123398D01*
X177451Y126313D02*
Y128646D01*
X61751Y150300D02*
Y152633D01*
X63500Y155548D02*
X60001D01*
X61751Y153799D01*
Y156131D01*
X60001Y159630D02*
X60584Y158464D01*
X61751Y157298D01*
X62917D01*
X63500Y157881D01*
Y159047D01*
X62917Y159630D01*
X62334D01*
X61751Y159047D01*
Y157298D01*
Y160797D02*
Y163129D01*
X72551Y150300D02*
Y152633D01*
X74300Y155548D02*
X70801D01*
X72551Y153799D01*
Y156131D01*
X70801Y157298D02*
Y159630D01*
X71384D01*
X73717Y157298D01*
X74300D01*
X72551Y160797D02*
Y163129D01*
X82551Y150700D02*
Y153033D01*
X84300Y155948D02*
X80801D01*
X82551Y154199D01*
Y156531D01*
X81384Y157698D02*
X80801Y158281D01*
Y159447D01*
X81384Y160030D01*
X81967D01*
X82551Y159447D01*
X83134Y160030D01*
X83717D01*
X84300Y159447D01*
Y158281D01*
X83717Y157698D01*
X83134D01*
X82551Y158281D01*
X81967Y157698D01*
X81384D01*
X82551Y158281D02*
Y159447D01*
Y161197D02*
Y163529D01*
X92551Y150700D02*
Y153033D01*
X94300Y155948D02*
X90801D01*
X92551Y154199D01*
Y156531D01*
X93717Y157698D02*
X94300Y158281D01*
Y159447D01*
X93717Y160030D01*
X91384D01*
X90801Y159447D01*
Y158281D01*
X91384Y157698D01*
X91967D01*
X92551Y158281D01*
Y160030D01*
Y161197D02*
Y163529D01*
X35100Y-94500D02*
Y-92167D01*
X36266Y-91001D01*
X37433Y-92167D01*
Y-94500D01*
Y-92751D01*
X35100D01*
X38599Y-91584D02*
X39182Y-91001D01*
X40348D01*
X40931Y-91584D01*
Y-93917D01*
X40348Y-94500D01*
X39182D01*
X38599Y-93917D01*
Y-91584D01*
X35100Y-104500D02*
Y-102167D01*
X36266Y-101001D01*
X37433Y-102167D01*
Y-104500D01*
Y-102751D01*
X35100D01*
X38599Y-104500D02*
X39765D01*
X39182D01*
Y-101001D01*
X38599Y-101584D01*
X35100Y-115000D02*
Y-112667D01*
X36266Y-111501D01*
X37433Y-112667D01*
Y-115000D01*
Y-113251D01*
X35100D01*
X40931Y-115000D02*
X38599D01*
X40931Y-112667D01*
Y-112084D01*
X40348Y-111501D01*
X39182D01*
X38599Y-112084D01*
X35100Y-124700D02*
Y-122367D01*
X36266Y-121201D01*
X37433Y-122367D01*
Y-124700D01*
Y-122951D01*
X35100D01*
X38599Y-121784D02*
X39182Y-121201D01*
X40348D01*
X40931Y-121784D01*
Y-122367D01*
X40348Y-122951D01*
X39765D01*
X40348D01*
X40931Y-123534D01*
Y-124117D01*
X40348Y-124700D01*
X39182D01*
X38599Y-124117D01*
X35100Y-135200D02*
Y-132867D01*
X36266Y-131701D01*
X37433Y-132867D01*
Y-135200D01*
Y-133451D01*
X35100D01*
X40348Y-135200D02*
Y-131701D01*
X38599Y-133451D01*
X40931D01*
X35100Y-145500D02*
Y-143167D01*
X36266Y-142001D01*
X37433Y-143167D01*
Y-145500D01*
Y-143751D01*
X35100D01*
X40931Y-142001D02*
X38599D01*
Y-143751D01*
X39765Y-143167D01*
X40348D01*
X40931Y-143751D01*
Y-144917D01*
X40348Y-145500D01*
X39182D01*
X38599Y-144917D01*
X22900Y74900D02*
Y77233D01*
X24066Y78399D01*
X25233Y77233D01*
Y74900D01*
Y76649D01*
X22900D01*
X26399Y77816D02*
X26982Y78399D01*
X28148D01*
X28732Y77816D01*
Y75483D01*
X28148Y74900D01*
X26982D01*
X26399Y75483D01*
Y77816D01*
X22900Y64900D02*
Y67233D01*
X24066Y68399D01*
X25233Y67233D01*
Y64900D01*
Y66649D01*
X22900D01*
X26399Y64900D02*
X27565D01*
X26982D01*
Y68399D01*
X26399Y67816D01*
X22900Y54400D02*
Y56733D01*
X24066Y57899D01*
X25233Y56733D01*
Y54400D01*
Y56149D01*
X22900D01*
X28732Y54400D02*
X26399D01*
X28732Y56733D01*
Y57316D01*
X28148Y57899D01*
X26982D01*
X26399Y57316D01*
X22900Y44700D02*
Y47033D01*
X24066Y48199D01*
X25233Y47033D01*
Y44700D01*
Y46449D01*
X22900D01*
X26399Y47616D02*
X26982Y48199D01*
X28148D01*
X28732Y47616D01*
Y47033D01*
X28148Y46449D01*
X27565D01*
X28148D01*
X28732Y45866D01*
Y45283D01*
X28148Y44700D01*
X26982D01*
X26399Y45283D01*
X22900Y34200D02*
Y36533D01*
X24066Y37699D01*
X25233Y36533D01*
Y34200D01*
Y35949D01*
X22900D01*
X28148Y34200D02*
Y37699D01*
X26399Y35949D01*
X28732D01*
X22900Y23900D02*
Y26233D01*
X24066Y27399D01*
X25233Y26233D01*
Y23900D01*
Y25649D01*
X22900D01*
X28732Y27399D02*
X26399D01*
Y25649D01*
X27565Y26233D01*
X28148D01*
X28732Y25649D01*
Y24483D01*
X28148Y23900D01*
X26982D01*
X26399Y24483D01*
X23000Y157799D02*
X24166D01*
X23583D01*
Y154300D01*
X23000D01*
X24166D01*
X27665Y157799D02*
X26499D01*
X25916Y157216D01*
Y154883D01*
X26499Y154300D01*
X27665D01*
X28248Y154883D01*
Y157216D01*
X27665Y157799D01*
X29415Y154300D02*
Y157799D01*
X31164D01*
X31747Y157216D01*
Y156049D01*
X31164Y155466D01*
X29415D01*
X30581D02*
X31747Y154300D01*
X35246Y157799D02*
X32914D01*
Y154300D01*
X35246D01*
X32914Y156049D02*
X34080D01*
X38745Y157799D02*
X36412D01*
Y156049D01*
X37579D01*
X36412D01*
Y154300D01*
X23000Y145000D02*
Y148499D01*
X24749D01*
X25333Y147916D01*
Y146749D01*
X24749Y146166D01*
X23000D01*
X24166D02*
X25333Y145000D01*
X28831Y147916D02*
X28248Y148499D01*
X27082D01*
X26499Y147916D01*
Y147333D01*
X27082Y146749D01*
X28248D01*
X28831Y146166D01*
Y145583D01*
X28248Y145000D01*
X27082D01*
X26499Y145583D01*
X29998Y148499D02*
X32330D01*
X31164D01*
Y145000D01*
X23000Y137716D02*
X23583Y138299D01*
X24749D01*
X25333Y137716D01*
Y137133D01*
X24749Y136549D01*
X24166D01*
X24749D01*
X25333Y135966D01*
Y135383D01*
X24749Y134800D01*
X23583D01*
X23000Y135383D01*
X26499Y134800D02*
Y135383D01*
X27082D01*
Y134800D01*
X26499D01*
X29415Y137716D02*
X29998Y138299D01*
X31164D01*
X31747Y137716D01*
Y137133D01*
X31164Y136549D01*
X30581D01*
X31164D01*
X31747Y135966D01*
Y135383D01*
X31164Y134800D01*
X29998D01*
X29415Y135383D01*
X32914Y138299D02*
Y135966D01*
X34080Y134800D01*
X35246Y135966D01*
Y138299D01*
X25333Y128099D02*
X23000D01*
Y126349D01*
X24166Y126933D01*
X24749D01*
X25333Y126349D01*
Y125183D01*
X24749Y124600D01*
X23583D01*
X23000Y125183D01*
X26499Y128099D02*
Y125766D01*
X27665Y124600D01*
X28831Y125766D01*
Y128099D01*
X25333Y118016D02*
X24749Y118599D01*
X23583D01*
X23000Y118016D01*
Y115683D01*
X23583Y115100D01*
X24749D01*
X25333Y115683D01*
Y116849D01*
X24166D01*
X26499Y115100D02*
Y118599D01*
X28831Y115100D01*
Y118599D01*
X29998D02*
Y115100D01*
X31747D01*
X32330Y115683D01*
Y118016D01*
X31747Y118599D01*
X29998D01*
X25333Y107716D02*
X24749Y108299D01*
X23583D01*
X23000Y107716D01*
Y105383D01*
X23583Y104800D01*
X24749D01*
X25333Y105383D01*
Y106549D01*
X24166D01*
X26499Y104800D02*
Y108299D01*
X28831Y104800D01*
Y108299D01*
X29998D02*
Y104800D01*
X31747D01*
X32330Y105383D01*
Y107716D01*
X31747Y108299D01*
X29998D01*
X23000Y97999D02*
Y95666D01*
X24166Y94500D01*
X25333Y95666D01*
Y97999D01*
X26499D02*
X27665D01*
X27082D01*
Y94500D01*
X26499D01*
X27665D01*
X29415D02*
Y97999D01*
X31747Y94500D01*
Y97999D01*
X221320Y-92284D02*
X221903Y-91701D01*
X223070D01*
X223653Y-91118D01*
X224819Y-92284D02*
X225402Y-91701D01*
X226569D01*
X227152Y-92284D01*
Y-92867D01*
X226569Y-93451D01*
X225985D01*
X226569D01*
X227152Y-94034D01*
Y-94617D01*
X226569Y-95200D01*
X225402D01*
X224819Y-94617D01*
X228318Y-95783D02*
X230651D01*
X234149Y-92284D02*
X233566Y-91701D01*
X232400D01*
X231817Y-92284D01*
Y-92867D01*
X232400Y-93451D01*
X233566D01*
X234149Y-94034D01*
Y-94617D01*
X233566Y-95200D01*
X232400D01*
X231817Y-94617D01*
X237648Y-92284D02*
X237065Y-91701D01*
X235899D01*
X235316Y-92284D01*
Y-94617D01*
X235899Y-95200D01*
X237065D01*
X237648Y-94617D01*
X238815Y-91701D02*
Y-95200D01*
X241147D01*
X227152Y-105200D02*
X224819D01*
X227152Y-102867D01*
Y-102284D01*
X226569Y-101701D01*
X225402D01*
X224819Y-102284D01*
X228318Y-105783D02*
X230651D01*
X234149Y-102284D02*
X233566Y-101701D01*
X232400D01*
X231817Y-102284D01*
Y-102867D01*
X232400Y-103451D01*
X233566D01*
X234149Y-104034D01*
Y-104617D01*
X233566Y-105200D01*
X232400D01*
X231817Y-104617D01*
X235316Y-101701D02*
Y-105200D01*
X237065D01*
X237648Y-104617D01*
Y-102284D01*
X237065Y-101701D01*
X235316D01*
X238815Y-105200D02*
Y-102867D01*
X239981Y-101701D01*
X241147Y-102867D01*
Y-105200D01*
Y-103451D01*
X238815D01*
X228318Y-115700D02*
Y-113367D01*
X229484Y-112201D01*
X230651Y-113367D01*
Y-115700D01*
Y-113951D01*
X228318D01*
X231817Y-115700D02*
Y-112201D01*
X233566D01*
X234149Y-112784D01*
Y-113951D01*
X233566Y-114534D01*
X231817D01*
X232983D02*
X234149Y-115700D01*
X237648Y-112201D02*
X235316D01*
Y-115700D01*
X237648D01*
X235316Y-113951D02*
X236482D01*
X241147Y-112201D02*
X238815D01*
Y-113951D01*
X239981D01*
X238815D01*
Y-115700D01*
X234149Y-123284D02*
X233566Y-122701D01*
X232400D01*
X231817Y-123284D01*
Y-125617D01*
X232400Y-126200D01*
X233566D01*
X234149Y-125617D01*
Y-124451D01*
X232983D01*
X235316Y-126200D02*
Y-122701D01*
X237648Y-126200D01*
Y-122701D01*
X238815D02*
Y-126200D01*
X240564D01*
X241147Y-125617D01*
Y-123284D01*
X240564Y-122701D01*
X238815D01*
X232400Y-132284D02*
X232983Y-131701D01*
X234149D01*
X234733Y-131118D01*
X235899Y-135200D02*
X237065D01*
X236482D01*
Y-131701D01*
X235899Y-132284D01*
X238815D02*
X239398Y-131701D01*
X240564D01*
X241147Y-132284D01*
Y-132867D01*
X240564Y-133451D01*
X239981D01*
X240564D01*
X241147Y-134034D01*
Y-134617D01*
X240564Y-135200D01*
X239398D01*
X238815Y-134617D01*
X235899Y-146000D02*
X237065D01*
X236482D01*
Y-142501D01*
X235899Y-143084D01*
X241147Y-146000D02*
X238815D01*
X241147Y-143667D01*
Y-143084D01*
X240564Y-142501D01*
X239398D01*
X238815Y-143084D01*
X233566Y-152484D02*
X234149Y-151901D01*
X235316D01*
X235899Y-151318D01*
X237065Y-155400D02*
X238231D01*
X237648D01*
Y-151901D01*
X237065Y-152484D01*
X239981Y-155400D02*
X241147D01*
X240564D01*
Y-151901D01*
X239981Y-152484D01*
X232400Y-162184D02*
X232983Y-161601D01*
X234149D01*
X234733Y-161018D01*
X235899Y-165100D02*
X237065D01*
X236482D01*
Y-161601D01*
X235899Y-162184D01*
X238815D02*
X239398Y-161601D01*
X240564D01*
X241147Y-162184D01*
Y-164517D01*
X240564Y-165100D01*
X239398D01*
X238815Y-164517D01*
Y-162184D01*
X235316Y-172284D02*
X235899Y-171701D01*
X237065D01*
X237648Y-171118D01*
X238815Y-174617D02*
X239398Y-175200D01*
X240564D01*
X241147Y-174617D01*
Y-172284D01*
X240564Y-171701D01*
X239398D01*
X238815Y-172284D01*
Y-172867D01*
X239398Y-173451D01*
X241147D01*
X238815Y-182284D02*
X239398Y-181701D01*
X240564D01*
X241147Y-182284D01*
Y-182867D01*
X240564Y-183451D01*
X241147Y-184034D01*
Y-184617D01*
X240564Y-185200D01*
X239398D01*
X238815Y-184617D01*
Y-184034D01*
X239398Y-183451D01*
X238815Y-182867D01*
Y-182284D01*
X239398Y-183451D02*
X240564D01*
X177300Y208816D02*
X177883Y209399D01*
X179049D01*
X179633Y209982D01*
X180799Y208816D02*
X181382Y209399D01*
X182548D01*
X183131Y208816D01*
Y208233D01*
X182548Y207649D01*
X181965D01*
X182548D01*
X183131Y207066D01*
Y206483D01*
X182548Y205900D01*
X181382D01*
X180799Y206483D01*
X184298Y205317D02*
X186630D01*
X190129Y208816D02*
X189546Y209399D01*
X188380D01*
X187797Y208816D01*
Y208233D01*
X188380Y207649D01*
X189546D01*
X190129Y207066D01*
Y206483D01*
X189546Y205900D01*
X188380D01*
X187797Y206483D01*
X193628Y208816D02*
X193045Y209399D01*
X191879D01*
X191296Y208816D01*
Y206483D01*
X191879Y205900D01*
X193045D01*
X193628Y206483D01*
X194794Y209399D02*
Y205900D01*
X197127D01*
X182533Y187900D02*
X180200D01*
X182533Y190233D01*
Y190816D01*
X181949Y191399D01*
X180783D01*
X180200Y190816D01*
X183699Y187317D02*
X186031D01*
X189530Y190816D02*
X188947Y191399D01*
X187781D01*
X187198Y190816D01*
Y190233D01*
X187781Y189649D01*
X188947D01*
X189530Y189066D01*
Y188483D01*
X188947Y187900D01*
X187781D01*
X187198Y188483D01*
X190697Y191399D02*
Y187900D01*
X192446D01*
X193029Y188483D01*
Y190816D01*
X192446Y191399D01*
X190697D01*
X194195Y187900D02*
Y190233D01*
X195362Y191399D01*
X196528Y190233D01*
Y187900D01*
Y189649D01*
X194195D01*
X180618Y180400D02*
Y182733D01*
X181784Y183899D01*
X182951Y182733D01*
Y180400D01*
Y182149D01*
X180618D01*
X184117Y180400D02*
Y183899D01*
X185866D01*
X186449Y183316D01*
Y182149D01*
X185866Y181566D01*
X184117D01*
X185283D02*
X186449Y180400D01*
X189948Y183899D02*
X187616D01*
Y180400D01*
X189948D01*
X187616Y182149D02*
X188782D01*
X193447Y183899D02*
X191115D01*
Y182149D01*
X192281D01*
X191115D01*
Y180400D01*
X186449Y172816D02*
X185866Y173399D01*
X184700D01*
X184117Y172816D01*
Y170483D01*
X184700Y169900D01*
X185866D01*
X186449Y170483D01*
Y171649D01*
X185283D01*
X187616Y169900D02*
Y173399D01*
X189948Y169900D01*
Y173399D01*
X191115D02*
Y169900D01*
X192864D01*
X193447Y170483D01*
Y172816D01*
X192864Y173399D01*
X191115D01*
X184700Y163816D02*
X185283Y164399D01*
X186449D01*
X187033Y164982D01*
X188199Y160900D02*
X189365D01*
X188782D01*
Y164399D01*
X188199Y163816D01*
X191115D02*
X191698Y164399D01*
X192864D01*
X193447Y163816D01*
Y163233D01*
X192864Y162649D01*
X192281D01*
X192864D01*
X193447Y162066D01*
Y161483D01*
X192864Y160900D01*
X191698D01*
X191115Y161483D01*
X188199Y150100D02*
X189365D01*
X188782D01*
Y153599D01*
X188199Y153016D01*
X193447Y150100D02*
X191115D01*
X193447Y152433D01*
Y153016D01*
X192864Y153599D01*
X191698D01*
X191115Y153016D01*
X185866Y143616D02*
X186449Y144199D01*
X187616D01*
X188199Y144782D01*
X189365Y140700D02*
X190531D01*
X189948D01*
Y144199D01*
X189365Y143616D01*
X192281Y140700D02*
X193447D01*
X192864D01*
Y144199D01*
X192281Y143616D01*
X184700Y133916D02*
X185283Y134499D01*
X186449D01*
X187033Y135082D01*
X188199Y131000D02*
X189365D01*
X188782D01*
Y134499D01*
X188199Y133916D01*
X191115D02*
X191698Y134499D01*
X192864D01*
X193447Y133916D01*
Y131583D01*
X192864Y131000D01*
X191698D01*
X191115Y131583D01*
Y133916D01*
X187616Y123816D02*
X188199Y124399D01*
X189365D01*
X189948Y124982D01*
X191115Y121483D02*
X191698Y120900D01*
X192864D01*
X193447Y121483D01*
Y123816D01*
X192864Y124399D01*
X191698D01*
X191115Y123816D01*
Y123233D01*
X191698Y122649D01*
X193447D01*
X191115Y113816D02*
X191698Y114399D01*
X192864D01*
X193447Y113816D01*
Y113233D01*
X192864Y112649D01*
X193447Y112066D01*
Y111483D01*
X192864Y110900D01*
X191698D01*
X191115Y111483D01*
Y112066D01*
X191698Y112649D01*
X191115Y113233D01*
Y113816D01*
X191698Y112649D02*
X192864D01*
X193300Y99199D02*
X195633D01*
Y98616D01*
X193300Y96283D01*
Y95700D01*
X189801Y87916D02*
X190384Y88499D01*
X191551D01*
X192134Y89082D01*
X195633Y88499D02*
X194466Y87916D01*
X193300Y86749D01*
Y85583D01*
X193883Y85000D01*
X195049D01*
X195633Y85583D01*
Y86166D01*
X195049Y86749D01*
X193300D01*
X189801Y78016D02*
X190384Y78599D01*
X191551D01*
X192134Y79182D01*
X195633Y78599D02*
X193300D01*
Y76849D01*
X194466Y77433D01*
X195049D01*
X195633Y76849D01*
Y75683D01*
X195049Y75100D01*
X193883D01*
X193300Y75683D01*
X195049Y64800D02*
Y68299D01*
X193300Y66549D01*
X195633D01*
X189801Y57616D02*
X190384Y58199D01*
X191551D01*
X192134Y58782D01*
X193300Y57616D02*
X193883Y58199D01*
X195049D01*
X195633Y57616D01*
Y57033D01*
X195049Y56449D01*
X194466D01*
X195049D01*
X195633Y55866D01*
Y55283D01*
X195049Y54700D01*
X193883D01*
X193300Y55283D01*
X195633Y45000D02*
X193300D01*
X195633Y47333D01*
Y47916D01*
X195049Y48499D01*
X193883D01*
X193300Y47916D01*
X183970Y39199D02*
X186302D01*
X185136D01*
Y35700D01*
X187469Y39199D02*
X189801Y35700D01*
Y39199D02*
X187469Y35700D01*
X190967D02*
X193300Y38033D01*
X194466Y35700D02*
X195633D01*
X195049D01*
Y39199D01*
X194466Y38616D01*
X182803Y24400D02*
Y27899D01*
X184553D01*
X185136Y27316D01*
Y26149D01*
X184553Y25566D01*
X182803D01*
X183970D02*
X185136Y24400D01*
X186302Y27899D02*
X188635Y24400D01*
Y27899D02*
X186302Y24400D01*
X189801D02*
X192134Y26733D01*
X193300Y27316D02*
X193883Y27899D01*
X195049D01*
X195633Y27316D01*
Y24983D01*
X195049Y24400D01*
X193883D01*
X193300Y24983D01*
Y27316D01*
X121384Y31033D02*
X120801Y30449D01*
Y29283D01*
X121384Y28700D01*
X123717D01*
X124300Y29283D01*
Y30449D01*
X123717Y31033D01*
X120801Y32199D02*
X124300D01*
X122551D01*
Y34532D01*
X120801D01*
X124300D01*
Y38030D02*
Y35698D01*
X121967Y38030D01*
X121384D01*
X120801Y37447D01*
Y36281D01*
X121384Y35698D01*
X111384Y31033D02*
X110801Y30449D01*
Y29283D01*
X111384Y28700D01*
X113717D01*
X114300Y29283D01*
Y30449D01*
X113717Y31033D01*
X110801Y32199D02*
X114300D01*
X112551D01*
Y34532D01*
X110801D01*
X114300D01*
X111384Y35698D02*
X110801Y36281D01*
Y37447D01*
X111384Y38030D01*
X111967D01*
X112551Y37447D01*
Y36864D01*
Y37447D01*
X113134Y38030D01*
X113717D01*
X114300Y37447D01*
Y36281D01*
X113717Y35698D01*
X101384Y31033D02*
X100801Y30449D01*
Y29283D01*
X101384Y28700D01*
X103717D01*
X104300Y29283D01*
Y30449D01*
X103717Y31033D01*
X100801Y32199D02*
X104300D01*
X102551D01*
Y34532D01*
X100801D01*
X104300D01*
Y35698D02*
Y36864D01*
Y36281D01*
X100801D01*
X101384Y35698D01*
X90584Y31033D02*
X90001Y30449D01*
Y29283D01*
X90584Y28700D01*
X92917D01*
X93500Y29283D01*
Y30449D01*
X92917Y31033D01*
X90001Y32199D02*
X93500D01*
X91751D01*
Y34532D01*
X90001D01*
X93500D01*
X90584Y35698D02*
X90001Y36281D01*
Y37447D01*
X90584Y38030D01*
X92917D01*
X93500Y37447D01*
Y36281D01*
X92917Y35698D01*
X90584D01*
X76633Y11916D02*
X76049Y12499D01*
X74883D01*
X74300Y11916D01*
Y9583D01*
X74883Y9000D01*
X76049D01*
X76633Y9583D01*
Y10749D01*
X75466D01*
X77799Y9000D02*
Y12499D01*
X80131Y9000D01*
Y12499D01*
X81298D02*
Y9000D01*
X83047D01*
X83630Y9583D01*
Y11916D01*
X83047Y12499D01*
X81298D01*
X139401Y18600D02*
X141734D01*
X142900Y19766D01*
X141734Y20933D01*
X139401D01*
Y23848D02*
Y22682D01*
X139984Y22099D01*
X142317D01*
X142900Y22682D01*
Y23848D01*
X142317Y24431D01*
X139984D01*
X139401Y23848D01*
Y25598D02*
X142317D01*
X142900Y26181D01*
Y27347D01*
X142317Y27930D01*
X139401D01*
Y29097D02*
Y31429D01*
Y30263D01*
X142900D01*
X66433Y118999D02*
X64100D01*
Y115500D01*
X66433D01*
X64100Y117249D02*
X65266D01*
X67599Y118999D02*
X69931Y115500D01*
Y118999D02*
X67599Y115500D01*
X71098Y118999D02*
X73430D01*
X72264D01*
Y115500D01*
X85093Y118999D02*
Y115500D01*
X86843D01*
X87426Y116083D01*
Y118416D01*
X86843Y118999D01*
X85093D01*
X90342Y115500D02*
Y118999D01*
X88592Y117249D01*
X90925D01*
X50900Y83300D02*
Y86799D01*
X52066Y85633D01*
X53233Y86799D01*
Y83300D01*
X54399Y86799D02*
X55565D01*
X54982D01*
Y83300D01*
X54399D01*
X55565D01*
X59647Y86216D02*
X59064Y86799D01*
X57898D01*
X57315Y86216D01*
Y85633D01*
X57898Y85049D01*
X59064D01*
X59647Y84466D01*
Y83883D01*
X59064Y83300D01*
X57898D01*
X57315Y83883D01*
X62563Y86799D02*
X61397D01*
X60813Y86216D01*
Y83883D01*
X61397Y83300D01*
X62563D01*
X63146Y83883D01*
Y86216D01*
X62563Y86799D01*
X53033Y107516D02*
X52449Y108099D01*
X51283D01*
X50700Y107516D01*
Y106933D01*
X51283Y106349D01*
X52449D01*
X53033Y105766D01*
Y105183D01*
X52449Y104600D01*
X51283D01*
X50700Y105183D01*
X56531Y107516D02*
X55948Y108099D01*
X54782D01*
X54199Y107516D01*
Y105183D01*
X54782Y104600D01*
X55948D01*
X56531Y105183D01*
X57698Y108099D02*
Y104600D01*
Y105766D01*
X60030Y108099D01*
X58281Y106349D01*
X60030Y104600D01*
X51300Y93700D02*
Y97199D01*
X52466Y96033D01*
X53633Y97199D01*
Y93700D01*
X56548Y97199D02*
X55382D01*
X54799Y96616D01*
Y94283D01*
X55382Y93700D01*
X56548D01*
X57131Y94283D01*
Y96616D01*
X56548Y97199D01*
X60630Y96616D02*
X60047Y97199D01*
X58881D01*
X58298Y96616D01*
Y96033D01*
X58881Y95449D01*
X60047D01*
X60630Y94866D01*
Y94283D01*
X60047Y93700D01*
X58881D01*
X58298Y94283D01*
X61797Y97199D02*
X62963D01*
X62380D01*
Y93700D01*
X61797D01*
X62963D01*
X23300Y205199D02*
X24466D01*
X23883D01*
Y201700D01*
X23300D01*
X24466D01*
X27965Y205199D02*
X26799D01*
X26216Y204616D01*
Y202283D01*
X26799Y201700D01*
X27965D01*
X28548Y202283D01*
Y204616D01*
X27965Y205199D01*
X29715Y204616D02*
X30298Y205199D01*
X31464D01*
X32047Y204616D01*
Y202283D01*
X31464Y201700D01*
X30298D01*
X29715Y202283D01*
Y204616D01*
X23300Y215499D02*
X24466D01*
X23883D01*
Y212000D01*
X23300D01*
X24466D01*
X27965Y215499D02*
X26799D01*
X26216Y214916D01*
Y212583D01*
X26799Y212000D01*
X27965D01*
X28548Y212583D01*
Y214916D01*
X27965Y215499D01*
X32047Y212000D02*
X29715D01*
X32047Y214333D01*
Y214916D01*
X31464Y215499D01*
X30298D01*
X29715Y214916D01*
X23300Y225999D02*
X24466D01*
X23883D01*
Y222500D01*
X23300D01*
X24466D01*
X27965Y225999D02*
X26799D01*
X26216Y225416D01*
Y223083D01*
X26799Y222500D01*
X27965D01*
X28548Y223083D01*
Y225416D01*
X27965Y225999D01*
X29715Y222500D02*
X30881D01*
X30298D01*
Y225999D01*
X29715Y225416D01*
X34963Y225999D02*
X32630D01*
Y224249D01*
X33797Y224833D01*
X34380D01*
X34963Y224249D01*
Y223083D01*
X34380Y222500D01*
X33213D01*
X32630Y223083D01*
X23300Y235699D02*
X24466D01*
X23883D01*
Y232200D01*
X23300D01*
X24466D01*
X27965Y235699D02*
X26799D01*
X26216Y235116D01*
Y232783D01*
X26799Y232200D01*
X27965D01*
X28548Y232783D01*
Y235116D01*
X27965Y235699D01*
X29715Y232200D02*
X30881D01*
X30298D01*
Y235699D01*
X29715Y235116D01*
X32630D02*
X33213Y235699D01*
X34380D01*
X34963Y235116D01*
Y234533D01*
X34380Y233949D01*
X33797D01*
X34380D01*
X34963Y233366D01*
Y232783D01*
X34380Y232200D01*
X33213D01*
X32630Y232783D01*
X23300Y246199D02*
X24466D01*
X23883D01*
Y242700D01*
X23300D01*
X24466D01*
X27965Y246199D02*
X26799D01*
X26216Y245616D01*
Y243283D01*
X26799Y242700D01*
X27965D01*
X28548Y243283D01*
Y245616D01*
X27965Y246199D01*
X29715Y242700D02*
X30881D01*
X30298D01*
Y246199D01*
X29715Y245616D01*
X34963Y242700D02*
X32630D01*
X34963Y245033D01*
Y245616D01*
X34380Y246199D01*
X33213D01*
X32630Y245616D01*
X23300Y256199D02*
X24466D01*
X23883D01*
Y252700D01*
X23300D01*
X24466D01*
X27965Y256199D02*
X26799D01*
X26216Y255616D01*
Y253283D01*
X26799Y252700D01*
X27965D01*
X28548Y253283D01*
Y255616D01*
X27965Y256199D01*
X29715Y252700D02*
X30881D01*
X30298D01*
Y256199D01*
X29715Y255616D01*
X34380Y252700D02*
Y256199D01*
X32630Y254449D01*
X34963D01*
X192000Y234200D02*
Y236533D01*
X193166Y237699D01*
X194333Y236533D01*
Y234200D01*
Y235949D01*
X192000D01*
X197831Y234200D02*
X195499D01*
X197831Y236533D01*
Y237116D01*
X197248Y237699D01*
X196082D01*
X195499Y237116D01*
X193166Y244700D02*
Y247033D01*
X194333Y248199D01*
X195499Y247033D01*
Y244700D01*
Y246449D01*
X193166D01*
X196665Y244700D02*
X197831D01*
X197248D01*
Y248199D01*
X196665Y247616D01*
X192000Y254700D02*
Y257033D01*
X193166Y258199D01*
X194333Y257033D01*
Y254700D01*
Y256449D01*
X192000D01*
X195499Y257616D02*
X196082Y258199D01*
X197248D01*
X197831Y257616D01*
Y255283D01*
X197248Y254700D01*
X196082D01*
X195499Y255283D01*
Y257616D01*
X214200Y100000D02*
Y103499D01*
X216533Y100000D01*
Y103499D01*
X220031D02*
X217699D01*
Y100000D01*
X220031D01*
X217699Y101749D02*
X218865D01*
X222947Y103499D02*
X221781D01*
X221198Y102916D01*
Y100583D01*
X221781Y100000D01*
X222947D01*
X223530Y100583D01*
Y102916D01*
X222947Y103499D01*
X224697Y100000D02*
Y103499D01*
X226446D01*
X227029Y102916D01*
Y101749D01*
X226446Y101166D01*
X224697D01*
X228196Y103499D02*
X229362D01*
X228779D01*
Y100000D01*
X228196D01*
X229362D01*
X231111Y103499D02*
X233444Y100000D01*
Y103499D02*
X231111Y100000D01*
X236943Y103499D02*
X234610D01*
Y100000D01*
X236943D01*
X234610Y101749D02*
X235776D01*
X238109Y103499D02*
Y100000D01*
X240441D01*
X243940Y102916D02*
X243357Y103499D01*
X242191D01*
X241608Y102916D01*
Y102333D01*
X242191Y101749D01*
X243357D01*
X243940Y101166D01*
Y100583D01*
X243357Y100000D01*
X242191D01*
X241608Y100583D01*
D34*
X140700Y68200D02*
Y69200D01*
Y65800D02*
Y68200D01*
Y64800D02*
Y65800D01*
D35*
X162066Y223032D02*
X161399Y223699D01*
X160066D01*
X159400Y223032D01*
Y222366D01*
X160066Y221699D01*
X161399D01*
X162066Y221033D01*
Y220366D01*
X161399Y219700D01*
X160066D01*
X159400Y220366D01*
X163399Y223699D02*
Y219700D01*
Y221033D01*
X166065Y223699D01*
X164065Y221699D01*
X166065Y219700D01*
X169397Y223699D02*
X168064D01*
X167397Y223032D01*
Y220366D01*
X168064Y219700D01*
X169397D01*
X170063Y220366D01*
Y223032D01*
X169397Y223699D01*
X175395D02*
Y219700D01*
X177394D01*
X178061Y220366D01*
Y221033D01*
X177394Y221699D01*
X175395D01*
X177394D01*
X178061Y222366D01*
Y223032D01*
X177394Y223699D01*
X175395D01*
X179394D02*
Y220366D01*
X180060Y219700D01*
X181393D01*
X182059Y220366D01*
Y223699D01*
X186058D02*
X183392D01*
Y221699D01*
X184725D01*
X183392D01*
Y219700D01*
X190057Y223699D02*
X187391D01*
Y221699D01*
X188724D01*
X187391D01*
Y219700D01*
X194055Y223032D02*
X193389Y223699D01*
X192056D01*
X191390Y223032D01*
Y222366D01*
X192056Y221699D01*
X193389D01*
X194055Y221033D01*
Y220366D01*
X193389Y219700D01*
X192056D01*
X191390Y220366D01*
X199387Y221033D02*
Y224365D01*
Y220366D02*
Y219700D01*
X200720Y221033D02*
Y224365D01*
Y220366D02*
Y219700D01*
X202053Y221033D02*
Y224365D01*
Y220366D02*
Y219700D01*
X107500Y124068D02*
Y126734D01*
X108833Y128067D01*
X110166Y126734D01*
Y124068D01*
Y126068D01*
X107500D01*
X111499Y128067D02*
Y124068D01*
X113498D01*
X114164Y124735D01*
Y127401D01*
X113498Y128067D01*
X111499D01*
X118163Y127401D02*
X117497Y128067D01*
X116164D01*
X115497Y127401D01*
Y124735D01*
X116164Y124068D01*
X117497D01*
X118163Y124735D01*
X120163Y123402D02*
X120829Y124068D01*
Y124735D01*
X120163D01*
Y124068D01*
X120829D01*
X120163Y123402D01*
X119496Y122735D01*
X127494Y128067D02*
Y124068D01*
X129493D01*
X130159Y124735D01*
Y127401D01*
X129493Y128067D01*
X127494D01*
X131492Y124068D02*
Y126734D01*
X132825Y128067D01*
X134158Y126734D01*
Y124068D01*
Y126068D01*
X131492D01*
X138157Y127401D02*
X137490Y128067D01*
X136157D01*
X135491Y127401D01*
Y124735D01*
X136157Y124068D01*
X137490D01*
X138157Y124735D01*
X107500Y121589D02*
Y117590D01*
X108833Y118923D01*
X110166Y117590D01*
Y121589D01*
X111499Y117590D02*
X112832D01*
X112165D01*
Y120256D01*
X111499D01*
X117497Y121589D02*
X114831D01*
Y119589D01*
X116164D01*
X114831D01*
Y117590D01*
X118830D02*
X120163D01*
X119496D01*
Y120256D01*
X118830D01*
X107500Y111111D02*
Y115110D01*
X110166Y111111D01*
Y115110D01*
X113498Y111111D02*
X112165D01*
X111499Y111778D01*
Y113111D01*
X112165Y113777D01*
X113498D01*
X114164Y113111D01*
Y112444D01*
X111499D01*
X116164Y111111D02*
X117497D01*
X118163Y111778D01*
Y113111D01*
X117497Y113777D01*
X116164D01*
X115497Y113111D01*
Y111778D01*
X116164Y111111D01*
X119496Y109778D02*
Y113777D01*
X121495D01*
X122162Y113111D01*
Y111778D01*
X121495Y111111D01*
X119496D01*
X123495D02*
X124828D01*
X124161D01*
Y113777D01*
X123495D01*
X126827D02*
X129493Y111111D01*
X128160Y112444D01*
X129493Y113777D01*
X126827Y111111D01*
X132825D02*
X131492D01*
X130826Y111778D01*
Y113111D01*
X131492Y113777D01*
X132825D01*
X133492Y113111D01*
Y112444D01*
X130826D01*
X134825Y111111D02*
X136157D01*
X135491D01*
Y115110D01*
X134825D01*
X110166Y106632D02*
X109499Y107299D01*
X108167D01*
X107500Y106632D01*
Y105966D01*
X108167Y105299D01*
X109499D01*
X110166Y104633D01*
Y103966D01*
X109499Y103300D01*
X108167D01*
X107500Y103966D01*
X111499Y107299D02*
Y103300D01*
Y105299D01*
X112165Y105966D01*
X113498D01*
X114164Y105299D01*
Y103300D01*
X115497D02*
X116830D01*
X116164D01*
Y105966D01*
X115497D01*
X120829Y103300D02*
X119496D01*
X118830Y103966D01*
Y105299D01*
X119496Y105966D01*
X120829D01*
X121495Y105299D01*
Y104633D01*
X118830D01*
X122828Y103300D02*
X124161D01*
X123495D01*
Y107299D01*
X122828D01*
X128826D02*
Y103300D01*
X126827D01*
X126161Y103966D01*
Y105299D01*
X126827Y105966D01*
X128826D01*
M02*
