G04 Layer_Physical_Order=2*
G04 Layer_Color=32768*
%FSLAX25Y25*%
%MOIN*%
G70*
G01*
G75*
%ADD20C,0.01000*%
%ADD25C,0.04000*%
%ADD26C,0.07543*%
G04:AMPARAMS|DCode=27|XSize=95.433mil|YSize=95.433mil|CornerRadius=0mil|HoleSize=0mil|Usage=FLASHONLY|Rotation=0.000|XOffset=0mil|YOffset=0mil|HoleType=Round|Shape=Relief|Width=10mil|Gap=10mil|Entries=4|*
%AMTHD27*
7,0,0,0.09543,0.07543,0.01000,45*
%
%ADD27THD27*%
G04:AMPARAMS|DCode=28|XSize=73mil|YSize=73mil|CornerRadius=0mil|HoleSize=0mil|Usage=FLASHONLY|Rotation=0.000|XOffset=0mil|YOffset=0mil|HoleType=Round|Shape=Relief|Width=10mil|Gap=10mil|Entries=4|*
%AMTHD28*
7,0,0,0.07300,0.05300,0.01000,45*
%
%ADD28THD28*%
%ADD29C,0.05300*%
D20*
X100Y100D02*
Y273200D01*
Y100D02*
X200Y0D01*
X250000D01*
X100Y273200D02*
X250000D01*
Y0D02*
Y273200D01*
D25*
X0Y-0D02*
Y273300D01*
X250100D01*
X250100Y-0D02*
X250100Y273300D01*
X0Y-0D02*
X250100Y-0D01*
D26*
X44000Y85900D02*
D03*
Y95900D02*
D03*
Y105900D02*
D03*
X14900Y26700D02*
D03*
Y36700D02*
D03*
Y46700D02*
D03*
Y56700D02*
D03*
Y66700D02*
D03*
Y76700D02*
D03*
X204900Y26700D02*
D03*
Y36700D02*
D03*
Y46700D02*
D03*
Y56700D02*
D03*
Y66700D02*
D03*
Y76700D02*
D03*
Y86700D02*
D03*
Y96700D02*
D03*
Y132700D02*
D03*
Y202700D02*
D03*
Y192700D02*
D03*
Y182700D02*
D03*
Y172700D02*
D03*
Y162700D02*
D03*
Y152700D02*
D03*
Y122700D02*
D03*
Y112700D02*
D03*
X14900Y96700D02*
D03*
Y106700D02*
D03*
Y116700D02*
D03*
Y126700D02*
D03*
Y136700D02*
D03*
Y166700D02*
D03*
X15200Y253500D02*
D03*
Y243500D02*
D03*
Y233500D02*
D03*
Y223500D02*
D03*
Y213500D02*
D03*
Y203500D02*
D03*
X167800Y127400D02*
D03*
Y117400D02*
D03*
X157800Y127400D02*
D03*
X205300Y256900D02*
D03*
Y246900D02*
D03*
Y236900D02*
D03*
X168600Y35100D02*
D03*
X48600D02*
D03*
X121600Y21700D02*
D03*
X111600D02*
D03*
X101600D02*
D03*
X91600D02*
D03*
X142400Y11400D02*
D03*
X52800Y12000D02*
D03*
X67400Y108800D02*
D03*
X77400D02*
D03*
X87400D02*
D03*
X92600Y143100D02*
D03*
Y133100D02*
D03*
X82600Y143100D02*
D03*
Y133100D02*
D03*
X72600Y143100D02*
D03*
Y133100D02*
D03*
X62600Y143100D02*
D03*
X88600Y198800D02*
D03*
X158600D02*
D03*
X148600D02*
D03*
X138600D02*
D03*
X128600D02*
D03*
X118600D02*
D03*
X108600D02*
D03*
X98600D02*
D03*
X78600D02*
D03*
X168600Y185100D02*
D03*
X158600D02*
D03*
X148600D02*
D03*
X138600D02*
D03*
X128600D02*
D03*
X98600D02*
D03*
X88600D02*
D03*
X78600D02*
D03*
X68600D02*
D03*
X58600D02*
D03*
D27*
X204900Y142700D02*
D03*
X14900Y146700D02*
D03*
Y156700D02*
D03*
X157800Y117400D02*
D03*
X158600Y35100D02*
D03*
X58600D02*
D03*
X121600Y11700D02*
D03*
X111600D02*
D03*
X101600D02*
D03*
X91600D02*
D03*
X152400Y11400D02*
D03*
X62800Y12000D02*
D03*
X62600Y133100D02*
D03*
X68600Y198800D02*
D03*
X118600Y185100D02*
D03*
X108600D02*
D03*
X48600D02*
D03*
D28*
X223481Y266797D02*
D03*
Y219203D02*
D03*
X153285Y267597D02*
D03*
X145983Y265791D02*
D03*
X136636Y236264D02*
D03*
X110237Y250219D02*
D03*
X75964Y218547D02*
D03*
X215852Y92599D02*
D03*
X215752Y60399D02*
D03*
Y27999D02*
D03*
X146800Y57550D02*
D03*
X72200Y69100D02*
D03*
D29*
X49700Y59630D02*
D03*
X174500Y90300D02*
D03*
X150500Y76450D02*
D03*
X109900Y75000D02*
D03*
X100300Y105400D02*
D03*
X101470Y112370D02*
D03*
X190900Y76700D02*
D03*
X66600Y224500D02*
D03*
X104900Y178700D02*
D03*
X66600Y248100D02*
D03*
X136600Y259900D02*
D03*
X76000Y242169D02*
D03*
Y230400D02*
D03*
Y254000D02*
D03*
X66600Y236264D02*
D03*
X146000Y218547D02*
D03*
X108000Y61185D02*
D03*
X184700Y62800D02*
D03*
X229985Y187653D02*
D03*
X92800Y75800D02*
D03*
X137000Y61600D02*
D03*
X105100Y69378D02*
D03*
X156300Y66900D02*
D03*
M02*
