G04 Layer_Color=8388736*
%FSLAX25Y25*%
%MOIN*%
G70*
G01*
G75*
%ADD21C,0.01000*%
%ADD36R,0.05131X0.07493*%
%ADD37R,0.06706X0.06706*%
%ADD38R,0.07493X0.05131*%
%ADD39R,0.06706X0.04737*%
%ADD40R,0.06233X0.09068*%
%ADD41R,0.06647X0.04343*%
%ADD42R,0.16548X0.16548*%
%ADD43R,0.03000X0.06000*%
%ADD44R,0.06509X0.01981*%
%ADD45R,0.06587X0.01981*%
%ADD46C,0.06706*%
%ADD47R,0.06706X0.06706*%
%ADD48C,0.03300*%
D21*
X-100Y0D02*
X266200D01*
X-100D02*
Y273200D01*
X266200D01*
Y0D02*
Y273200D01*
D36*
X40515Y187200D02*
D03*
X29885D02*
D03*
X180115Y262500D02*
D03*
X169485D02*
D03*
X65385Y261500D02*
D03*
X76015D02*
D03*
X75815Y250700D02*
D03*
X65185D02*
D03*
X97985Y87900D02*
D03*
X108615D02*
D03*
X170385Y171900D02*
D03*
X181015D02*
D03*
X191615Y215300D02*
D03*
X180985D02*
D03*
X110470Y173600D02*
D03*
X121100D02*
D03*
X246185Y212400D02*
D03*
X256815D02*
D03*
D37*
X12100Y181210D02*
D03*
Y194990D02*
D03*
Y237510D02*
D03*
Y251290D02*
D03*
Y141900D02*
D03*
Y103500D02*
D03*
X60200Y85900D02*
D03*
X31100Y76700D02*
D03*
X221100Y96700D02*
D03*
Y202700D02*
D03*
X31100Y166700D02*
D03*
X31400Y253500D02*
D03*
X221500Y256900D02*
D03*
D38*
X13600Y208785D02*
D03*
Y219415D02*
D03*
X171300Y89785D02*
D03*
Y100415D02*
D03*
X117700Y87085D02*
D03*
Y97715D02*
D03*
X131200Y84015D02*
D03*
Y73385D02*
D03*
X195800Y62785D02*
D03*
Y73415D02*
D03*
X55800Y59630D02*
D03*
Y49000D02*
D03*
X157200Y100315D02*
D03*
Y89685D02*
D03*
X144600Y61185D02*
D03*
Y71815D02*
D03*
X185600Y90285D02*
D03*
Y100915D02*
D03*
X183700Y73915D02*
D03*
Y63285D02*
D03*
D39*
X236654Y60399D02*
D03*
Y47801D02*
D03*
X255946D02*
D03*
Y60399D02*
D03*
X236654Y27999D02*
D03*
Y15401D02*
D03*
X255946D02*
D03*
Y27999D02*
D03*
X236754Y92599D02*
D03*
Y80001D02*
D03*
X256046D02*
D03*
Y92599D02*
D03*
D40*
X239681Y260913D02*
D03*
X257319D02*
D03*
X239681Y225087D02*
D03*
X257319D02*
D03*
D41*
X87490Y265791D02*
D03*
Y259886D02*
D03*
Y253980D02*
D03*
Y248075D02*
D03*
Y242169D02*
D03*
Y236264D02*
D03*
Y230358D02*
D03*
Y224453D02*
D03*
Y218547D02*
D03*
X157510D02*
D03*
Y224453D02*
D03*
Y230358D02*
D03*
Y236264D02*
D03*
Y242169D02*
D03*
Y248075D02*
D03*
Y253980D02*
D03*
Y259886D02*
D03*
Y265791D02*
D03*
D42*
X126437Y240594D02*
D03*
D43*
X159300Y61900D02*
D03*
X163000D02*
D03*
X166700D02*
D03*
Y72100D02*
D03*
X163000D02*
D03*
X159300D02*
D03*
D44*
X97739Y73037D02*
D03*
D45*
Y71069D02*
D03*
Y69100D02*
D03*
Y67132D02*
D03*
Y65163D02*
D03*
X115061D02*
D03*
Y67132D02*
D03*
Y69100D02*
D03*
Y71069D02*
D03*
Y73037D02*
D03*
D46*
X12100Y151900D02*
D03*
Y161900D02*
D03*
Y113500D02*
D03*
Y123500D02*
D03*
X60200Y95900D02*
D03*
Y105900D02*
D03*
X31100Y66700D02*
D03*
Y56700D02*
D03*
Y46700D02*
D03*
Y36700D02*
D03*
Y26700D02*
D03*
X221100Y86700D02*
D03*
Y76700D02*
D03*
Y66700D02*
D03*
Y56700D02*
D03*
Y46700D02*
D03*
Y36700D02*
D03*
Y26700D02*
D03*
Y182700D02*
D03*
Y112700D02*
D03*
Y122700D02*
D03*
Y132700D02*
D03*
Y142700D02*
D03*
Y152700D02*
D03*
Y162700D02*
D03*
Y172700D02*
D03*
Y192700D02*
D03*
X31100Y156700D02*
D03*
Y146700D02*
D03*
Y136700D02*
D03*
Y126700D02*
D03*
Y116700D02*
D03*
Y106700D02*
D03*
Y96700D02*
D03*
X31400Y243500D02*
D03*
Y233500D02*
D03*
Y223500D02*
D03*
Y213500D02*
D03*
Y203500D02*
D03*
X184000Y127400D02*
D03*
Y117400D02*
D03*
X174000Y127400D02*
D03*
X221500Y246900D02*
D03*
Y236900D02*
D03*
X184800Y35100D02*
D03*
X74800D02*
D03*
X137800Y21700D02*
D03*
Y11700D02*
D03*
X127800Y21700D02*
D03*
Y11700D02*
D03*
X117800Y21700D02*
D03*
Y11700D02*
D03*
X107800Y21700D02*
D03*
X158600Y11400D02*
D03*
X79000Y12000D02*
D03*
X93600Y108800D02*
D03*
X103600D02*
D03*
X108800Y143100D02*
D03*
Y133100D02*
D03*
X98800Y143100D02*
D03*
Y133100D02*
D03*
X88800Y143100D02*
D03*
Y133100D02*
D03*
X78800Y143100D02*
D03*
X104800Y198800D02*
D03*
X174800D02*
D03*
X164800D02*
D03*
X154800D02*
D03*
X144800D02*
D03*
X134800D02*
D03*
X124800D02*
D03*
X114800D02*
D03*
X94800D02*
D03*
X174800Y185100D02*
D03*
X164800D02*
D03*
X154800D02*
D03*
X144800D02*
D03*
X134800D02*
D03*
X124800D02*
D03*
X114800D02*
D03*
X104800D02*
D03*
X94800D02*
D03*
X84800D02*
D03*
X74800D02*
D03*
X64800D02*
D03*
D47*
X174000Y117400D02*
D03*
X174800Y35100D02*
D03*
X64800D02*
D03*
X107800Y11700D02*
D03*
X168600Y11400D02*
D03*
X69000Y12000D02*
D03*
X83600Y108800D02*
D03*
X78800Y133100D02*
D03*
X84800Y198800D02*
D03*
X184800Y185100D02*
D03*
D48*
X96200Y212400D02*
D03*
X163000Y57550D02*
D03*
X164100Y257200D02*
D03*
X87400Y69000D02*
D03*
X92200Y230358D02*
D03*
X116784Y61185D02*
D03*
X106900Y71069D02*
D03*
X63300Y59630D02*
D03*
X109800Y215900D02*
D03*
X246185Y227300D02*
D03*
X189300Y173100D02*
D03*
X180985Y220400D02*
D03*
X121100Y178700D02*
D03*
X170385Y177000D02*
D03*
X46285Y190100D02*
D03*
X230352Y57199D02*
D03*
X166700Y76450D02*
D03*
X117700Y79200D02*
D03*
X163000D02*
D03*
X79300Y224453D02*
D03*
X82800Y248100D02*
D03*
X171085Y267597D02*
D03*
X92200Y242200D02*
D03*
Y253980D02*
D03*
X70036Y223500D02*
D03*
X200900Y62800D02*
D03*
X112600Y97700D02*
D03*
X149700Y61185D02*
D03*
X163000Y67800D02*
D03*
X8500Y208800D02*
D03*
X231952Y27999D02*
D03*
X12100Y199693D02*
D03*
X232052Y92599D02*
D03*
X12100Y255993D02*
D03*
X126437Y250219D02*
D03*
X152836Y236264D02*
D03*
X162183Y265791D02*
D03*
X239681Y219203D02*
D03*
Y266797D02*
D03*
M02*
