G04 Layer_Color=65535*
%FSLAX25Y25*%
%MOIN*%
G70*
G01*
G75*
%ADD21C,0.01000*%
%ADD30C,0.00000*%
%ADD31C,0.00787*%
%ADD32C,0.01575*%
%ADD33C,0.00500*%
%ADD34C,0.00600*%
%ADD35C,0.00700*%
G36*
X150000Y150400D02*
X149200D01*
Y149600D01*
Y148800D01*
Y148000D01*
Y147200D01*
X142800D01*
Y148000D01*
X146000D01*
Y148800D01*
X146800D01*
Y149600D01*
X147600D01*
Y150400D01*
X148400D01*
Y151200D01*
X150000D01*
Y150400D01*
D02*
G37*
G36*
X131600Y160000D02*
Y159200D01*
X130800D01*
Y158400D01*
Y157600D01*
Y156800D01*
Y156000D01*
Y155200D01*
Y154400D01*
Y153600D01*
X130000D01*
Y152800D01*
Y152000D01*
Y151200D01*
X130800D01*
Y150400D01*
X131600D01*
Y149600D01*
X132400D01*
Y148800D01*
X133200D01*
Y148000D01*
X137200D01*
Y147200D01*
X136400D01*
Y146400D01*
Y145600D01*
Y144800D01*
X137200D01*
Y144000D01*
X138000D01*
Y143200D01*
X134000D01*
Y142400D01*
X130800D01*
Y143200D01*
X127600D01*
Y144000D01*
X123600D01*
Y143200D01*
Y142400D01*
Y141600D01*
Y140800D01*
X122800D01*
Y140000D01*
Y139200D01*
Y138400D01*
Y137600D01*
Y136800D01*
Y136000D01*
X122000D01*
Y135200D01*
X121200D01*
Y134400D01*
X120400D01*
Y133600D01*
X119600D01*
Y132800D01*
X118800D01*
Y133600D01*
Y134400D01*
X118000D01*
Y135200D01*
Y136000D01*
X117200D01*
Y136800D01*
Y137600D01*
Y138400D01*
Y139200D01*
Y140000D01*
X118000D01*
Y140800D01*
Y141600D01*
X118800D01*
Y142400D01*
X119600D01*
Y143200D01*
Y144000D01*
X120400D01*
Y144800D01*
Y145600D01*
Y146400D01*
Y147200D01*
Y148000D01*
X122000D01*
Y148800D01*
X123600D01*
Y149600D01*
Y150400D01*
Y151200D01*
Y152000D01*
Y152800D01*
Y153600D01*
Y154400D01*
Y155200D01*
Y156000D01*
X124400D01*
Y156800D01*
X123600D01*
Y157600D01*
X125200D01*
Y158400D01*
X126000D01*
Y159200D01*
X126800D01*
Y160000D01*
X129200D01*
Y160800D01*
X131600D01*
Y160000D01*
D02*
G37*
G36*
X152400Y169600D02*
X154000D01*
Y168800D01*
X155600D01*
Y168000D01*
X156400D01*
Y167200D01*
X157200D01*
Y166400D01*
X158000D01*
Y165600D01*
X158800D01*
Y164800D01*
Y164000D01*
X159600D01*
Y163200D01*
X165200D01*
Y162400D01*
X166800D01*
Y161600D01*
X167600D01*
Y160800D01*
X168400D01*
Y160000D01*
X169200D01*
Y159200D01*
X170000D01*
Y158400D01*
Y157600D01*
X170800D01*
Y156800D01*
Y156000D01*
Y155200D01*
X171600D01*
Y154400D01*
Y153600D01*
Y152800D01*
X170800D01*
Y152000D01*
Y151200D01*
Y150400D01*
X170000D01*
Y149600D01*
Y148800D01*
X169200D01*
Y148000D01*
X168400D01*
Y147200D01*
X167600D01*
Y146400D01*
X166800D01*
Y145600D01*
X166000D01*
Y144800D01*
X165200D01*
Y144000D01*
X164400D01*
Y143200D01*
X163600D01*
Y142400D01*
X161200D01*
Y141600D01*
X160400D01*
Y140800D01*
X159600D01*
Y141600D01*
Y142400D01*
X158800D01*
Y143200D01*
X156400D01*
Y142400D01*
X155600D01*
Y141600D01*
Y140800D01*
X154800D01*
Y140000D01*
X154000D01*
Y139200D01*
X152400D01*
Y138400D01*
X151600D01*
Y137600D01*
X150000D01*
Y136800D01*
X149200D01*
Y136000D01*
X147600D01*
Y135200D01*
X146800D01*
Y136000D01*
X146000D01*
Y135200D01*
X144400D01*
Y136000D01*
Y136800D01*
Y137600D01*
Y138400D01*
Y139200D01*
X145200D01*
Y140000D01*
Y140800D01*
X150800D01*
Y141600D01*
X152400D01*
Y142400D01*
Y143200D01*
X154000D01*
Y144000D01*
X154800D01*
Y144800D01*
Y145600D01*
X155600D01*
Y146400D01*
Y147200D01*
Y148000D01*
Y148800D01*
Y149600D01*
Y150400D01*
Y151200D01*
X156400D01*
Y152000D01*
Y152800D01*
Y153600D01*
Y154400D01*
Y155200D01*
Y156000D01*
X158000D01*
Y156800D01*
Y157600D01*
Y158400D01*
X158800D01*
Y159200D01*
Y160000D01*
Y160800D01*
X151600D01*
Y161600D01*
Y162400D01*
Y163200D01*
Y164000D01*
Y164800D01*
X150800D01*
Y165600D01*
Y166400D01*
X150000D01*
Y167200D01*
X149200D01*
Y168000D01*
X138800D01*
Y168800D01*
X141200D01*
Y169600D01*
X142800D01*
Y170400D01*
X152400D01*
Y169600D01*
D02*
G37*
G36*
X145200Y161600D02*
Y160800D01*
Y160000D01*
Y159200D01*
X150800D01*
Y158400D01*
Y157600D01*
Y156800D01*
X150000D01*
Y157600D01*
X145200D01*
Y156800D01*
X144400D01*
Y157600D01*
Y158400D01*
Y159200D01*
Y160000D01*
Y160800D01*
X137200D01*
Y161600D01*
Y162400D01*
X145200D01*
Y161600D01*
D02*
G37*
G36*
X138000Y155200D02*
Y154400D01*
X136400D01*
Y155200D01*
Y156000D01*
X138000D01*
Y155200D01*
D02*
G37*
%LPC*%
G36*
X166000Y158400D02*
X163600D01*
Y157600D01*
X162800D01*
Y156800D01*
X162000D01*
Y156000D01*
X161200D01*
Y155200D01*
X160400D01*
Y154400D01*
Y153600D01*
X159600D01*
Y152800D01*
Y152000D01*
Y151200D01*
X160400D01*
Y150400D01*
X163600D01*
Y151200D01*
X164400D01*
Y152000D01*
Y152800D01*
Y153600D01*
X165200D01*
Y154400D01*
Y155200D01*
Y156000D01*
X166000D01*
Y156800D01*
X166800D01*
Y157600D01*
X166000D01*
Y158400D01*
D02*
G37*
%LPD*%
D21*
X233705Y112132D02*
Y108800D01*
X238704D01*
Y112132D01*
X236205Y108800D02*
Y110466D01*
X234539Y117131D02*
X233705Y116298D01*
Y114631D01*
X234539Y113798D01*
X237871D01*
X238704Y114631D01*
Y116298D01*
X237871Y117131D01*
X233705Y122129D02*
Y118797D01*
X238704D01*
Y122129D01*
X236205Y118797D02*
Y120463D01*
X238704Y123795D02*
X233705D01*
X238704Y127127D01*
X233705D01*
Y132126D02*
Y128794D01*
X236205D01*
X235372Y130460D01*
Y131293D01*
X236205Y132126D01*
X237871D01*
X238704Y131293D01*
Y129627D01*
X237871Y128794D01*
X234539Y133792D02*
X233705Y134625D01*
Y136291D01*
X234539Y137124D01*
X237871D01*
X238704Y136291D01*
Y134625D01*
X237871Y133792D01*
X234539D01*
X238704Y138790D02*
Y140456D01*
Y139623D01*
X233705D01*
X234539Y138790D01*
Y142956D02*
X233705Y143789D01*
Y145455D01*
X234539Y146288D01*
X235372D01*
X236205Y145455D01*
Y144622D01*
Y145455D01*
X237038Y146288D01*
X237871D01*
X238704Y145455D01*
Y143789D01*
X237871Y142956D01*
X236205Y147954D02*
Y151286D01*
X234539Y152952D02*
X233705Y153785D01*
Y155452D01*
X234539Y156285D01*
X237871D01*
X238704Y155452D01*
Y153785D01*
X237871Y152952D01*
X234539D01*
Y157951D02*
X233705Y158784D01*
Y160450D01*
X234539Y161283D01*
X237871D01*
X238704Y160450D01*
Y158784D01*
X237871Y157951D01*
X234539D01*
X238704Y165448D02*
X233705D01*
X236205Y162949D01*
Y166281D01*
X233705Y177944D02*
X238704D01*
Y180444D01*
X237871Y181277D01*
X237038D01*
X236205Y180444D01*
Y177944D01*
Y180444D01*
X235372Y181277D01*
X234539D01*
X233705Y180444D01*
Y177944D01*
X238704Y183776D02*
Y185442D01*
X237871Y186275D01*
X236205D01*
X235372Y185442D01*
Y183776D01*
X236205Y182943D01*
X237871D01*
X238704Y183776D01*
X235372Y188774D02*
Y190440D01*
X236205Y191273D01*
X238704D01*
Y188774D01*
X237871Y187941D01*
X237038Y188774D01*
Y191273D01*
X235372Y192939D02*
X238704D01*
X237038D01*
X236205Y193772D01*
X235372Y194606D01*
Y195439D01*
X233705Y201270D02*
X238704D01*
Y198771D01*
X237871Y197938D01*
X236205D01*
X235372Y198771D01*
Y201270D01*
X234539Y207934D02*
X233705Y208768D01*
Y210434D01*
X234539Y211267D01*
X235372D01*
X236205Y210434D01*
Y209601D01*
Y210434D01*
X237038Y211267D01*
X237871D01*
X238704Y210434D01*
Y208768D01*
X237871Y207934D01*
X247102Y108800D02*
X243770D01*
X242104Y110466D01*
X243770Y112132D01*
X247102D01*
X244603D01*
Y108800D01*
X243770Y114631D02*
Y116298D01*
X244603Y117131D01*
X247102D01*
Y114631D01*
X246269Y113798D01*
X245436Y114631D01*
Y117131D01*
X247102Y118797D02*
X242104D01*
X245436D02*
X243770Y121296D01*
X245436Y118797D02*
X247102Y121296D01*
X243770Y124628D02*
Y126294D01*
X244603Y127127D01*
X247102D01*
Y124628D01*
X246269Y123795D01*
X245436Y124628D01*
Y127127D01*
X247102Y128794D02*
Y131293D01*
X246269Y132126D01*
X245436Y131293D01*
Y129627D01*
X244603Y128794D01*
X243770Y129627D01*
Y132126D01*
X242104Y133792D02*
X247102D01*
X244603D01*
X243770Y134625D01*
Y136291D01*
X244603Y137124D01*
X247102D01*
X242104Y143789D02*
X247102D01*
X245436D01*
X242104Y147121D01*
X244603Y144622D01*
X247102Y147121D01*
X243770Y148787D02*
X246269D01*
X247102Y149620D01*
Y152119D01*
X243770D01*
X247102Y153785D02*
X243770D01*
Y154619D01*
X244603Y155452D01*
X247102D01*
X244603D01*
X243770Y156285D01*
X244603Y157118D01*
X247102D01*
X243770Y159617D02*
Y161283D01*
X244603Y162116D01*
X247102D01*
Y159617D01*
X246269Y158784D01*
X245436Y159617D01*
Y162116D01*
X243770Y163782D02*
X247102D01*
X245436D01*
X244603Y164615D01*
X243770Y165448D01*
Y166281D01*
X255500Y108800D02*
X252168D01*
X250502Y110466D01*
X252168Y112132D01*
X255500D01*
X253001D01*
Y108800D01*
X252168Y113798D02*
X255500D01*
X253834D01*
X253001Y114631D01*
X252168Y115464D01*
Y116298D01*
Y118797D02*
X254667D01*
X255500Y119630D01*
Y122129D01*
X252168D01*
X255500Y123795D02*
X252168D01*
Y126294D01*
X253001Y127127D01*
X255500D01*
Y128794D02*
Y131293D01*
X254667Y132126D01*
X253834Y131293D01*
Y129627D01*
X253001Y128794D01*
X252168Y129627D01*
Y132126D01*
Y133792D02*
X254667D01*
X255500Y134625D01*
Y137124D01*
X252168D01*
X255500Y138790D02*
X252168D01*
Y141289D01*
X253001Y142122D01*
X255500D01*
X250502Y147121D02*
X255500D01*
Y144622D01*
X254667Y143789D01*
X253001D01*
X252168Y144622D01*
Y147121D01*
Y149620D02*
Y151286D01*
X253001Y152119D01*
X255500D01*
Y149620D01*
X254667Y148787D01*
X253834Y149620D01*
Y152119D01*
X252168Y153785D02*
X255500D01*
X253834D01*
X253001Y154619D01*
X252168Y155452D01*
Y156285D01*
X250502Y163782D02*
X255500D01*
X253834D01*
X250502Y167114D01*
X253001Y164615D01*
X255500Y167114D01*
X252168Y169614D02*
Y171280D01*
X253001Y172113D01*
X255500D01*
Y169614D01*
X254667Y168781D01*
X253834Y169614D01*
Y172113D01*
X255500Y173779D02*
X252168D01*
Y176278D01*
X253001Y177111D01*
X255500D01*
Y178777D02*
X252168D01*
Y181277D01*
X253001Y182110D01*
X255500D01*
X252168Y184609D02*
Y186275D01*
X253001Y187108D01*
X255500D01*
Y184609D01*
X254667Y183776D01*
X253834Y184609D01*
Y187108D01*
X255500Y188774D02*
X252168D01*
Y191273D01*
X253001Y192106D01*
X255500D01*
X-100Y0D02*
X266200D01*
X-100D02*
Y273200D01*
X266200D01*
Y0D02*
Y273200D01*
D30*
X235068Y64258D02*
G03*
X235068Y64258I-787J0D01*
G01*
Y31857D02*
G03*
X235068Y31857I-787J0D01*
G01*
X235168Y96457D02*
G03*
X235168Y96457I-787J0D01*
G01*
X156900Y65800D02*
G03*
X156900Y68200I0J1200D01*
G01*
D31*
X257748Y267216D02*
G03*
X257748Y267216I-394J0D01*
G01*
X104510Y73037D02*
G03*
X104510Y73037I-472J0D01*
G01*
X96483Y75399D02*
G03*
X96483Y75399I-319J0D01*
G01*
X33625Y184247D02*
X36775D01*
X33625Y190153D02*
X36775D01*
X17100Y136900D02*
Y166900D01*
X7100D02*
X17100D01*
X7100Y136900D02*
Y166900D01*
Y136900D02*
X17100D01*
Y98500D02*
Y128500D01*
X7100D02*
X17100D01*
X7100Y98500D02*
Y128500D01*
Y98500D02*
X17100D01*
X7572Y192037D02*
Y198730D01*
X15053Y200698D02*
X16628Y198730D01*
X7572D02*
X9147Y200698D01*
X16628Y192037D02*
Y198730D01*
X9147Y200698D02*
X15053D01*
X7572Y176683D02*
X16628D01*
X7572D02*
Y184163D01*
X16628Y176683D02*
Y184163D01*
X7572Y248337D02*
Y255030D01*
X15053Y256998D02*
X16628Y255030D01*
X7572D02*
X9147Y256998D01*
X16628Y248337D02*
Y255030D01*
X9147Y256998D02*
X15053D01*
X7572Y232983D02*
X16628D01*
X7572D02*
Y240463D01*
X16628Y232983D02*
Y240463D01*
X10647Y212525D02*
Y215675D01*
X16553Y212525D02*
Y215675D01*
X65200Y80900D02*
Y110900D01*
X55200D02*
X65200D01*
X55200Y80900D02*
Y110900D01*
Y80900D02*
X65200D01*
X26100Y21700D02*
X36100D01*
X26100Y81700D02*
X36100D01*
Y21700D02*
Y81700D01*
X26100Y21700D02*
Y81700D01*
X216100Y21700D02*
X226100D01*
X216100D02*
Y101700D01*
X226100D01*
Y21700D02*
Y101700D01*
X173225Y259547D02*
X176375D01*
X173225Y265453D02*
X176375D01*
X226100Y107700D02*
Y200200D01*
Y207700D01*
X216100D02*
X226100D01*
X216100Y107700D02*
Y207700D01*
Y107700D02*
X226100D01*
X26100Y91700D02*
X36100D01*
X26100D02*
Y171700D01*
X36100D01*
Y91700D02*
Y171700D01*
X26400Y198500D02*
X36400D01*
X26400Y258500D02*
X36400D01*
Y198500D02*
Y258500D01*
X26400Y198500D02*
Y258500D01*
X168347Y93525D02*
Y96675D01*
X174253Y93525D02*
Y96675D01*
X69125Y264453D02*
X72275D01*
X69125Y258547D02*
X72275D01*
X68925Y247747D02*
X72075D01*
X68925Y253653D02*
X72075D01*
X169000Y132400D02*
X189000D01*
X169000Y112400D02*
Y132400D01*
X189000Y112400D02*
Y132400D01*
X169000Y112400D02*
X189000D01*
X114747Y90825D02*
Y93975D01*
X120653Y90825D02*
Y93975D01*
X101725Y90853D02*
X104875D01*
X101725Y84947D02*
X104875D01*
X134153Y77125D02*
Y80275D01*
X128247Y77125D02*
Y80275D01*
X192847Y66525D02*
Y69675D01*
X198753Y66525D02*
Y69675D01*
X216500Y231900D02*
Y261900D01*
Y231900D02*
X226500D01*
Y261900D01*
X216500D02*
X226500D01*
X174125Y174853D02*
X177275D01*
X174125Y168947D02*
X177275D01*
X184725Y212347D02*
X187875D01*
X184725Y218253D02*
X187875D01*
X114210Y176553D02*
X117360D01*
X114210Y170647D02*
X117360D01*
X58753Y52740D02*
Y55890D01*
X52847Y52740D02*
Y55890D01*
X189800Y30100D02*
Y40100D01*
X169800Y30100D02*
X189800D01*
X169800D02*
Y40100D01*
X189800D01*
X79800Y30100D02*
Y40100D01*
X59800Y30100D02*
X79800D01*
X59800D02*
Y40100D01*
X79800D01*
X102800Y6700D02*
X142800D01*
X102800Y26700D02*
X142800D01*
X102800Y6700D02*
Y26700D01*
X142800Y6700D02*
Y26700D01*
X153600Y6400D02*
Y16400D01*
X173600D01*
Y6400D02*
Y16400D01*
X153600Y6400D02*
X173600D01*
X84000Y7000D02*
Y17000D01*
X64000Y7000D02*
X84000D01*
X64000D02*
Y17000D01*
X84000D01*
X78600Y103800D02*
X108600D01*
Y113800D01*
X78600D02*
X108600D01*
X78600Y103800D02*
Y113800D01*
X73800Y128100D02*
X113800D01*
X73800Y148100D02*
X113800D01*
X73800Y128100D02*
Y148100D01*
X113800Y128100D02*
Y148100D01*
X249925Y215353D02*
X253075D01*
X249925Y209447D02*
X253075D01*
X101872Y75006D02*
X110928D01*
Y63194D02*
Y75006D01*
X101872Y63194D02*
X110928D01*
X101872D02*
Y75006D01*
X87300Y203800D02*
X179800D01*
X79800D02*
X87300D01*
X79800Y193800D02*
Y203800D01*
Y193800D02*
X179800D01*
Y203800D01*
X59800Y180100D02*
Y190100D01*
X189800D01*
Y180100D02*
Y190100D01*
X182300Y180100D02*
X189800D01*
X59800D02*
X182300D01*
X160153Y93425D02*
Y96575D01*
X154247Y93425D02*
Y96575D01*
X141647Y64925D02*
Y68075D01*
X147553Y64925D02*
Y68075D01*
X182647Y94025D02*
Y97175D01*
X188553Y94025D02*
Y97175D01*
X186653Y67025D02*
Y70175D01*
X180747Y67025D02*
Y70175D01*
D32*
X82146Y265791D02*
G03*
X82146Y265791I-197J0D01*
G01*
D33*
X236457Y63943D02*
X256143D01*
X236457Y44257D02*
X256143D01*
X236457Y31543D02*
X256143D01*
X236457Y11857D02*
X256143D01*
X236557Y96143D02*
X256243D01*
X236557Y76457D02*
X256243D01*
X236689Y254811D02*
X260311D01*
Y231189D02*
Y254811D01*
X236689Y231189D02*
X260311D01*
X236689D02*
Y254811D01*
X87067Y215004D02*
X157933D01*
X87067Y268705D02*
Y293744D01*
X157933Y268705D02*
Y293744D01*
X87067D02*
X157933D01*
X46300Y185700D02*
Y189199D01*
X48049D01*
X48633Y188616D01*
Y187449D01*
X48049Y186866D01*
X46300D01*
X47466D02*
X48633Y185700D01*
X49799D02*
X50965D01*
X50382D01*
Y189199D01*
X49799Y188616D01*
X52715Y185700D02*
X53881D01*
X53298D01*
Y189199D01*
X52715Y188616D01*
X19101Y135749D02*
Y134583D01*
X19684Y134000D01*
X22017D01*
X22600Y134583D01*
Y135749D01*
X22017Y136333D01*
X19684D01*
X19101Y135749D01*
X22600Y137499D02*
X19101D01*
X22600Y139831D01*
X19101D01*
X19684Y144497D02*
X19101Y145080D01*
Y146246D01*
X19684Y146829D01*
X20267D01*
X20851Y146246D01*
Y145663D01*
Y146246D01*
X21434Y146829D01*
X22017D01*
X22600Y146246D01*
Y145080D01*
X22017Y144497D01*
X19101Y147995D02*
X21434D01*
X22600Y149162D01*
X21434Y150328D01*
X19101D01*
X19684Y151494D02*
X19101Y152077D01*
Y153244D01*
X19684Y153827D01*
X20267D01*
X20851Y153244D01*
Y152661D01*
Y153244D01*
X21434Y153827D01*
X22017D01*
X22600Y153244D01*
Y152077D01*
X22017Y151494D01*
X19101Y160241D02*
Y159075D01*
X19684Y158492D01*
X22017D01*
X22600Y159075D01*
Y160241D01*
X22017Y160825D01*
X19684D01*
X19101Y160241D01*
Y164323D02*
Y161991D01*
X20851D01*
Y163157D01*
Y161991D01*
X22600D01*
X19101Y167822D02*
Y165490D01*
X20851D01*
Y166656D01*
Y165490D01*
X22600D01*
X19701Y98449D02*
Y97283D01*
X20284Y96700D01*
X22617D01*
X23200Y97283D01*
Y98449D01*
X22617Y99033D01*
X20284D01*
X19701Y98449D01*
X23200Y100199D02*
X19701D01*
X23200Y102531D01*
X19701D01*
Y109529D02*
Y107197D01*
X21451D01*
X20867Y108363D01*
Y108946D01*
X21451Y109529D01*
X22617D01*
X23200Y108946D01*
Y107780D01*
X22617Y107197D01*
X19701Y110696D02*
X22034D01*
X23200Y111862D01*
X22034Y113028D01*
X19701D01*
Y119443D02*
Y118276D01*
X20284Y117693D01*
X22617D01*
X23200Y118276D01*
Y119443D01*
X22617Y120026D01*
X20284D01*
X19701Y119443D01*
Y123525D02*
Y121192D01*
X21451D01*
Y122358D01*
Y121192D01*
X23200D01*
X19701Y127023D02*
Y124691D01*
X21451D01*
Y125857D01*
Y124691D01*
X23200D01*
X19101Y176100D02*
X22600D01*
Y178433D01*
X19101Y181931D02*
Y179599D01*
X22600D01*
Y181931D01*
X20851Y179599D02*
Y180765D01*
X19101Y183098D02*
X22600D01*
Y184847D01*
X22017Y185430D01*
X19684D01*
X19101Y184847D01*
Y183098D01*
X23183Y186597D02*
Y188929D01*
X19684Y190095D02*
X19101Y190679D01*
Y191845D01*
X19684Y192428D01*
X20267D01*
X20851Y191845D01*
Y191262D01*
Y191845D01*
X21434Y192428D01*
X22017D01*
X22600Y191845D01*
Y190679D01*
X22017Y190095D01*
X19101Y193594D02*
X21434D01*
X22600Y194761D01*
X21434Y195927D01*
X19101D01*
X19684Y197093D02*
X19101Y197676D01*
Y198843D01*
X19684Y199426D01*
X20267D01*
X20851Y198843D01*
Y198259D01*
Y198843D01*
X21434Y199426D01*
X22017D01*
X22600Y198843D01*
Y197676D01*
X22017Y197093D01*
X19101Y234500D02*
X22600D01*
Y236833D01*
X19101Y240331D02*
Y237999D01*
X22600D01*
Y240331D01*
X20851Y237999D02*
Y239165D01*
X19101Y241498D02*
X22600D01*
Y243247D01*
X22017Y243830D01*
X19684D01*
X19101Y243247D01*
Y241498D01*
X23183Y244997D02*
Y247329D01*
X19101Y250828D02*
Y248496D01*
X20851D01*
X20267Y249662D01*
Y250245D01*
X20851Y250828D01*
X22017D01*
X22600Y250245D01*
Y249079D01*
X22017Y248496D01*
X19101Y251994D02*
X21434D01*
X22600Y253161D01*
X21434Y254327D01*
X19101D01*
X10000Y224500D02*
Y227999D01*
X11749D01*
X12333Y227416D01*
Y226249D01*
X11749Y225666D01*
X10000D01*
X11166D02*
X12333Y224500D01*
X13499D02*
X14665D01*
X14082D01*
Y227999D01*
X13499Y227416D01*
X18747Y224500D02*
X16415D01*
X18747Y226833D01*
Y227416D01*
X18164Y227999D01*
X16998D01*
X16415Y227416D01*
X103033Y213699D02*
X100700D01*
Y210200D01*
X103033D01*
X100700Y211949D02*
X101866D01*
X106531Y213116D02*
X105948Y213699D01*
X104782D01*
X104199Y213116D01*
Y212533D01*
X104782Y211949D01*
X105948D01*
X106531Y211366D01*
Y210783D01*
X105948Y210200D01*
X104782D01*
X104199Y210783D01*
X107698Y210200D02*
Y213699D01*
X109447D01*
X110030Y213116D01*
Y211949D01*
X109447Y211366D01*
X107698D01*
X111197Y211949D02*
X113529D01*
X114696Y213699D02*
Y210200D01*
X115862Y211366D01*
X117028Y210200D01*
Y213699D01*
X118194Y210200D02*
Y213699D01*
X119944D01*
X120527Y213116D01*
Y211949D01*
X119944Y211366D01*
X118194D01*
X119361D02*
X120527Y210200D01*
X123443Y213699D02*
X122276D01*
X121693Y213116D01*
Y210783D01*
X122276Y210200D01*
X123443D01*
X124026Y210783D01*
Y213116D01*
X123443Y213699D01*
X126942D02*
X125775D01*
X125192Y213116D01*
Y210783D01*
X125775Y210200D01*
X126942D01*
X127525Y210783D01*
Y213116D01*
X126942Y213699D01*
X128691Y210200D02*
Y213699D01*
X129857Y212533D01*
X131024Y213699D01*
Y210200D01*
X132190Y211949D02*
X134522D01*
X135689Y213116D02*
X136272Y213699D01*
X137438D01*
X138021Y213116D01*
Y210783D01*
X137438Y210200D01*
X136272D01*
X135689Y210783D01*
Y213116D01*
X141520Y210200D02*
X139188D01*
X141520Y212533D01*
Y213116D01*
X140937Y213699D01*
X139771D01*
X139188Y213116D01*
X87000Y56100D02*
Y58433D01*
X88166Y59599D01*
X89333Y58433D01*
Y56100D01*
Y57849D01*
X87000D01*
X90499Y59599D02*
Y56100D01*
X92248D01*
X92831Y56683D01*
Y59016D01*
X92248Y59599D01*
X90499D01*
X96330Y59016D02*
X95747Y59599D01*
X94581D01*
X93998Y59016D01*
Y58433D01*
X94581Y57849D01*
X95747D01*
X96330Y57266D01*
Y56683D01*
X95747Y56100D01*
X94581D01*
X93998Y56683D01*
X97497Y56100D02*
X98663D01*
X98080D01*
Y59599D01*
X97497Y59016D01*
X100412Y56100D02*
X101579D01*
X100996D01*
Y59599D01*
X100412Y59016D01*
X103328Y56100D02*
X104494D01*
X103911D01*
Y59599D01*
X103328Y59016D01*
X108576Y59599D02*
X106244D01*
Y57849D01*
X107410Y58433D01*
X107993D01*
X108576Y57849D01*
Y56683D01*
X107993Y56100D01*
X106827D01*
X106244Y56683D01*
X109743Y59599D02*
X110909D01*
X110326D01*
Y56100D01*
X109743D01*
X110909D01*
X112658Y59599D02*
Y56100D01*
X114408D01*
X114991Y56683D01*
Y59016D01*
X114408Y59599D01*
X112658D01*
X118490Y59016D02*
X117907Y59599D01*
X116740D01*
X116157Y59016D01*
Y56683D01*
X116740Y56100D01*
X117907D01*
X118490Y56683D01*
Y57849D01*
X117324D01*
X121989Y59016D02*
X121405Y59599D01*
X120239D01*
X119656Y59016D01*
Y58433D01*
X120239Y57849D01*
X121405D01*
X121989Y57266D01*
Y56683D01*
X121405Y56100D01*
X120239D01*
X119656Y56683D01*
X123155Y56100D02*
Y59599D01*
X124904D01*
X125488Y59016D01*
Y57849D01*
X124904Y57266D01*
X123155D01*
X124321D02*
X125488Y56100D01*
X142400Y51400D02*
Y54899D01*
X143566Y53733D01*
X144733Y54899D01*
Y51400D01*
X148231Y54316D02*
X147648Y54899D01*
X146482D01*
X145899Y54316D01*
Y51983D01*
X146482Y51400D01*
X147648D01*
X148231Y51983D01*
X149398Y51400D02*
Y54899D01*
X151147D01*
X151730Y54316D01*
Y53149D01*
X151147Y52566D01*
X149398D01*
X154646Y51400D02*
Y54899D01*
X152897Y53149D01*
X155229D01*
X156395Y54899D02*
X158728D01*
Y54316D01*
X156395Y51983D01*
Y51400D01*
X162227D02*
X159894D01*
X162227Y53733D01*
Y54316D01*
X161644Y54899D01*
X160477D01*
X159894Y54316D01*
X165726Y54899D02*
X163393D01*
Y53149D01*
X164559Y53733D01*
X165143D01*
X165726Y53149D01*
Y51983D01*
X165143Y51400D01*
X163976D01*
X163393Y51983D01*
X166892Y51400D02*
Y53733D01*
X168058Y54899D01*
X169225Y53733D01*
Y51400D01*
Y53149D01*
X166892D01*
X170391Y54316D02*
X170974Y54899D01*
X172140D01*
X172723Y54316D01*
Y51983D01*
X172140Y51400D01*
X170974D01*
X170391Y51983D01*
Y54316D01*
X173890Y54899D02*
X176222D01*
X175056D01*
Y51400D01*
X177389Y53149D02*
X179721D01*
X183220Y54899D02*
X180888D01*
Y51400D01*
X183220D01*
X180888Y53149D02*
X182054D01*
X184386Y51400D02*
X186719Y53733D01*
X190218Y54316D02*
X189635Y54899D01*
X188469D01*
X187885Y54316D01*
Y51983D01*
X188469Y51400D01*
X189635D01*
X190218Y51983D01*
X191384Y54899D02*
Y51400D01*
Y53149D01*
X193717D01*
Y54899D01*
Y51400D01*
X233600Y225800D02*
X230101D01*
Y227549D01*
X230684Y228133D01*
X231851D01*
X232434Y227549D01*
Y225800D01*
Y226966D02*
X233600Y228133D01*
X230101Y231631D02*
Y229299D01*
X233600D01*
Y231631D01*
X231851Y229299D02*
Y230465D01*
X230684Y235130D02*
X230101Y234547D01*
Y233381D01*
X230684Y232798D01*
X231267D01*
X231851Y233381D01*
Y234547D01*
X232434Y235130D01*
X233017D01*
X233600Y234547D01*
Y233381D01*
X233017Y232798D01*
X230101Y238629D02*
Y236297D01*
X233600D01*
Y238629D01*
X231851Y236297D02*
Y237463D01*
X230101Y239795D02*
Y242128D01*
Y240962D01*
X233600D01*
X65000Y47700D02*
X61501D01*
Y49449D01*
X62084Y50033D01*
X63251D01*
X63834Y49449D01*
Y47700D01*
Y48866D02*
X65000Y50033D01*
Y51199D02*
Y52365D01*
Y51782D01*
X61501D01*
X62084Y51199D01*
Y54115D02*
X61501Y54698D01*
Y55864D01*
X62084Y56447D01*
X64417D01*
X65000Y55864D01*
Y54698D01*
X64417Y54115D01*
X62084D01*
X252100Y203300D02*
Y206799D01*
X253849D01*
X254433Y206216D01*
Y205049D01*
X253849Y204466D01*
X252100D01*
X253266D02*
X254433Y203300D01*
X255599Y203883D02*
X256182Y203300D01*
X257348D01*
X257931Y203883D01*
Y206216D01*
X257348Y206799D01*
X256182D01*
X255599Y206216D01*
Y205633D01*
X256182Y205049D01*
X257931D01*
X54800Y249300D02*
Y252799D01*
X56549D01*
X57133Y252216D01*
Y251049D01*
X56549Y250466D01*
X54800D01*
X55966D02*
X57133Y249300D01*
X58299Y252216D02*
X58882Y252799D01*
X60048D01*
X60631Y252216D01*
Y251633D01*
X60048Y251049D01*
X60631Y250466D01*
Y249883D01*
X60048Y249300D01*
X58882D01*
X58299Y249883D01*
Y250466D01*
X58882Y251049D01*
X58299Y251633D01*
Y252216D01*
X58882Y251049D02*
X60048D01*
X154000Y105300D02*
Y108799D01*
X155749D01*
X156333Y108216D01*
Y107049D01*
X155749Y106466D01*
X154000D01*
X155166D02*
X156333Y105300D01*
X157499Y108799D02*
X159831D01*
Y108216D01*
X157499Y105883D01*
Y105300D01*
X101000Y78700D02*
Y82199D01*
X102749D01*
X103333Y81616D01*
Y80449D01*
X102749Y79866D01*
X101000D01*
X102166D02*
X103333Y78700D01*
X106831Y82199D02*
X105665Y81616D01*
X104499Y80449D01*
Y79283D01*
X105082Y78700D01*
X106248D01*
X106831Y79283D01*
Y79866D01*
X106248Y80449D01*
X104499D01*
X192000Y95600D02*
Y99099D01*
X193749D01*
X194333Y98516D01*
Y97349D01*
X193749Y96766D01*
X192000D01*
X193166D02*
X194333Y95600D01*
X197831Y99099D02*
X195499D01*
Y97349D01*
X196665Y97933D01*
X197248D01*
X197831Y97349D01*
Y96183D01*
X197248Y95600D01*
X196082D01*
X195499Y96183D01*
X167900Y81000D02*
Y84499D01*
X169649D01*
X170233Y83916D01*
Y82749D01*
X169649Y82166D01*
X167900D01*
X169066D02*
X170233Y81000D01*
X173148D02*
Y84499D01*
X171399Y82749D01*
X173731D01*
X192400Y78300D02*
Y81799D01*
X194149D01*
X194733Y81216D01*
Y80049D01*
X194149Y79466D01*
X192400D01*
X193566D02*
X194733Y78300D01*
X195899Y81216D02*
X196482Y81799D01*
X197648D01*
X198231Y81216D01*
Y80633D01*
X197648Y80049D01*
X197065D01*
X197648D01*
X198231Y79466D01*
Y78883D01*
X197648Y78300D01*
X196482D01*
X195899Y78883D01*
X141900Y76600D02*
Y80099D01*
X143649D01*
X144233Y79516D01*
Y78349D01*
X143649Y77766D01*
X141900D01*
X143066D02*
X144233Y76600D01*
X147731D02*
X145399D01*
X147731Y78933D01*
Y79516D01*
X147148Y80099D01*
X145982D01*
X145399Y79516D01*
X124500Y90900D02*
Y94399D01*
X126249D01*
X126833Y93816D01*
Y92649D01*
X126249Y92066D01*
X124500D01*
X125666D02*
X126833Y90900D01*
X127999D02*
X129165D01*
X128582D01*
Y94399D01*
X127999Y93816D01*
X179800Y42200D02*
Y45699D01*
X181549D01*
X182133Y45116D01*
Y43949D01*
X181549Y43366D01*
X179800D01*
X183299Y42200D02*
X184465D01*
X183882D01*
Y45699D01*
X183299Y45116D01*
X186215Y45699D02*
X188547D01*
Y45116D01*
X186215Y42783D01*
Y42200D01*
X153400Y209599D02*
X155733D01*
X154566D01*
Y206100D01*
X159231Y209599D02*
X156899D01*
Y207849D01*
X158065D01*
X156899D01*
Y206100D01*
X160398Y209599D02*
X162730D01*
X161564D01*
Y206100D01*
X163897Y205517D02*
X166229D01*
X167395Y209599D02*
Y206100D01*
X169728D01*
X173227Y209016D02*
X172644Y209599D01*
X171477D01*
X170894Y209016D01*
Y206683D01*
X171477Y206100D01*
X172644D01*
X173227Y206683D01*
X174393Y209599D02*
Y206100D01*
X176143D01*
X176726Y206683D01*
Y209016D01*
X176143Y209599D01*
X174393D01*
X70400Y41900D02*
Y45399D01*
X72149D01*
X72733Y44816D01*
Y43649D01*
X72149Y43066D01*
X70400D01*
X73899Y41900D02*
X75065D01*
X74482D01*
Y45399D01*
X73899Y44816D01*
X79147Y45399D02*
X76815D01*
Y43649D01*
X77981Y44233D01*
X78564D01*
X79147Y43649D01*
Y42483D01*
X78564Y41900D01*
X77398D01*
X76815Y42483D01*
X60700Y177499D02*
Y174000D01*
X63033D01*
X66531Y176916D02*
X65948Y177499D01*
X64782D01*
X64199Y176916D01*
Y174583D01*
X64782Y174000D01*
X65948D01*
X66531Y174583D01*
X67698Y177499D02*
Y174000D01*
X69447D01*
X70030Y174583D01*
Y176916D01*
X69447Y177499D01*
X67698D01*
X71197Y173417D02*
X73529D01*
X74695Y177499D02*
Y174000D01*
X76445D01*
X77028Y174583D01*
Y176916D01*
X76445Y177499D01*
X74695D01*
X78194D02*
X79361D01*
X78777D01*
Y174000D01*
X78194D01*
X79361D01*
X83443Y176916D02*
X82859Y177499D01*
X81693D01*
X81110Y176916D01*
Y176333D01*
X81693Y175749D01*
X82859D01*
X83443Y175166D01*
Y174583D01*
X82859Y174000D01*
X81693D01*
X81110Y174583D01*
X84609Y174000D02*
Y177499D01*
X86358D01*
X86941Y176916D01*
Y175749D01*
X86358Y175166D01*
X84609D01*
X57633Y77416D02*
X57049Y77999D01*
X55883D01*
X55300Y77416D01*
Y76833D01*
X55883Y76249D01*
X57049D01*
X57633Y75666D01*
Y75083D01*
X57049Y74500D01*
X55883D01*
X55300Y75083D01*
X58799Y74500D02*
Y77999D01*
X60548D01*
X61131Y77416D01*
Y76249D01*
X60548Y75666D01*
X58799D01*
X62298Y77999D02*
X63464D01*
X62881D01*
Y74500D01*
X62298D01*
X63464D01*
X217300Y264000D02*
Y267499D01*
X219049D01*
X219633Y266916D01*
Y265749D01*
X219049Y265166D01*
X217300D01*
X220799Y264000D02*
X221965D01*
X221382D01*
Y267499D01*
X220799Y266916D01*
X226047Y264000D02*
X223715D01*
X226047Y266333D01*
Y266916D01*
X225464Y267499D01*
X224298D01*
X223715Y266916D01*
X27200Y260600D02*
Y264099D01*
X28949D01*
X29533Y263516D01*
Y262349D01*
X28949Y261766D01*
X27200D01*
X30699Y260600D02*
X31865D01*
X31282D01*
Y264099D01*
X30699Y263516D01*
X33615Y260600D02*
X34781D01*
X34198D01*
Y264099D01*
X33615Y263516D01*
X79200Y123200D02*
Y125533D01*
X80366Y126699D01*
X81533Y125533D01*
Y123200D01*
Y124949D01*
X79200D01*
X82699Y126699D02*
Y123200D01*
X84448D01*
X85031Y123783D01*
Y126116D01*
X84448Y126699D01*
X82699D01*
X88530Y126116D02*
X87947Y126699D01*
X86781D01*
X86198Y126116D01*
Y123783D01*
X86781Y123200D01*
X87947D01*
X88530Y123783D01*
X89697Y122617D02*
X92029D01*
X93195Y123200D02*
Y125533D01*
X94362Y126699D01*
X95528Y125533D01*
Y123200D01*
Y124949D01*
X93195D01*
X96694Y126699D02*
Y123200D01*
X98444D01*
X99027Y123783D01*
Y126116D01*
X98444Y126699D01*
X96694D01*
X100193D02*
Y123200D01*
X101943D01*
X102526Y123783D01*
Y126116D01*
X101943Y126699D01*
X100193D01*
X103692Y123200D02*
Y126699D01*
X105441D01*
X106025Y126116D01*
Y124949D01*
X105441Y124366D01*
X103692D01*
X104858D02*
X106025Y123200D01*
X169100Y109499D02*
Y106000D01*
X170849D01*
X171433Y106583D01*
Y108916D01*
X170849Y109499D01*
X169100D01*
X172599Y106000D02*
Y108333D01*
X173765Y109499D01*
X174931Y108333D01*
Y106000D01*
Y107749D01*
X172599D01*
X178430Y108916D02*
X177847Y109499D01*
X176681D01*
X176098Y108916D01*
Y106583D01*
X176681Y106000D01*
X177847D01*
X178430Y106583D01*
X179597Y105417D02*
X181929D01*
X183096Y106000D02*
Y108333D01*
X184262Y109499D01*
X185428Y108333D01*
Y106000D01*
Y107749D01*
X183096D01*
X186594Y109499D02*
Y106000D01*
X188344D01*
X188927Y106583D01*
Y108916D01*
X188344Y109499D01*
X186594D01*
X190093D02*
Y106000D01*
X191843D01*
X192426Y106583D01*
Y108916D01*
X191843Y109499D01*
X190093D01*
X193592Y106000D02*
Y109499D01*
X195342D01*
X195925Y108916D01*
Y107749D01*
X195342Y107166D01*
X193592D01*
X194758D02*
X195925Y106000D01*
X26200Y15300D02*
Y18799D01*
X27949D01*
X28533Y18216D01*
Y17049D01*
X27949Y16466D01*
X26200D01*
X29699Y18216D02*
X30282Y18799D01*
X31448D01*
X32032Y18216D01*
Y17633D01*
X31448Y17049D01*
X32032Y16466D01*
Y15883D01*
X31448Y15300D01*
X30282D01*
X29699Y15883D01*
Y16466D01*
X30282Y17049D01*
X29699Y17633D01*
Y18216D01*
X30282Y17049D02*
X31448D01*
X216200Y15300D02*
Y18799D01*
X217949D01*
X218533Y18216D01*
Y17049D01*
X217949Y16466D01*
X216200D01*
X219699Y18799D02*
X222031D01*
Y18216D01*
X219699Y15883D01*
Y15300D01*
X81700Y97800D02*
Y100133D01*
X82866Y101299D01*
X84033Y100133D01*
Y97800D01*
Y99549D01*
X81700D01*
X85199Y101299D02*
Y97800D01*
X87531D01*
X88698D02*
Y101299D01*
X90447D01*
X91030Y100716D01*
Y99549D01*
X90447Y98966D01*
X88698D01*
X89864D02*
X91030Y97800D01*
X92197Y101299D02*
X94529D01*
X93363D01*
Y97800D01*
X95696Y97217D02*
X98028D01*
X101527Y100716D02*
X100944Y101299D01*
X99778D01*
X99194Y100716D01*
Y100133D01*
X99778Y99549D01*
X100944D01*
X101527Y98966D01*
Y98383D01*
X100944Y97800D01*
X99778D01*
X99194Y98383D01*
X105026Y101299D02*
X102693D01*
Y97800D01*
X105026D01*
X102693Y99549D02*
X103859D01*
X106192Y101299D02*
Y97800D01*
X108525D01*
X113000Y41000D02*
Y43333D01*
X114166Y44499D01*
X115333Y43333D01*
Y41000D01*
Y42749D01*
X113000D01*
X116499Y44499D02*
Y41000D01*
X118248D01*
X118831Y41583D01*
Y43916D01*
X118248Y44499D01*
X116499D01*
X122330Y43916D02*
X121747Y44499D01*
X120581D01*
X119998Y43916D01*
Y41583D01*
X120581Y41000D01*
X121747D01*
X122330Y41583D01*
X123497Y40417D02*
X125829D01*
X126996Y44499D02*
X128162D01*
X127579D01*
Y41000D01*
X126996D01*
X128162D01*
X129911D02*
Y44499D01*
X132244Y41000D01*
Y44499D01*
X176700Y12899D02*
Y9400D01*
X178449D01*
X179033Y9983D01*
Y12316D01*
X178449Y12899D01*
X176700D01*
X180199Y9400D02*
Y11733D01*
X181365Y12899D01*
X182531Y11733D01*
Y9400D01*
Y11149D01*
X180199D01*
X186030Y12316D02*
X185447Y12899D01*
X184281D01*
X183698Y12316D01*
Y9983D01*
X184281Y9400D01*
X185447D01*
X186030Y9983D01*
X61400Y20000D02*
Y22333D01*
X62566Y23499D01*
X63733Y22333D01*
Y20000D01*
Y21749D01*
X61400D01*
X64899Y23499D02*
Y20000D01*
X66648D01*
X67231Y20583D01*
Y22916D01*
X66648Y23499D01*
X64899D01*
X70730Y22916D02*
X70147Y23499D01*
X68981D01*
X68398Y22916D01*
Y20583D01*
X68981Y20000D01*
X70147D01*
X70730Y20583D01*
X71897Y19417D02*
X74229D01*
X75396Y20000D02*
Y22333D01*
X76562Y23499D01*
X77728Y22333D01*
Y20000D01*
Y21749D01*
X75396D01*
X78894Y23499D02*
Y20000D01*
X81227D01*
X82393D02*
Y23499D01*
X84143D01*
X84726Y22916D01*
Y21749D01*
X84143Y21166D01*
X82393D01*
X83560D02*
X84726Y20000D01*
X85892Y23499D02*
X88225D01*
X87058D01*
Y20000D01*
X218700Y210700D02*
Y214199D01*
X220449D01*
X221033Y213616D01*
Y212449D01*
X220449Y211866D01*
X218700D01*
X224531Y210700D02*
X222199D01*
X224531Y213033D01*
Y213616D01*
X223948Y214199D01*
X222782D01*
X222199Y213616D01*
X34300Y173900D02*
Y177399D01*
X36049D01*
X36633Y176816D01*
Y175649D01*
X36049Y175066D01*
X34300D01*
X37799Y173900D02*
X38965D01*
X38382D01*
Y177399D01*
X37799Y176816D01*
X249900Y8599D02*
Y5100D01*
X251649D01*
X252233Y5683D01*
Y8016D01*
X251649Y8599D01*
X249900D01*
X253399Y8016D02*
X253982Y8599D01*
X255148D01*
X255731Y8016D01*
Y7433D01*
X255148Y6849D01*
X254565D01*
X255148D01*
X255731Y6266D01*
Y5683D01*
X255148Y5100D01*
X253982D01*
X253399Y5683D01*
X251000Y41299D02*
Y37800D01*
X252749D01*
X253333Y38383D01*
Y40716D01*
X252749Y41299D01*
X251000D01*
X256831Y37800D02*
X254499D01*
X256831Y40133D01*
Y40716D01*
X256248Y41299D01*
X255082D01*
X254499Y40716D01*
X253100Y73299D02*
Y69800D01*
X254849D01*
X255433Y70383D01*
Y72716D01*
X254849Y73299D01*
X253100D01*
X256599Y69800D02*
X257765D01*
X257182D01*
Y73299D01*
X256599Y72716D01*
X172333Y216516D02*
X171749Y217099D01*
X170583D01*
X170000Y216516D01*
Y214183D01*
X170583Y213600D01*
X171749D01*
X172333Y214183D01*
X173499Y217099D02*
X175831D01*
Y216516D01*
X173499Y214183D01*
Y213600D01*
X189633Y172616D02*
X189049Y173199D01*
X187883D01*
X187300Y172616D01*
Y170283D01*
X187883Y169700D01*
X189049D01*
X189633Y170283D01*
X193131Y173199D02*
X191965Y172616D01*
X190799Y171449D01*
Y170283D01*
X191382Y169700D01*
X192548D01*
X193131Y170283D01*
Y170866D01*
X192548Y171449D01*
X190799D01*
X128433Y175016D02*
X127849Y175599D01*
X126683D01*
X126100Y175016D01*
Y172683D01*
X126683Y172100D01*
X127849D01*
X128433Y172683D01*
X131931Y175599D02*
X129599D01*
Y173849D01*
X130765Y174433D01*
X131348D01*
X131931Y173849D01*
Y172683D01*
X131348Y172100D01*
X130182D01*
X129599Y172683D01*
X169533Y255516D02*
X168949Y256099D01*
X167783D01*
X167200Y255516D01*
Y253183D01*
X167783Y252600D01*
X168949D01*
X169533Y253183D01*
X172448Y252600D02*
Y256099D01*
X170699Y254349D01*
X173031D01*
X56733Y263016D02*
X56149Y263599D01*
X54983D01*
X54400Y263016D01*
Y260683D01*
X54983Y260100D01*
X56149D01*
X56733Y260683D01*
X57899Y263016D02*
X58482Y263599D01*
X59648D01*
X60231Y263016D01*
Y262433D01*
X59648Y261849D01*
X59065D01*
X59648D01*
X60231Y261266D01*
Y260683D01*
X59648Y260100D01*
X58482D01*
X57899Y260683D01*
X140433Y90416D02*
X139849Y90999D01*
X138683D01*
X138100Y90416D01*
Y88083D01*
X138683Y87500D01*
X139849D01*
X140433Y88083D01*
X143931Y87500D02*
X141599D01*
X143931Y89833D01*
Y90416D01*
X143348Y90999D01*
X142182D01*
X141599Y90416D01*
X185333Y81416D02*
X184749Y81999D01*
X183583D01*
X183000Y81416D01*
Y79083D01*
X183583Y78500D01*
X184749D01*
X185333Y79083D01*
X186499Y78500D02*
X187665D01*
X187082D01*
Y81999D01*
X186499Y81416D01*
X164251Y115900D02*
Y118233D01*
X162501Y121731D02*
X163084Y120565D01*
X164251Y119399D01*
X165417D01*
X166000Y119982D01*
Y121148D01*
X165417Y121731D01*
X164834D01*
X164251Y121148D01*
Y119399D01*
X163084Y122898D02*
X162501Y123481D01*
Y124647D01*
X163084Y125230D01*
X165417D01*
X166000Y124647D01*
Y123481D01*
X165417Y122898D01*
X163084D01*
X164251Y126397D02*
Y128729D01*
X193651Y116400D02*
Y118733D01*
X191901Y122231D02*
X192484Y121065D01*
X193651Y119899D01*
X194817D01*
X195400Y120482D01*
Y121648D01*
X194817Y122231D01*
X194234D01*
X193651Y121648D01*
Y119899D01*
X195400Y123398D02*
Y124564D01*
Y123981D01*
X191901D01*
X192484Y123398D01*
X193651Y126313D02*
Y128646D01*
X77951Y150300D02*
Y152633D01*
X79700Y155548D02*
X76201D01*
X77951Y153799D01*
Y156131D01*
X76201Y159630D02*
X76784Y158464D01*
X77951Y157298D01*
X79117D01*
X79700Y157881D01*
Y159047D01*
X79117Y159630D01*
X78534D01*
X77951Y159047D01*
Y157298D01*
Y160797D02*
Y163129D01*
X88751Y150300D02*
Y152633D01*
X90500Y155548D02*
X87001D01*
X88751Y153799D01*
Y156131D01*
X87001Y157298D02*
Y159630D01*
X87584D01*
X89917Y157298D01*
X90500D01*
X88751Y160797D02*
Y163129D01*
X98751Y150700D02*
Y153033D01*
X100500Y155948D02*
X97001D01*
X98751Y154199D01*
Y156531D01*
X97584Y157698D02*
X97001Y158281D01*
Y159447D01*
X97584Y160030D01*
X98167D01*
X98751Y159447D01*
X99334Y160030D01*
X99917D01*
X100500Y159447D01*
Y158281D01*
X99917Y157698D01*
X99334D01*
X98751Y158281D01*
X98167Y157698D01*
X97584D01*
X98751Y158281D02*
Y159447D01*
Y161197D02*
Y163529D01*
X108751Y150700D02*
Y153033D01*
X110500Y155948D02*
X107001D01*
X108751Y154199D01*
Y156531D01*
X109917Y157698D02*
X110500Y158281D01*
Y159447D01*
X109917Y160030D01*
X107584D01*
X107001Y159447D01*
Y158281D01*
X107584Y157698D01*
X108167D01*
X108751Y158281D01*
Y160030D01*
Y161197D02*
Y163529D01*
X51300Y-94500D02*
Y-92167D01*
X52466Y-91001D01*
X53633Y-92167D01*
Y-94500D01*
Y-92751D01*
X51300D01*
X54799Y-91584D02*
X55382Y-91001D01*
X56548D01*
X57131Y-91584D01*
Y-93917D01*
X56548Y-94500D01*
X55382D01*
X54799Y-93917D01*
Y-91584D01*
X51300Y-104500D02*
Y-102167D01*
X52466Y-101001D01*
X53633Y-102167D01*
Y-104500D01*
Y-102751D01*
X51300D01*
X54799Y-104500D02*
X55965D01*
X55382D01*
Y-101001D01*
X54799Y-101584D01*
X51300Y-115000D02*
Y-112667D01*
X52466Y-111501D01*
X53633Y-112667D01*
Y-115000D01*
Y-113251D01*
X51300D01*
X57131Y-115000D02*
X54799D01*
X57131Y-112667D01*
Y-112084D01*
X56548Y-111501D01*
X55382D01*
X54799Y-112084D01*
X51300Y-124700D02*
Y-122367D01*
X52466Y-121201D01*
X53633Y-122367D01*
Y-124700D01*
Y-122951D01*
X51300D01*
X54799Y-121784D02*
X55382Y-121201D01*
X56548D01*
X57131Y-121784D01*
Y-122367D01*
X56548Y-122951D01*
X55965D01*
X56548D01*
X57131Y-123534D01*
Y-124117D01*
X56548Y-124700D01*
X55382D01*
X54799Y-124117D01*
X51300Y-135200D02*
Y-132867D01*
X52466Y-131701D01*
X53633Y-132867D01*
Y-135200D01*
Y-133451D01*
X51300D01*
X56548Y-135200D02*
Y-131701D01*
X54799Y-133451D01*
X57131D01*
X51300Y-145500D02*
Y-143167D01*
X52466Y-142001D01*
X53633Y-143167D01*
Y-145500D01*
Y-143751D01*
X51300D01*
X57131Y-142001D02*
X54799D01*
Y-143751D01*
X55965Y-143167D01*
X56548D01*
X57131Y-143751D01*
Y-144917D01*
X56548Y-145500D01*
X55382D01*
X54799Y-144917D01*
X39100Y74900D02*
Y77233D01*
X40266Y78399D01*
X41433Y77233D01*
Y74900D01*
Y76649D01*
X39100D01*
X42599Y77816D02*
X43182Y78399D01*
X44348D01*
X44932Y77816D01*
Y75483D01*
X44348Y74900D01*
X43182D01*
X42599Y75483D01*
Y77816D01*
X39100Y64900D02*
Y67233D01*
X40266Y68399D01*
X41433Y67233D01*
Y64900D01*
Y66649D01*
X39100D01*
X42599Y64900D02*
X43765D01*
X43182D01*
Y68399D01*
X42599Y67816D01*
X39100Y54400D02*
Y56733D01*
X40266Y57899D01*
X41433Y56733D01*
Y54400D01*
Y56149D01*
X39100D01*
X44932Y54400D02*
X42599D01*
X44932Y56733D01*
Y57316D01*
X44348Y57899D01*
X43182D01*
X42599Y57316D01*
X39100Y44700D02*
Y47033D01*
X40266Y48199D01*
X41433Y47033D01*
Y44700D01*
Y46449D01*
X39100D01*
X42599Y47616D02*
X43182Y48199D01*
X44348D01*
X44932Y47616D01*
Y47033D01*
X44348Y46449D01*
X43765D01*
X44348D01*
X44932Y45866D01*
Y45283D01*
X44348Y44700D01*
X43182D01*
X42599Y45283D01*
X39100Y34200D02*
Y36533D01*
X40266Y37699D01*
X41433Y36533D01*
Y34200D01*
Y35949D01*
X39100D01*
X44348Y34200D02*
Y37699D01*
X42599Y35949D01*
X44932D01*
X39100Y23900D02*
Y26233D01*
X40266Y27399D01*
X41433Y26233D01*
Y23900D01*
Y25649D01*
X39100D01*
X44932Y27399D02*
X42599D01*
Y25649D01*
X43765Y26233D01*
X44348D01*
X44932Y25649D01*
Y24483D01*
X44348Y23900D01*
X43182D01*
X42599Y24483D01*
X39200Y157799D02*
X40366D01*
X39783D01*
Y154300D01*
X39200D01*
X40366D01*
X43865Y157799D02*
X42699D01*
X42116Y157216D01*
Y154883D01*
X42699Y154300D01*
X43865D01*
X44448Y154883D01*
Y157216D01*
X43865Y157799D01*
X45615Y154300D02*
Y157799D01*
X47364D01*
X47947Y157216D01*
Y156049D01*
X47364Y155466D01*
X45615D01*
X46781D02*
X47947Y154300D01*
X51446Y157799D02*
X49114D01*
Y154300D01*
X51446D01*
X49114Y156049D02*
X50280D01*
X54945Y157799D02*
X52612D01*
Y156049D01*
X53779D01*
X52612D01*
Y154300D01*
X39200Y145000D02*
Y148499D01*
X40949D01*
X41533Y147916D01*
Y146749D01*
X40949Y146166D01*
X39200D01*
X40366D02*
X41533Y145000D01*
X45031Y147916D02*
X44448Y148499D01*
X43282D01*
X42699Y147916D01*
Y147333D01*
X43282Y146749D01*
X44448D01*
X45031Y146166D01*
Y145583D01*
X44448Y145000D01*
X43282D01*
X42699Y145583D01*
X46198Y148499D02*
X48530D01*
X47364D01*
Y145000D01*
X39200Y137716D02*
X39783Y138299D01*
X40949D01*
X41533Y137716D01*
Y137133D01*
X40949Y136549D01*
X40366D01*
X40949D01*
X41533Y135966D01*
Y135383D01*
X40949Y134800D01*
X39783D01*
X39200Y135383D01*
X42699Y134800D02*
Y135383D01*
X43282D01*
Y134800D01*
X42699D01*
X45615Y137716D02*
X46198Y138299D01*
X47364D01*
X47947Y137716D01*
Y137133D01*
X47364Y136549D01*
X46781D01*
X47364D01*
X47947Y135966D01*
Y135383D01*
X47364Y134800D01*
X46198D01*
X45615Y135383D01*
X49114Y138299D02*
Y135966D01*
X50280Y134800D01*
X51446Y135966D01*
Y138299D01*
X41533Y128099D02*
X39200D01*
Y126349D01*
X40366Y126933D01*
X40949D01*
X41533Y126349D01*
Y125183D01*
X40949Y124600D01*
X39783D01*
X39200Y125183D01*
X42699Y128099D02*
Y125766D01*
X43865Y124600D01*
X45031Y125766D01*
Y128099D01*
X41533Y118016D02*
X40949Y118599D01*
X39783D01*
X39200Y118016D01*
Y115683D01*
X39783Y115100D01*
X40949D01*
X41533Y115683D01*
Y116849D01*
X40366D01*
X42699Y115100D02*
Y118599D01*
X45031Y115100D01*
Y118599D01*
X46198D02*
Y115100D01*
X47947D01*
X48530Y115683D01*
Y118016D01*
X47947Y118599D01*
X46198D01*
X41533Y107716D02*
X40949Y108299D01*
X39783D01*
X39200Y107716D01*
Y105383D01*
X39783Y104800D01*
X40949D01*
X41533Y105383D01*
Y106549D01*
X40366D01*
X42699Y104800D02*
Y108299D01*
X45031Y104800D01*
Y108299D01*
X46198D02*
Y104800D01*
X47947D01*
X48530Y105383D01*
Y107716D01*
X47947Y108299D01*
X46198D01*
X39200Y97999D02*
Y95666D01*
X40366Y94500D01*
X41533Y95666D01*
Y97999D01*
X42699D02*
X43865D01*
X43282D01*
Y94500D01*
X42699D01*
X43865D01*
X45615D02*
Y97999D01*
X47947Y94500D01*
Y97999D01*
X237520Y-92284D02*
X238103Y-91701D01*
X239270D01*
X239853Y-91118D01*
X241019Y-92284D02*
X241602Y-91701D01*
X242769D01*
X243352Y-92284D01*
Y-92867D01*
X242769Y-93451D01*
X242185D01*
X242769D01*
X243352Y-94034D01*
Y-94617D01*
X242769Y-95200D01*
X241602D01*
X241019Y-94617D01*
X244518Y-95783D02*
X246851D01*
X250349Y-92284D02*
X249766Y-91701D01*
X248600D01*
X248017Y-92284D01*
Y-92867D01*
X248600Y-93451D01*
X249766D01*
X250349Y-94034D01*
Y-94617D01*
X249766Y-95200D01*
X248600D01*
X248017Y-94617D01*
X253848Y-92284D02*
X253265Y-91701D01*
X252099D01*
X251516Y-92284D01*
Y-94617D01*
X252099Y-95200D01*
X253265D01*
X253848Y-94617D01*
X255015Y-91701D02*
Y-95200D01*
X257347D01*
X243352Y-105200D02*
X241019D01*
X243352Y-102867D01*
Y-102284D01*
X242769Y-101701D01*
X241602D01*
X241019Y-102284D01*
X244518Y-105783D02*
X246851D01*
X250349Y-102284D02*
X249766Y-101701D01*
X248600D01*
X248017Y-102284D01*
Y-102867D01*
X248600Y-103451D01*
X249766D01*
X250349Y-104034D01*
Y-104617D01*
X249766Y-105200D01*
X248600D01*
X248017Y-104617D01*
X251516Y-101701D02*
Y-105200D01*
X253265D01*
X253848Y-104617D01*
Y-102284D01*
X253265Y-101701D01*
X251516D01*
X255015Y-105200D02*
Y-102867D01*
X256181Y-101701D01*
X257347Y-102867D01*
Y-105200D01*
Y-103451D01*
X255015D01*
X244518Y-115700D02*
Y-113367D01*
X245684Y-112201D01*
X246851Y-113367D01*
Y-115700D01*
Y-113951D01*
X244518D01*
X248017Y-115700D02*
Y-112201D01*
X249766D01*
X250349Y-112784D01*
Y-113951D01*
X249766Y-114534D01*
X248017D01*
X249183D02*
X250349Y-115700D01*
X253848Y-112201D02*
X251516D01*
Y-115700D01*
X253848D01*
X251516Y-113951D02*
X252682D01*
X257347Y-112201D02*
X255015D01*
Y-113951D01*
X256181D01*
X255015D01*
Y-115700D01*
X250349Y-123284D02*
X249766Y-122701D01*
X248600D01*
X248017Y-123284D01*
Y-125617D01*
X248600Y-126200D01*
X249766D01*
X250349Y-125617D01*
Y-124451D01*
X249183D01*
X251516Y-126200D02*
Y-122701D01*
X253848Y-126200D01*
Y-122701D01*
X255015D02*
Y-126200D01*
X256764D01*
X257347Y-125617D01*
Y-123284D01*
X256764Y-122701D01*
X255015D01*
X248600Y-132284D02*
X249183Y-131701D01*
X250349D01*
X250933Y-131118D01*
X252099Y-135200D02*
X253265D01*
X252682D01*
Y-131701D01*
X252099Y-132284D01*
X255015D02*
X255598Y-131701D01*
X256764D01*
X257347Y-132284D01*
Y-132867D01*
X256764Y-133451D01*
X256181D01*
X256764D01*
X257347Y-134034D01*
Y-134617D01*
X256764Y-135200D01*
X255598D01*
X255015Y-134617D01*
X252099Y-146000D02*
X253265D01*
X252682D01*
Y-142501D01*
X252099Y-143084D01*
X257347Y-146000D02*
X255015D01*
X257347Y-143667D01*
Y-143084D01*
X256764Y-142501D01*
X255598D01*
X255015Y-143084D01*
X249766Y-152484D02*
X250349Y-151901D01*
X251516D01*
X252099Y-151318D01*
X253265Y-155400D02*
X254431D01*
X253848D01*
Y-151901D01*
X253265Y-152484D01*
X256181Y-155400D02*
X257347D01*
X256764D01*
Y-151901D01*
X256181Y-152484D01*
X248600Y-162184D02*
X249183Y-161601D01*
X250349D01*
X250933Y-161018D01*
X252099Y-165100D02*
X253265D01*
X252682D01*
Y-161601D01*
X252099Y-162184D01*
X255015D02*
X255598Y-161601D01*
X256764D01*
X257347Y-162184D01*
Y-164517D01*
X256764Y-165100D01*
X255598D01*
X255015Y-164517D01*
Y-162184D01*
X251516Y-172284D02*
X252099Y-171701D01*
X253265D01*
X253848Y-171118D01*
X255015Y-174617D02*
X255598Y-175200D01*
X256764D01*
X257347Y-174617D01*
Y-172284D01*
X256764Y-171701D01*
X255598D01*
X255015Y-172284D01*
Y-172867D01*
X255598Y-173451D01*
X257347D01*
X255015Y-182284D02*
X255598Y-181701D01*
X256764D01*
X257347Y-182284D01*
Y-182867D01*
X256764Y-183451D01*
X257347Y-184034D01*
Y-184617D01*
X256764Y-185200D01*
X255598D01*
X255015Y-184617D01*
Y-184034D01*
X255598Y-183451D01*
X255015Y-182867D01*
Y-182284D01*
X255598Y-183451D02*
X256764D01*
X194500Y204116D02*
X195083Y204699D01*
X196249D01*
X196833Y205282D01*
X197999Y204116D02*
X198582Y204699D01*
X199748D01*
X200331Y204116D01*
Y203533D01*
X199748Y202949D01*
X199165D01*
X199748D01*
X200331Y202366D01*
Y201783D01*
X199748Y201200D01*
X198582D01*
X197999Y201783D01*
X201498Y200617D02*
X203830D01*
X207329Y204116D02*
X206746Y204699D01*
X205580D01*
X204997Y204116D01*
Y203533D01*
X205580Y202949D01*
X206746D01*
X207329Y202366D01*
Y201783D01*
X206746Y201200D01*
X205580D01*
X204997Y201783D01*
X210828Y204116D02*
X210245Y204699D01*
X209079D01*
X208495Y204116D01*
Y201783D01*
X209079Y201200D01*
X210245D01*
X210828Y201783D01*
X211994Y204699D02*
Y201200D01*
X214327D01*
X198133Y191300D02*
X195800D01*
X198133Y193633D01*
Y194216D01*
X197549Y194799D01*
X196383D01*
X195800Y194216D01*
X199299Y190717D02*
X201631D01*
X205130Y194216D02*
X204547Y194799D01*
X203381D01*
X202798Y194216D01*
Y193633D01*
X203381Y193049D01*
X204547D01*
X205130Y192466D01*
Y191883D01*
X204547Y191300D01*
X203381D01*
X202798Y191883D01*
X206297Y194799D02*
Y191300D01*
X208046D01*
X208629Y191883D01*
Y194216D01*
X208046Y194799D01*
X206297D01*
X209795Y191300D02*
Y193633D01*
X210962Y194799D01*
X212128Y193633D01*
Y191300D01*
Y193049D01*
X209795D01*
X197300Y180500D02*
Y182833D01*
X198466Y183999D01*
X199633Y182833D01*
Y180500D01*
Y182249D01*
X197300D01*
X200799Y180500D02*
Y183999D01*
X202548D01*
X203131Y183416D01*
Y182249D01*
X202548Y181666D01*
X200799D01*
X201965D02*
X203131Y180500D01*
X206630Y183999D02*
X204298D01*
Y180500D01*
X206630D01*
X204298Y182249D02*
X205464D01*
X210129Y183999D02*
X207797D01*
Y182249D01*
X208963D01*
X207797D01*
Y180500D01*
X202649Y172816D02*
X202066Y173399D01*
X200900D01*
X200317Y172816D01*
Y170483D01*
X200900Y169900D01*
X202066D01*
X202649Y170483D01*
Y171649D01*
X201483D01*
X203816Y169900D02*
Y173399D01*
X206148Y169900D01*
Y173399D01*
X207315D02*
Y169900D01*
X209064D01*
X209647Y170483D01*
Y172816D01*
X209064Y173399D01*
X207315D01*
X200900Y163816D02*
X201483Y164399D01*
X202649D01*
X203233Y164982D01*
X204399Y160900D02*
X205565D01*
X204982D01*
Y164399D01*
X204399Y163816D01*
X207315D02*
X207898Y164399D01*
X209064D01*
X209647Y163816D01*
Y163233D01*
X209064Y162649D01*
X208481D01*
X209064D01*
X209647Y162066D01*
Y161483D01*
X209064Y160900D01*
X207898D01*
X207315Y161483D01*
X204399Y150100D02*
X205565D01*
X204982D01*
Y153599D01*
X204399Y153016D01*
X209647Y150100D02*
X207315D01*
X209647Y152433D01*
Y153016D01*
X209064Y153599D01*
X207898D01*
X207315Y153016D01*
X202066Y143616D02*
X202649Y144199D01*
X203816D01*
X204399Y144782D01*
X205565Y140700D02*
X206731D01*
X206148D01*
Y144199D01*
X205565Y143616D01*
X208481Y140700D02*
X209647D01*
X209064D01*
Y144199D01*
X208481Y143616D01*
X200900Y133916D02*
X201483Y134499D01*
X202649D01*
X203233Y135082D01*
X204399Y131000D02*
X205565D01*
X204982D01*
Y134499D01*
X204399Y133916D01*
X207315D02*
X207898Y134499D01*
X209064D01*
X209647Y133916D01*
Y131583D01*
X209064Y131000D01*
X207898D01*
X207315Y131583D01*
Y133916D01*
X203816Y123816D02*
X204399Y124399D01*
X205565D01*
X206148Y124982D01*
X207315Y121483D02*
X207898Y120900D01*
X209064D01*
X209647Y121483D01*
Y123816D01*
X209064Y124399D01*
X207898D01*
X207315Y123816D01*
Y123233D01*
X207898Y122649D01*
X209647D01*
X207315Y113816D02*
X207898Y114399D01*
X209064D01*
X209647Y113816D01*
Y113233D01*
X209064Y112649D01*
X209647Y112066D01*
Y111483D01*
X209064Y110900D01*
X207898D01*
X207315Y111483D01*
Y112066D01*
X207898Y112649D01*
X207315Y113233D01*
Y113816D01*
X207898Y112649D02*
X209064D01*
X209500Y99199D02*
X211833D01*
Y98616D01*
X209500Y96283D01*
Y95700D01*
X206001Y87916D02*
X206584Y88499D01*
X207751D01*
X208334Y89082D01*
X211833Y88499D02*
X210666Y87916D01*
X209500Y86749D01*
Y85583D01*
X210083Y85000D01*
X211249D01*
X211833Y85583D01*
Y86166D01*
X211249Y86749D01*
X209500D01*
X206001Y78016D02*
X206584Y78599D01*
X207751D01*
X208334Y79182D01*
X211833Y78599D02*
X209500D01*
Y76849D01*
X210666Y77433D01*
X211249D01*
X211833Y76849D01*
Y75683D01*
X211249Y75100D01*
X210083D01*
X209500Y75683D01*
X211249Y64800D02*
Y68299D01*
X209500Y66549D01*
X211833D01*
X206001Y57616D02*
X206584Y58199D01*
X207751D01*
X208334Y58782D01*
X209500Y57616D02*
X210083Y58199D01*
X211249D01*
X211833Y57616D01*
Y57033D01*
X211249Y56449D01*
X210666D01*
X211249D01*
X211833Y55866D01*
Y55283D01*
X211249Y54700D01*
X210083D01*
X209500Y55283D01*
X211833Y45000D02*
X209500D01*
X211833Y47333D01*
Y47916D01*
X211249Y48499D01*
X210083D01*
X209500Y47916D01*
X200170Y39199D02*
X202502D01*
X201336D01*
Y35700D01*
X203669Y39199D02*
X206001Y35700D01*
Y39199D02*
X203669Y35700D01*
X207167D02*
X209500Y38033D01*
X210666Y35700D02*
X211833D01*
X211249D01*
Y39199D01*
X210666Y38616D01*
X199003Y24400D02*
Y27899D01*
X200753D01*
X201336Y27316D01*
Y26149D01*
X200753Y25566D01*
X199003D01*
X200170D02*
X201336Y24400D01*
X202502Y27899D02*
X204835Y24400D01*
Y27899D02*
X202502Y24400D01*
X206001D02*
X208334Y26733D01*
X209500Y27316D02*
X210083Y27899D01*
X211249D01*
X211833Y27316D01*
Y24983D01*
X211249Y24400D01*
X210083D01*
X209500Y24983D01*
Y27316D01*
X137584Y31033D02*
X137001Y30449D01*
Y29283D01*
X137584Y28700D01*
X139917D01*
X140500Y29283D01*
Y30449D01*
X139917Y31033D01*
X137001Y32199D02*
X140500D01*
X138751D01*
Y34532D01*
X137001D01*
X140500D01*
Y38030D02*
Y35698D01*
X138167Y38030D01*
X137584D01*
X137001Y37447D01*
Y36281D01*
X137584Y35698D01*
X127584Y31033D02*
X127001Y30449D01*
Y29283D01*
X127584Y28700D01*
X129917D01*
X130500Y29283D01*
Y30449D01*
X129917Y31033D01*
X127001Y32199D02*
X130500D01*
X128751D01*
Y34532D01*
X127001D01*
X130500D01*
X127584Y35698D02*
X127001Y36281D01*
Y37447D01*
X127584Y38030D01*
X128167D01*
X128751Y37447D01*
Y36864D01*
Y37447D01*
X129334Y38030D01*
X129917D01*
X130500Y37447D01*
Y36281D01*
X129917Y35698D01*
X117584Y31033D02*
X117001Y30449D01*
Y29283D01*
X117584Y28700D01*
X119917D01*
X120500Y29283D01*
Y30449D01*
X119917Y31033D01*
X117001Y32199D02*
X120500D01*
X118751D01*
Y34532D01*
X117001D01*
X120500D01*
Y35698D02*
Y36864D01*
Y36281D01*
X117001D01*
X117584Y35698D01*
X106784Y31033D02*
X106201Y30449D01*
Y29283D01*
X106784Y28700D01*
X109117D01*
X109700Y29283D01*
Y30449D01*
X109117Y31033D01*
X106201Y32199D02*
X109700D01*
X107951D01*
Y34532D01*
X106201D01*
X109700D01*
X106784Y35698D02*
X106201Y36281D01*
Y37447D01*
X106784Y38030D01*
X109117D01*
X109700Y37447D01*
Y36281D01*
X109117Y35698D01*
X106784D01*
X92833Y11916D02*
X92249Y12499D01*
X91083D01*
X90500Y11916D01*
Y9583D01*
X91083Y9000D01*
X92249D01*
X92833Y9583D01*
Y10749D01*
X91666D01*
X93999Y9000D02*
Y12499D01*
X96331Y9000D01*
Y12499D01*
X97498D02*
Y9000D01*
X99247D01*
X99830Y9583D01*
Y11916D01*
X99247Y12499D01*
X97498D01*
X155601Y18600D02*
X157934D01*
X159100Y19766D01*
X157934Y20933D01*
X155601D01*
Y23848D02*
Y22682D01*
X156184Y22099D01*
X158517D01*
X159100Y22682D01*
Y23848D01*
X158517Y24431D01*
X156184D01*
X155601Y23848D01*
Y25598D02*
X158517D01*
X159100Y26181D01*
Y27347D01*
X158517Y27930D01*
X155601D01*
Y29097D02*
Y31429D01*
Y30263D01*
X159100D01*
X82633Y118999D02*
X80300D01*
Y115500D01*
X82633D01*
X80300Y117249D02*
X81466D01*
X83799Y118999D02*
X86131Y115500D01*
Y118999D02*
X83799Y115500D01*
X87298Y118999D02*
X89630D01*
X88464D01*
Y115500D01*
X101293Y118999D02*
Y115500D01*
X103043D01*
X103626Y116083D01*
Y118416D01*
X103043Y118999D01*
X101293D01*
X106542Y115500D02*
Y118999D01*
X104792Y117249D01*
X107125D01*
X67100Y83300D02*
Y86799D01*
X68266Y85633D01*
X69433Y86799D01*
Y83300D01*
X70599Y86799D02*
X71765D01*
X71182D01*
Y83300D01*
X70599D01*
X71765D01*
X75847Y86216D02*
X75264Y86799D01*
X74098D01*
X73515Y86216D01*
Y85633D01*
X74098Y85049D01*
X75264D01*
X75847Y84466D01*
Y83883D01*
X75264Y83300D01*
X74098D01*
X73515Y83883D01*
X78763Y86799D02*
X77597D01*
X77013Y86216D01*
Y83883D01*
X77597Y83300D01*
X78763D01*
X79346Y83883D01*
Y86216D01*
X78763Y86799D01*
X69233Y107516D02*
X68649Y108099D01*
X67483D01*
X66900Y107516D01*
Y106933D01*
X67483Y106349D01*
X68649D01*
X69233Y105766D01*
Y105183D01*
X68649Y104600D01*
X67483D01*
X66900Y105183D01*
X72731Y107516D02*
X72148Y108099D01*
X70982D01*
X70399Y107516D01*
Y105183D01*
X70982Y104600D01*
X72148D01*
X72731Y105183D01*
X73898Y108099D02*
Y104600D01*
Y105766D01*
X76230Y108099D01*
X74481Y106349D01*
X76230Y104600D01*
X67500Y93700D02*
Y97199D01*
X68666Y96033D01*
X69833Y97199D01*
Y93700D01*
X72748Y97199D02*
X71582D01*
X70999Y96616D01*
Y94283D01*
X71582Y93700D01*
X72748D01*
X73331Y94283D01*
Y96616D01*
X72748Y97199D01*
X76830Y96616D02*
X76247Y97199D01*
X75081D01*
X74498Y96616D01*
Y96033D01*
X75081Y95449D01*
X76247D01*
X76830Y94866D01*
Y94283D01*
X76247Y93700D01*
X75081D01*
X74498Y94283D01*
X77997Y97199D02*
X79163D01*
X78580D01*
Y93700D01*
X77997D01*
X79163D01*
X38500Y205899D02*
X39666D01*
X39083D01*
Y202400D01*
X38500D01*
X39666D01*
X43165Y205899D02*
X41999D01*
X41416Y205316D01*
Y202983D01*
X41999Y202400D01*
X43165D01*
X43748Y202983D01*
Y205316D01*
X43165Y205899D01*
X44915Y205316D02*
X45498Y205899D01*
X46664D01*
X47247Y205316D01*
Y202983D01*
X46664Y202400D01*
X45498D01*
X44915Y202983D01*
Y205316D01*
X39500Y215499D02*
X40666D01*
X40083D01*
Y212000D01*
X39500D01*
X40666D01*
X44165Y215499D02*
X42999D01*
X42416Y214916D01*
Y212583D01*
X42999Y212000D01*
X44165D01*
X44748Y212583D01*
Y214916D01*
X44165Y215499D01*
X48247Y212000D02*
X45915D01*
X48247Y214333D01*
Y214916D01*
X47664Y215499D01*
X46498D01*
X45915Y214916D01*
X39500Y225999D02*
X40666D01*
X40083D01*
Y222500D01*
X39500D01*
X40666D01*
X44165Y225999D02*
X42999D01*
X42416Y225416D01*
Y223083D01*
X42999Y222500D01*
X44165D01*
X44748Y223083D01*
Y225416D01*
X44165Y225999D01*
X45915Y222500D02*
X47081D01*
X46498D01*
Y225999D01*
X45915Y225416D01*
X51163Y225999D02*
X48830D01*
Y224249D01*
X49997Y224833D01*
X50580D01*
X51163Y224249D01*
Y223083D01*
X50580Y222500D01*
X49413D01*
X48830Y223083D01*
X39500Y235699D02*
X40666D01*
X40083D01*
Y232200D01*
X39500D01*
X40666D01*
X44165Y235699D02*
X42999D01*
X42416Y235116D01*
Y232783D01*
X42999Y232200D01*
X44165D01*
X44748Y232783D01*
Y235116D01*
X44165Y235699D01*
X45915Y232200D02*
X47081D01*
X46498D01*
Y235699D01*
X45915Y235116D01*
X48830D02*
X49413Y235699D01*
X50580D01*
X51163Y235116D01*
Y234533D01*
X50580Y233949D01*
X49997D01*
X50580D01*
X51163Y233366D01*
Y232783D01*
X50580Y232200D01*
X49413D01*
X48830Y232783D01*
X39500Y246199D02*
X40666D01*
X40083D01*
Y242700D01*
X39500D01*
X40666D01*
X44165Y246199D02*
X42999D01*
X42416Y245616D01*
Y243283D01*
X42999Y242700D01*
X44165D01*
X44748Y243283D01*
Y245616D01*
X44165Y246199D01*
X45915Y242700D02*
X47081D01*
X46498D01*
Y246199D01*
X45915Y245616D01*
X51163Y242700D02*
X48830D01*
X51163Y245033D01*
Y245616D01*
X50580Y246199D01*
X49413D01*
X48830Y245616D01*
X39500Y256199D02*
X40666D01*
X40083D01*
Y252700D01*
X39500D01*
X40666D01*
X44165Y256199D02*
X42999D01*
X42416Y255616D01*
Y253283D01*
X42999Y252700D01*
X44165D01*
X44748Y253283D01*
Y255616D01*
X44165Y256199D01*
X45915Y252700D02*
X47081D01*
X46498D01*
Y256199D01*
X45915Y255616D01*
X50580Y252700D02*
Y256199D01*
X48830Y254449D01*
X51163D01*
X208200Y234200D02*
Y236533D01*
X209366Y237699D01*
X210533Y236533D01*
Y234200D01*
Y235949D01*
X208200D01*
X214031Y234200D02*
X211699D01*
X214031Y236533D01*
Y237116D01*
X213448Y237699D01*
X212282D01*
X211699Y237116D01*
X209366Y244700D02*
Y247033D01*
X210533Y248199D01*
X211699Y247033D01*
Y244700D01*
Y246449D01*
X209366D01*
X212865Y244700D02*
X214031D01*
X213448D01*
Y248199D01*
X212865Y247616D01*
X208200Y254700D02*
Y257033D01*
X209366Y258199D01*
X210533Y257033D01*
Y254700D01*
Y256449D01*
X208200D01*
X211699Y257616D02*
X212282Y258199D01*
X213448D01*
X214031Y257616D01*
Y255283D01*
X213448Y254700D01*
X212282D01*
X211699Y255283D01*
Y257616D01*
X230400Y100000D02*
Y103499D01*
X232733Y100000D01*
Y103499D01*
X236231D02*
X233899D01*
Y100000D01*
X236231D01*
X233899Y101749D02*
X235065D01*
X239147Y103499D02*
X237981D01*
X237398Y102916D01*
Y100583D01*
X237981Y100000D01*
X239147D01*
X239730Y100583D01*
Y102916D01*
X239147Y103499D01*
X240897Y100000D02*
Y103499D01*
X242646D01*
X243229Y102916D01*
Y101749D01*
X242646Y101166D01*
X240897D01*
X244395Y103499D02*
X245562D01*
X244979D01*
Y100000D01*
X244395D01*
X245562D01*
X247311Y103499D02*
X249644Y100000D01*
Y103499D02*
X247311Y100000D01*
X253143Y103499D02*
X250810D01*
Y100000D01*
X253143D01*
X250810Y101749D02*
X251976D01*
X254309Y103499D02*
Y100000D01*
X256642D01*
X260140Y102916D02*
X259557Y103499D01*
X258391D01*
X257808Y102916D01*
Y102333D01*
X258391Y101749D01*
X259557D01*
X260140Y101166D01*
Y100583D01*
X259557Y100000D01*
X258391D01*
X257808Y100583D01*
D34*
X156900Y68200D02*
Y69200D01*
Y65800D02*
Y68200D01*
Y64800D02*
Y65800D01*
D35*
X123700Y124068D02*
Y126734D01*
X125033Y128067D01*
X126366Y126734D01*
Y124068D01*
Y126068D01*
X123700D01*
X127699Y128067D02*
Y124068D01*
X129698D01*
X130365Y124735D01*
Y127401D01*
X129698Y128067D01*
X127699D01*
X134363Y127401D02*
X133697Y128067D01*
X132364D01*
X131697Y127401D01*
Y124735D01*
X132364Y124068D01*
X133697D01*
X134363Y124735D01*
X136363Y123402D02*
X137029Y124068D01*
Y124735D01*
X136363D01*
Y124068D01*
X137029D01*
X136363Y123402D01*
X135696Y122735D01*
X143694Y128067D02*
Y124068D01*
X145693D01*
X146359Y124735D01*
Y127401D01*
X145693Y128067D01*
X143694D01*
X147692Y124068D02*
Y126734D01*
X149025Y128067D01*
X150358Y126734D01*
Y124068D01*
Y126068D01*
X147692D01*
X154357Y127401D02*
X153690Y128067D01*
X152357D01*
X151691Y127401D01*
Y124735D01*
X152357Y124068D01*
X153690D01*
X154357Y124735D01*
X123700Y121589D02*
Y117590D01*
X125033Y118923D01*
X126366Y117590D01*
Y121589D01*
X127699Y117590D02*
X129032D01*
X128365D01*
Y120256D01*
X127699D01*
X133697Y121589D02*
X131031D01*
Y119589D01*
X132364D01*
X131031D01*
Y117590D01*
X135030D02*
X136363D01*
X135696D01*
Y120256D01*
X135030D01*
X123700Y111111D02*
Y115110D01*
X126366Y111111D01*
Y115110D01*
X129698Y111111D02*
X128365D01*
X127699Y111778D01*
Y113111D01*
X128365Y113777D01*
X129698D01*
X130365Y113111D01*
Y112444D01*
X127699D01*
X132364Y111111D02*
X133697D01*
X134363Y111778D01*
Y113111D01*
X133697Y113777D01*
X132364D01*
X131697Y113111D01*
Y111778D01*
X132364Y111111D01*
X135696Y109778D02*
Y113777D01*
X137696D01*
X138362Y113111D01*
Y111778D01*
X137696Y111111D01*
X135696D01*
X139695D02*
X141028D01*
X140361D01*
Y113777D01*
X139695D01*
X143027D02*
X145693Y111111D01*
X144360Y112444D01*
X145693Y113777D01*
X143027Y111111D01*
X149025D02*
X147692D01*
X147026Y111778D01*
Y113111D01*
X147692Y113777D01*
X149025D01*
X149692Y113111D01*
Y112444D01*
X147026D01*
X151024Y111111D02*
X152357D01*
X151691D01*
Y115110D01*
X151024D01*
X126366Y106632D02*
X125699Y107299D01*
X124366D01*
X123700Y106632D01*
Y105966D01*
X124366Y105299D01*
X125699D01*
X126366Y104633D01*
Y103966D01*
X125699Y103300D01*
X124366D01*
X123700Y103966D01*
X127699Y107299D02*
Y103300D01*
Y105299D01*
X128365Y105966D01*
X129698D01*
X130365Y105299D01*
Y103300D01*
X131697D02*
X133030D01*
X132364D01*
Y105966D01*
X131697D01*
X137029Y103300D02*
X135696D01*
X135030Y103966D01*
Y105299D01*
X135696Y105966D01*
X137029D01*
X137696Y105299D01*
Y104633D01*
X135030D01*
X139028Y103300D02*
X140361D01*
X139695D01*
Y107299D01*
X139028D01*
X145026D02*
Y103300D01*
X143027D01*
X142361Y103966D01*
Y105299D01*
X143027Y105966D01*
X145026D01*
X171766Y226832D02*
X171099Y227499D01*
X169766D01*
X169100Y226832D01*
Y226166D01*
X169766Y225499D01*
X171099D01*
X171766Y224833D01*
Y224166D01*
X171099Y223500D01*
X169766D01*
X169100Y224166D01*
X173099Y227499D02*
Y223500D01*
Y224833D01*
X175765Y227499D01*
X173765Y225499D01*
X175765Y223500D01*
X179097Y227499D02*
X177764D01*
X177097Y226832D01*
Y224166D01*
X177764Y223500D01*
X179097D01*
X179763Y224166D01*
Y226832D01*
X179097Y227499D01*
X185095D02*
Y223500D01*
X187094D01*
X187761Y224166D01*
Y224833D01*
X187094Y225499D01*
X185095D01*
X187094D01*
X187761Y226166D01*
Y226832D01*
X187094Y227499D01*
X185095D01*
X189094D02*
Y224166D01*
X189760Y223500D01*
X191093D01*
X191759Y224166D01*
Y227499D01*
X195758D02*
X193092D01*
Y225499D01*
X194425D01*
X193092D01*
Y223500D01*
X199757Y227499D02*
X197091D01*
Y225499D01*
X198424D01*
X197091D01*
Y223500D01*
X203755Y226832D02*
X203089Y227499D01*
X201756D01*
X201090Y226832D01*
Y226166D01*
X201756Y225499D01*
X203089D01*
X203755Y224833D01*
Y224166D01*
X203089Y223500D01*
X201756D01*
X201090Y224166D01*
X209087Y224833D02*
Y228165D01*
Y224166D02*
Y223500D01*
X210420Y224833D02*
Y228165D01*
Y224166D02*
Y223500D01*
X211753Y224833D02*
Y228165D01*
Y224166D02*
Y223500D01*
M02*
