G04 Layer_Color=8388736*
%FSLAX25Y25*%
%MOIN*%
G70*
G01*
G75*
%ADD20C,0.01000*%
%ADD36R,0.05131X0.07493*%
%ADD37R,0.07493X0.05131*%
%ADD38R,0.06706X0.04737*%
%ADD39R,0.06233X0.09068*%
%ADD40R,0.06647X0.04343*%
%ADD41R,0.16548X0.16548*%
%ADD42R,0.03000X0.06000*%
%ADD43R,0.06509X0.01981*%
%ADD44R,0.06587X0.01981*%
%ADD45R,0.06706X0.06706*%
%ADD46C,0.06706*%
%ADD47R,0.06706X0.06706*%
%ADD48C,0.03300*%
D20*
X100Y100D02*
Y273200D01*
Y100D02*
X200Y0D01*
X250000D01*
X100Y273200D02*
X250000D01*
Y0D02*
Y273200D01*
D36*
X163915Y262500D02*
D03*
X153285D02*
D03*
X49185Y261500D02*
D03*
X59815D02*
D03*
X59615Y250700D02*
D03*
X48985D02*
D03*
X81785Y87900D02*
D03*
X92415D02*
D03*
X154185Y171900D02*
D03*
X164815D02*
D03*
X189115Y198400D02*
D03*
X178485D02*
D03*
X94270Y173600D02*
D03*
X104900D02*
D03*
X229985Y212400D02*
D03*
X240615D02*
D03*
D37*
X155100Y89785D02*
D03*
Y100415D02*
D03*
X101500Y87085D02*
D03*
Y97715D02*
D03*
X115000Y84015D02*
D03*
Y73385D02*
D03*
X179600Y62785D02*
D03*
Y73415D02*
D03*
X39600Y59630D02*
D03*
Y49000D02*
D03*
X141000Y100315D02*
D03*
Y89685D02*
D03*
X128400Y61185D02*
D03*
Y71815D02*
D03*
X169400Y90285D02*
D03*
Y100915D02*
D03*
X167500Y73915D02*
D03*
Y63285D02*
D03*
D38*
X220454Y60399D02*
D03*
Y47801D02*
D03*
X239746D02*
D03*
Y60399D02*
D03*
X220454Y27999D02*
D03*
Y15401D02*
D03*
X239746D02*
D03*
Y27999D02*
D03*
X220554Y92599D02*
D03*
Y80001D02*
D03*
X239846D02*
D03*
Y92599D02*
D03*
D39*
X223481Y260913D02*
D03*
X241119D02*
D03*
X223481Y225087D02*
D03*
X241119D02*
D03*
D40*
X71290Y265791D02*
D03*
Y259886D02*
D03*
Y253980D02*
D03*
Y248075D02*
D03*
Y242169D02*
D03*
Y236264D02*
D03*
Y230358D02*
D03*
Y224453D02*
D03*
Y218547D02*
D03*
X141310D02*
D03*
Y224453D02*
D03*
Y230358D02*
D03*
Y236264D02*
D03*
Y242169D02*
D03*
Y248075D02*
D03*
Y253980D02*
D03*
Y259886D02*
D03*
Y265791D02*
D03*
D41*
X110237Y240594D02*
D03*
D42*
X143100Y61900D02*
D03*
X146800D02*
D03*
X150500D02*
D03*
Y72100D02*
D03*
X146800D02*
D03*
X143100D02*
D03*
D43*
X81539Y73037D02*
D03*
D44*
Y71069D02*
D03*
Y69100D02*
D03*
Y67132D02*
D03*
Y65163D02*
D03*
X98861D02*
D03*
Y67132D02*
D03*
Y69100D02*
D03*
Y71069D02*
D03*
Y73037D02*
D03*
D45*
X44000Y85900D02*
D03*
X14900Y26700D02*
D03*
X204900D02*
D03*
Y112700D02*
D03*
X14900Y96700D02*
D03*
X15200Y253500D02*
D03*
X205300Y256900D02*
D03*
D46*
X44000Y95900D02*
D03*
Y105900D02*
D03*
X14900Y36700D02*
D03*
Y46700D02*
D03*
Y56700D02*
D03*
Y66700D02*
D03*
Y76700D02*
D03*
X204900Y36700D02*
D03*
Y46700D02*
D03*
Y56700D02*
D03*
Y66700D02*
D03*
Y76700D02*
D03*
Y86700D02*
D03*
Y96700D02*
D03*
Y132700D02*
D03*
Y202700D02*
D03*
Y192700D02*
D03*
Y182700D02*
D03*
Y172700D02*
D03*
Y162700D02*
D03*
Y152700D02*
D03*
Y142700D02*
D03*
Y122700D02*
D03*
X14900Y106700D02*
D03*
Y116700D02*
D03*
Y126700D02*
D03*
Y136700D02*
D03*
Y146700D02*
D03*
Y156700D02*
D03*
Y166700D02*
D03*
X15200Y243500D02*
D03*
Y233500D02*
D03*
Y223500D02*
D03*
Y213500D02*
D03*
Y203500D02*
D03*
X167800Y127400D02*
D03*
Y117400D02*
D03*
X157800Y127400D02*
D03*
X205300Y246900D02*
D03*
Y236900D02*
D03*
X168600Y35100D02*
D03*
X58600D02*
D03*
X121600Y21700D02*
D03*
Y11700D02*
D03*
X111600Y21700D02*
D03*
Y11700D02*
D03*
X101600Y21700D02*
D03*
Y11700D02*
D03*
X91600Y21700D02*
D03*
X142400Y11400D02*
D03*
X62800Y12000D02*
D03*
X77400Y108800D02*
D03*
X87400D02*
D03*
X92600Y143100D02*
D03*
Y133100D02*
D03*
X82600Y143100D02*
D03*
Y133100D02*
D03*
X72600Y143100D02*
D03*
Y133100D02*
D03*
X62600Y143100D02*
D03*
X88600Y198800D02*
D03*
X158600D02*
D03*
X148600D02*
D03*
X138600D02*
D03*
X128600D02*
D03*
X118600D02*
D03*
X108600D02*
D03*
X98600D02*
D03*
X78600D02*
D03*
X158600Y185100D02*
D03*
X148600D02*
D03*
X138600D02*
D03*
X128600D02*
D03*
X118600D02*
D03*
X108600D02*
D03*
X98600D02*
D03*
X88600D02*
D03*
X78600D02*
D03*
X68600D02*
D03*
X58600D02*
D03*
X48600D02*
D03*
D47*
X157800Y117400D02*
D03*
X158600Y35100D02*
D03*
X48600D02*
D03*
X91600Y11700D02*
D03*
X152400Y11400D02*
D03*
X52800Y12000D02*
D03*
X67400Y108800D02*
D03*
X62600Y133100D02*
D03*
X68600Y198800D02*
D03*
X168600Y185100D02*
D03*
D48*
X223481Y266797D02*
D03*
Y219203D02*
D03*
X153285Y267597D02*
D03*
X145983Y265791D02*
D03*
X136636Y236264D02*
D03*
X110237Y250219D02*
D03*
X75964Y218547D02*
D03*
X215852Y92599D02*
D03*
X215752Y60399D02*
D03*
Y27999D02*
D03*
X146800Y57550D02*
D03*
X49700Y59630D02*
D03*
X174500Y90300D02*
D03*
X150500Y76450D02*
D03*
X109900Y75000D02*
D03*
X100300Y105400D02*
D03*
X101470Y112370D02*
D03*
X190900Y76700D02*
D03*
X66600Y224500D02*
D03*
X104900Y178700D02*
D03*
X66600Y248100D02*
D03*
X136600Y259900D02*
D03*
X76000Y242169D02*
D03*
Y230400D02*
D03*
Y254000D02*
D03*
X66600Y236264D02*
D03*
X146000Y218547D02*
D03*
X108000Y61185D02*
D03*
X184700Y62800D02*
D03*
X229985Y187653D02*
D03*
X92800Y75800D02*
D03*
X72200Y69100D02*
D03*
X137000Y61600D02*
D03*
X105100Y69378D02*
D03*
X156300Y66900D02*
D03*
M02*
