G04 Layer_Physical_Order=1*
G04 Layer_Color=255*
%FSLAX25Y25*%
%MOIN*%
G70*
G01*
G75*
%ADD10R,0.04331X0.06693*%
%ADD11R,0.06693X0.04331*%
%ADD12R,0.05905X0.03937*%
%ADD13R,0.05433X0.08268*%
%ADD14R,0.05847X0.03543*%
%ADD15R,0.15748X0.15748*%
%ADD16R,0.02200X0.05200*%
%ADD17R,0.05709X0.01181*%
%ADD18R,0.05787X0.01181*%
%ADD19C,0.02000*%
%ADD20C,0.01000*%
%ADD21R,0.05905X0.05905*%
%ADD22C,0.05905*%
%ADD23R,0.05905X0.05905*%
%ADD24C,0.02500*%
D10*
X163915Y262500D02*
D03*
X153285D02*
D03*
X49185Y261500D02*
D03*
X59815D02*
D03*
X59615Y250700D02*
D03*
X48985D02*
D03*
X81785Y87900D02*
D03*
X92415D02*
D03*
X154185Y171900D02*
D03*
X164815D02*
D03*
X189115Y198400D02*
D03*
X178485D02*
D03*
X94270Y173600D02*
D03*
X104900D02*
D03*
X229985Y212400D02*
D03*
X240615D02*
D03*
D11*
X155100Y89785D02*
D03*
Y100415D02*
D03*
X101500Y87085D02*
D03*
Y97715D02*
D03*
X115000Y84015D02*
D03*
Y73385D02*
D03*
X179600Y62785D02*
D03*
Y73415D02*
D03*
X39600Y59630D02*
D03*
Y49000D02*
D03*
X141000Y100315D02*
D03*
Y89685D02*
D03*
X128400Y61185D02*
D03*
Y71815D02*
D03*
X169400Y90285D02*
D03*
Y100915D02*
D03*
X167500Y73915D02*
D03*
Y63285D02*
D03*
D12*
X220454Y60399D02*
D03*
Y47801D02*
D03*
X239746D02*
D03*
Y60399D02*
D03*
X220454Y27999D02*
D03*
Y15401D02*
D03*
X239746D02*
D03*
Y27999D02*
D03*
X220554Y92599D02*
D03*
Y80001D02*
D03*
X239846D02*
D03*
Y92599D02*
D03*
D13*
X223481Y260913D02*
D03*
X241119D02*
D03*
X223481Y225087D02*
D03*
X241119D02*
D03*
D14*
X71290Y265791D02*
D03*
Y259886D02*
D03*
Y253980D02*
D03*
Y248075D02*
D03*
Y242169D02*
D03*
Y236264D02*
D03*
Y230358D02*
D03*
Y224453D02*
D03*
Y218547D02*
D03*
X141310D02*
D03*
Y224453D02*
D03*
Y230358D02*
D03*
Y236264D02*
D03*
Y242169D02*
D03*
Y248075D02*
D03*
Y253980D02*
D03*
Y259886D02*
D03*
Y265791D02*
D03*
D15*
X110237Y240594D02*
D03*
D16*
X143100Y61900D02*
D03*
X146800D02*
D03*
X150500D02*
D03*
Y72100D02*
D03*
X146800D02*
D03*
X143100D02*
D03*
D17*
X81539Y73037D02*
D03*
D18*
Y71069D02*
D03*
Y69100D02*
D03*
Y67132D02*
D03*
Y65163D02*
D03*
X98861D02*
D03*
Y67132D02*
D03*
Y69100D02*
D03*
Y71069D02*
D03*
Y73037D02*
D03*
D19*
X223481Y260913D02*
Y266797D01*
Y219203D02*
Y225087D01*
X153285Y262500D02*
Y267597D01*
X141310Y265791D02*
X145983D01*
X136636Y236264D02*
X141310D01*
X110237Y240594D02*
Y250219D01*
X71290Y218547D02*
X75964D01*
X215852Y92599D02*
X220554D01*
X215752Y60399D02*
X220454D01*
X215752Y27999D02*
X220454D01*
X146800Y57550D02*
Y61900D01*
X155100Y100415D02*
X162000D01*
X162500Y100915D01*
X169400D01*
Y108300D01*
X167800Y109900D02*
X169400Y108300D01*
X167800Y109900D02*
Y117400D01*
X167500Y73915D02*
X173300D01*
X173800Y73415D01*
X179600D01*
X48985Y250700D02*
Y256000D01*
X49185Y256200D01*
Y261500D01*
X94270Y173600D02*
Y177100D01*
X98600Y181430D01*
Y185100D01*
X39600Y59630D02*
X49700D01*
X14900Y106700D02*
X22453Y114253D01*
Y129147D01*
X14900Y136700D02*
X22453Y129147D01*
X239746Y47801D02*
X244700Y52755D01*
Y75146D01*
X239846Y80001D02*
X244700Y75146D01*
X234800Y15401D02*
X239746D01*
X225899Y6500D02*
X234800Y15401D01*
X209700Y6500D02*
X225899D01*
X188000Y28200D02*
X209700Y6500D01*
X188000Y28200D02*
Y66100D01*
X185000Y69100D02*
X188000Y66100D01*
X180900Y69100D02*
X185000D01*
X179600Y70400D02*
X180900Y69100D01*
X179600Y70400D02*
Y73415D01*
X101470Y97715D02*
X101500D01*
X88600Y185100D02*
X93553Y190053D01*
Y203753D01*
X91953Y205353D02*
X93553Y203753D01*
X51732Y205353D02*
X91953D01*
X48985Y208100D02*
X51732Y205353D01*
X48985Y208100D02*
Y250700D01*
X42600Y198500D02*
X49453Y205353D01*
X42600Y151700D02*
Y198500D01*
X32600Y141700D02*
X42600Y151700D01*
X12300Y141700D02*
X32600D01*
X9900Y139300D02*
X12300Y141700D01*
X9900Y131700D02*
Y139300D01*
Y131700D02*
X14900Y126700D01*
X164000Y77415D02*
X167500Y73915D01*
X164000Y77415D02*
Y95515D01*
X169400Y100915D01*
X111200Y85300D02*
X115000Y84015D01*
X101500Y95000D02*
X111200Y85300D01*
X101500Y95000D02*
Y97715D01*
X73600Y193800D02*
X78600Y198800D01*
X73600Y160600D02*
Y193800D01*
Y160600D02*
X77600Y156600D01*
Y138100D02*
Y156600D01*
X72600Y133100D02*
X77600Y138100D01*
X239746Y15401D02*
X244300Y19955D01*
Y43246D01*
X239746Y47801D02*
X244300Y43246D01*
X229985Y187653D02*
Y212400D01*
X36100Y59630D02*
X39600D01*
X22500Y101700D02*
X36100Y88100D01*
X12300Y101700D02*
X22500D01*
X9900Y104100D02*
X12300Y101700D01*
X9900Y104100D02*
Y121700D01*
X14900Y126700D01*
X100300Y97715D02*
X101470D01*
X36100Y59630D02*
Y88100D01*
X49453Y205353D02*
X51732D01*
X115000Y84015D02*
X116200D01*
X128400Y71815D01*
X100300Y97715D02*
Y105400D01*
X101470Y97715D02*
Y112370D01*
D20*
X81539Y73037D02*
Y80300D01*
X81785Y80546D01*
Y87900D01*
X240615Y212400D02*
Y218400D01*
X241119Y218904D01*
Y225087D01*
X77400Y72100D02*
Y108800D01*
Y72100D02*
X78431Y71069D01*
X81539D01*
X98861Y73037D02*
X101500D01*
X94900Y71069D02*
X98861D01*
X87900Y78068D02*
Y98600D01*
X82600Y103900D02*
X87900Y98600D01*
X82600Y103900D02*
Y133100D01*
X220454Y47801D02*
X225501D01*
X229000Y51300D01*
Y76300D01*
X239900Y87200D01*
X239846Y92599D02*
X239900D01*
X236100Y60399D02*
X239746D01*
X235043Y59342D02*
X236100Y60399D01*
X235043Y25844D02*
Y59342D01*
X224600Y15401D02*
X235043Y25844D01*
X220454Y15401D02*
X224600D01*
X146800Y72100D02*
Y86500D01*
X150085Y89785D01*
X155100D01*
X142000Y111600D02*
X157800Y127400D01*
X141000Y100315D02*
X142000D01*
X169400Y90285D02*
X174485D01*
X174500Y90300D01*
X150500Y72100D02*
Y76450D01*
X143100Y72100D02*
Y80900D01*
X141000Y83000D02*
X143100Y80900D01*
X141000Y83000D02*
Y89685D01*
X111515Y73385D02*
X115000D01*
X109900Y75000D02*
X111515Y73385D01*
X59615Y250700D02*
Y254515D01*
X61215D02*
X66586Y259886D01*
X71290D01*
X158600Y185100D02*
X163100Y180600D01*
X173100D01*
X185100Y192600D01*
Y197000D01*
X186500Y198400D01*
X189115D01*
X128600Y185100D02*
X135500Y192000D01*
X163600D01*
X170000Y198400D01*
X178485D01*
X152100Y178700D02*
X154185Y176615D01*
X145000Y178700D02*
X152100D01*
X138600Y185100D02*
X145000Y178700D01*
X148600Y185100D02*
X153100Y180600D01*
X159200D01*
X164815Y174985D01*
Y171900D02*
Y174985D01*
X53100Y94500D02*
X67400Y108800D01*
X53100Y22200D02*
Y94500D01*
X52800Y21900D02*
X53100Y22200D01*
X52800Y12000D02*
Y21900D01*
X177315Y90285D02*
X190900Y76700D01*
X118600Y198800D02*
X123100Y203300D01*
X192000D01*
X192400Y202900D01*
Y95000D02*
Y202900D01*
Y95000D02*
X195300Y92100D01*
Y46300D02*
Y92100D01*
Y46300D02*
X204900Y36700D01*
X141310Y248075D02*
X160175D01*
X163915Y251815D01*
Y262500D01*
X66600Y224500D02*
X66647Y224453D01*
X71290D01*
X104900Y173600D02*
Y178700D01*
X66600Y248100D02*
X66625Y248075D01*
X71290D01*
X136614Y259886D02*
X141310D01*
X136600Y259900D02*
X136614Y259886D01*
X77500Y35800D02*
X91600Y21700D01*
X77500Y35800D02*
Y67132D01*
X81539D01*
Y65163D02*
X86300D01*
X98300Y53163D01*
Y25000D02*
Y53163D01*
Y25000D02*
X101600Y21700D01*
X98861Y65163D02*
X101200D01*
X121600Y21700D02*
Y36100D01*
X111600Y21700D02*
Y42400D01*
X71290Y242169D02*
X76000D01*
X75958Y230358D02*
X76000Y230400D01*
X71290Y230358D02*
X75958D01*
X75980Y253980D02*
X76000Y254000D01*
X71290Y253980D02*
X75980D01*
X66600Y236264D02*
X71290D01*
X134100Y194300D02*
X138600Y198800D01*
X115400Y194300D02*
X134100D01*
X113100Y196600D02*
X115400Y194300D01*
X113100Y196600D02*
Y201700D01*
X111500Y203300D02*
X113100Y201700D01*
X104700Y203300D02*
X111500D01*
X103100Y201700D02*
X104700Y203300D01*
X103100Y195900D02*
Y201700D01*
X93100Y185900D02*
X103100Y195900D01*
X93100Y182400D02*
Y185900D01*
X91300Y180600D02*
X93100Y182400D01*
X86500Y180600D02*
X91300D01*
X83100Y184000D02*
X86500Y180600D01*
X83100Y184000D02*
Y201853D01*
X81700Y203253D02*
X83100Y201853D01*
X64900Y203253D02*
X81700D01*
X64100Y202453D02*
X64900Y203253D01*
X64100Y167100D02*
Y202453D01*
X39500Y142500D02*
X64100Y167100D01*
X39500Y90400D02*
Y142500D01*
Y90400D02*
X44000Y85900D01*
X198847Y106647D02*
X204900Y112700D01*
X198847Y72753D02*
Y106647D01*
Y72753D02*
X204900Y66700D01*
X141310Y218547D02*
X146000D01*
X200569Y242169D02*
X205300Y246900D01*
X141310Y242169D02*
X200569D01*
X142400Y11400D02*
Y36700D01*
X143100Y37400D01*
Y61900D01*
X59815Y261500D02*
X64106Y265791D01*
X71290D01*
X150500Y61900D02*
X151885Y63285D01*
X163915Y262500D02*
X212500D01*
X220900Y254100D01*
X228300D01*
X233700Y259500D01*
X241119D02*
Y260913D01*
X193700Y37900D02*
X204900Y26700D01*
X193700Y37900D02*
Y80600D01*
X187900Y86400D02*
X193700Y80600D01*
X187900Y86400D02*
Y122900D01*
X174900Y135900D02*
X187900Y122900D01*
X139400Y135900D02*
X174900D01*
X113700Y161600D02*
X139400Y135900D01*
X113700Y161600D02*
Y193700D01*
X108600Y198800D02*
X113700Y193700D01*
X216900Y80001D02*
X220554D01*
X211100Y74201D02*
X216900Y80001D01*
X211100Y52900D02*
Y74201D01*
X204900Y46700D02*
X211100Y52900D01*
X112100Y68000D02*
X146600D01*
X107063Y73037D02*
X112100Y68000D01*
X108000Y61185D02*
X126400D01*
X204900Y122700D02*
X208847Y118753D01*
X210953D01*
Y82753D02*
Y118753D01*
X204900Y76700D02*
X210953Y82753D01*
X141310Y224453D02*
X175447D01*
X196951Y202949D01*
Y66949D02*
Y202949D01*
Y66949D02*
X201700Y62200D01*
X207500D01*
X209400Y64100D01*
Y70500D01*
X207653Y72247D02*
X209400Y70500D01*
X201700Y72247D02*
X207653D01*
X200447Y73500D02*
X201700Y72247D01*
X200447Y73500D02*
Y82247D01*
X204900Y86700D01*
Y96700D02*
X209353Y101153D01*
Y117153D01*
X203300D02*
X209353D01*
X200400Y120053D02*
X203300Y117153D01*
X200400Y120053D02*
Y225258D01*
X195300Y230358D02*
X200400Y225258D01*
X141310Y230358D02*
X195300D01*
X184685Y62785D02*
X184700Y62800D01*
X179600Y62785D02*
X184685D01*
X92600Y143100D02*
X97900Y137800D01*
Y113200D02*
Y137800D01*
X92415Y107715D02*
X97900Y113200D01*
X92415Y87900D02*
Y107715D01*
X78600Y185100D02*
X87100Y176600D01*
Y140900D02*
Y176600D01*
X83753Y137553D02*
X87100Y140900D01*
X80756Y137553D02*
X83753D01*
X77100Y133897D02*
X80756Y137553D01*
X77100Y127500D02*
Y133897D01*
X48800Y99200D02*
X77100Y127500D01*
X47300Y99200D02*
X48800D01*
X44000Y95900D02*
X47300Y99200D01*
X39600Y44100D02*
X48600Y35100D01*
X39600Y44100D02*
Y49000D01*
X44000Y105900D02*
X67600Y129500D01*
Y146000D01*
X68600Y147000D01*
Y185100D01*
X59615Y254515D02*
X61215D01*
X239900Y87200D02*
Y92599D01*
X241119Y225087D02*
Y259500D01*
X233700D02*
X241119D01*
X142000Y100315D02*
Y111600D01*
X101500Y73037D02*
X107063D01*
X154185Y171900D02*
Y176615D01*
X104581Y53118D02*
X121600Y36100D01*
X104581Y53118D02*
Y61782D01*
X101200Y65163D02*
X104581Y61782D01*
X92800Y73168D02*
Y75800D01*
X87900Y78068D02*
X92800Y73168D01*
X94900Y71069D01*
X92300Y61700D02*
X111600Y42400D01*
X94332Y67132D02*
X98861D01*
X92300Y65100D02*
X94332Y67132D01*
X92300Y61700D02*
Y65100D01*
X72200Y69100D02*
X81539D01*
X126400Y61185D02*
X126815Y61600D01*
X98861Y69100D02*
X99139Y69378D01*
X105100D01*
X146700Y72000D02*
X146800Y72100D01*
X146600Y68000D02*
X146700Y70050D01*
X146800Y72100D01*
X146700Y70050D02*
Y72000D01*
X126815Y61600D02*
X137000D01*
X174485Y90285D02*
X177315D01*
X151885Y63285D02*
X167500D01*
X146700Y70050D02*
X149850Y66900D01*
X156300D01*
X101500Y73037D02*
Y87085D01*
X100Y100D02*
Y273200D01*
Y100D02*
X200Y0D01*
X250000D01*
X100Y273200D02*
X250000D01*
Y0D02*
Y273200D01*
D21*
X44000Y85900D02*
D03*
X14900Y26700D02*
D03*
X204900D02*
D03*
Y112700D02*
D03*
X14900Y96700D02*
D03*
X15200Y253500D02*
D03*
X205300Y256900D02*
D03*
D22*
X44000Y95900D02*
D03*
Y105900D02*
D03*
X14900Y36700D02*
D03*
Y46700D02*
D03*
Y56700D02*
D03*
Y66700D02*
D03*
Y76700D02*
D03*
X204900Y36700D02*
D03*
Y46700D02*
D03*
Y56700D02*
D03*
Y66700D02*
D03*
Y76700D02*
D03*
Y86700D02*
D03*
Y96700D02*
D03*
Y132700D02*
D03*
Y202700D02*
D03*
Y192700D02*
D03*
Y182700D02*
D03*
Y172700D02*
D03*
Y162700D02*
D03*
Y152700D02*
D03*
Y142700D02*
D03*
Y122700D02*
D03*
X14900Y106700D02*
D03*
Y116700D02*
D03*
Y126700D02*
D03*
Y136700D02*
D03*
Y146700D02*
D03*
Y156700D02*
D03*
Y166700D02*
D03*
X15200Y243500D02*
D03*
Y233500D02*
D03*
Y223500D02*
D03*
Y213500D02*
D03*
Y203500D02*
D03*
X167800Y127400D02*
D03*
Y117400D02*
D03*
X157800Y127400D02*
D03*
X205300Y246900D02*
D03*
Y236900D02*
D03*
X168600Y35100D02*
D03*
X58600D02*
D03*
X121600Y21700D02*
D03*
Y11700D02*
D03*
X111600Y21700D02*
D03*
Y11700D02*
D03*
X101600Y21700D02*
D03*
Y11700D02*
D03*
X91600Y21700D02*
D03*
X142400Y11400D02*
D03*
X62800Y12000D02*
D03*
X77400Y108800D02*
D03*
X87400D02*
D03*
X92600Y143100D02*
D03*
Y133100D02*
D03*
X82600Y143100D02*
D03*
Y133100D02*
D03*
X72600Y143100D02*
D03*
Y133100D02*
D03*
X62600Y143100D02*
D03*
X88600Y198800D02*
D03*
X158600D02*
D03*
X148600D02*
D03*
X138600D02*
D03*
X128600D02*
D03*
X118600D02*
D03*
X108600D02*
D03*
X98600D02*
D03*
X78600D02*
D03*
X158600Y185100D02*
D03*
X148600D02*
D03*
X138600D02*
D03*
X128600D02*
D03*
X118600D02*
D03*
X108600D02*
D03*
X98600D02*
D03*
X88600D02*
D03*
X78600D02*
D03*
X68600D02*
D03*
X58600D02*
D03*
X48600D02*
D03*
D23*
X157800Y117400D02*
D03*
X158600Y35100D02*
D03*
X48600D02*
D03*
X91600Y11700D02*
D03*
X152400Y11400D02*
D03*
X52800Y12000D02*
D03*
X67400Y108800D02*
D03*
X62600Y133100D02*
D03*
X68600Y198800D02*
D03*
X168600Y185100D02*
D03*
D24*
X223481Y266797D02*
D03*
Y219203D02*
D03*
X153285Y267597D02*
D03*
X145983Y265791D02*
D03*
X136636Y236264D02*
D03*
X110237Y250219D02*
D03*
X75964Y218547D02*
D03*
X215852Y92599D02*
D03*
X215752Y60399D02*
D03*
Y27999D02*
D03*
X146800Y57550D02*
D03*
X49700Y59630D02*
D03*
X174500Y90300D02*
D03*
X150500Y76450D02*
D03*
X109900Y75000D02*
D03*
X100300Y105400D02*
D03*
X101470Y112370D02*
D03*
X190900Y76700D02*
D03*
X66600Y224500D02*
D03*
X104900Y178700D02*
D03*
X66600Y248100D02*
D03*
X136600Y259900D02*
D03*
X76000Y242169D02*
D03*
Y230400D02*
D03*
Y254000D02*
D03*
X66600Y236264D02*
D03*
X146000Y218547D02*
D03*
X108000Y61185D02*
D03*
X184700Y62800D02*
D03*
X229985Y187653D02*
D03*
X92800Y75800D02*
D03*
X72200Y69100D02*
D03*
X137000Y61600D02*
D03*
X105100Y69378D02*
D03*
X156300Y66900D02*
D03*
M02*
