G04 Layer_Color=16711935*
%FSLAX25Y25*%
%MOIN*%
G70*
G01*
G75*
%ADD20C,0.01000*%
%ADD45R,0.06706X0.06706*%
%ADD46C,0.06706*%
%ADD47R,0.06706X0.06706*%
D20*
X266200Y0D02*
Y273200D01*
X-100D02*
X266200D01*
X-100Y0D02*
Y273200D01*
Y0D02*
X266200D01*
D45*
X221500Y256900D02*
D03*
X31400Y253500D02*
D03*
X31100Y166700D02*
D03*
X221100Y202700D02*
D03*
Y96700D02*
D03*
X31100Y76700D02*
D03*
X60200Y85900D02*
D03*
X12100Y103500D02*
D03*
Y141900D02*
D03*
D46*
X64800Y185100D02*
D03*
X74800D02*
D03*
X84800D02*
D03*
X94800D02*
D03*
X104800D02*
D03*
X114800D02*
D03*
X124800D02*
D03*
X134800D02*
D03*
X144800D02*
D03*
X154800D02*
D03*
X164800D02*
D03*
X174800D02*
D03*
X94800Y198800D02*
D03*
X114800D02*
D03*
X124800D02*
D03*
X134800D02*
D03*
X144800D02*
D03*
X154800D02*
D03*
X164800D02*
D03*
X174800D02*
D03*
X104800D02*
D03*
X78800Y143100D02*
D03*
X88800Y133100D02*
D03*
Y143100D02*
D03*
X98800Y133100D02*
D03*
Y143100D02*
D03*
X108800Y133100D02*
D03*
Y143100D02*
D03*
X103600Y108800D02*
D03*
X93600D02*
D03*
X79000Y12000D02*
D03*
X158600Y11400D02*
D03*
X107800Y21700D02*
D03*
X117800Y11700D02*
D03*
Y21700D02*
D03*
X127800Y11700D02*
D03*
Y21700D02*
D03*
X137800Y11700D02*
D03*
Y21700D02*
D03*
X74800Y35100D02*
D03*
X184800D02*
D03*
X221500Y236900D02*
D03*
Y246900D02*
D03*
X174000Y127400D02*
D03*
X184000Y117400D02*
D03*
Y127400D02*
D03*
X31400Y203500D02*
D03*
Y213500D02*
D03*
Y223500D02*
D03*
Y233500D02*
D03*
Y243500D02*
D03*
X31100Y96700D02*
D03*
Y106700D02*
D03*
Y116700D02*
D03*
Y126700D02*
D03*
Y136700D02*
D03*
Y146700D02*
D03*
Y156700D02*
D03*
X221100Y192700D02*
D03*
Y172700D02*
D03*
Y162700D02*
D03*
Y152700D02*
D03*
Y142700D02*
D03*
Y132700D02*
D03*
Y122700D02*
D03*
Y112700D02*
D03*
Y182700D02*
D03*
Y26700D02*
D03*
Y36700D02*
D03*
Y46700D02*
D03*
Y56700D02*
D03*
Y66700D02*
D03*
Y76700D02*
D03*
Y86700D02*
D03*
X31100Y26700D02*
D03*
Y36700D02*
D03*
Y46700D02*
D03*
Y56700D02*
D03*
Y66700D02*
D03*
X60200Y105900D02*
D03*
Y95900D02*
D03*
X12100Y123500D02*
D03*
Y113500D02*
D03*
Y161900D02*
D03*
Y151900D02*
D03*
D47*
X184800Y185100D02*
D03*
X84800Y198800D02*
D03*
X78800Y133100D02*
D03*
X83600Y108800D02*
D03*
X69000Y12000D02*
D03*
X168600Y11400D02*
D03*
X107800Y11700D02*
D03*
X64800Y35100D02*
D03*
X174800D02*
D03*
X174000Y117400D02*
D03*
M02*
