G04 Layer_Physical_Order=1*
G04 Layer_Color=255*
%FSLAX25Y25*%
%MOIN*%
G70*
G01*
G75*
%ADD10R,0.04331X0.06693*%
%ADD11R,0.05905X0.05905*%
%ADD12R,0.06693X0.04331*%
%ADD13R,0.05905X0.03937*%
%ADD14R,0.05433X0.08268*%
%ADD15R,0.05847X0.03543*%
%ADD16R,0.15748X0.15748*%
%ADD17R,0.02200X0.05200*%
%ADD18R,0.05709X0.01181*%
%ADD19R,0.05787X0.01181*%
%ADD20C,0.02000*%
%ADD21C,0.01000*%
%ADD22C,0.05905*%
%ADD23R,0.05905X0.05905*%
%ADD24C,0.02500*%
D10*
X40515Y187200D02*
D03*
X29885D02*
D03*
X180115Y262500D02*
D03*
X169485D02*
D03*
X65385Y261500D02*
D03*
X76015D02*
D03*
X75815Y250700D02*
D03*
X65185D02*
D03*
X97985Y87900D02*
D03*
X108615D02*
D03*
X170385Y171900D02*
D03*
X181015D02*
D03*
X191615Y215300D02*
D03*
X180985D02*
D03*
X110470Y173600D02*
D03*
X121100D02*
D03*
X246185Y212400D02*
D03*
X256815D02*
D03*
D11*
X12100Y181210D02*
D03*
Y194990D02*
D03*
Y237510D02*
D03*
Y251290D02*
D03*
Y141900D02*
D03*
Y103500D02*
D03*
X60200Y85900D02*
D03*
X31100Y76700D02*
D03*
X221100Y96700D02*
D03*
Y202700D02*
D03*
X31100Y166700D02*
D03*
X31400Y253500D02*
D03*
X221500Y256900D02*
D03*
D12*
X13600Y208785D02*
D03*
Y219415D02*
D03*
X171300Y89785D02*
D03*
Y100415D02*
D03*
X117700Y87085D02*
D03*
Y97715D02*
D03*
X131200Y84015D02*
D03*
Y73385D02*
D03*
X195800Y62785D02*
D03*
Y73415D02*
D03*
X55800Y59630D02*
D03*
Y49000D02*
D03*
X157200Y100315D02*
D03*
Y89685D02*
D03*
X144600Y61185D02*
D03*
Y71815D02*
D03*
X185600Y90285D02*
D03*
Y100915D02*
D03*
X183700Y73915D02*
D03*
Y63285D02*
D03*
D13*
X236654Y60399D02*
D03*
Y47801D02*
D03*
X255946D02*
D03*
Y60399D02*
D03*
X236654Y27999D02*
D03*
Y15401D02*
D03*
X255946D02*
D03*
Y27999D02*
D03*
X236754Y92599D02*
D03*
Y80001D02*
D03*
X256046D02*
D03*
Y92599D02*
D03*
D14*
X239681Y260913D02*
D03*
X257319D02*
D03*
X239681Y225087D02*
D03*
X257319D02*
D03*
D15*
X87490Y265791D02*
D03*
Y259886D02*
D03*
Y253980D02*
D03*
Y248075D02*
D03*
Y242169D02*
D03*
Y236264D02*
D03*
Y230358D02*
D03*
Y224453D02*
D03*
Y218547D02*
D03*
X157510D02*
D03*
Y224453D02*
D03*
Y230358D02*
D03*
Y236264D02*
D03*
Y242169D02*
D03*
Y248075D02*
D03*
Y253980D02*
D03*
Y259886D02*
D03*
Y265791D02*
D03*
D16*
X126437Y240594D02*
D03*
D17*
X159300Y61900D02*
D03*
X163000D02*
D03*
X166700D02*
D03*
Y72100D02*
D03*
X163000D02*
D03*
X159300D02*
D03*
D18*
X97739Y73037D02*
D03*
D19*
Y71069D02*
D03*
Y69100D02*
D03*
Y67132D02*
D03*
Y65163D02*
D03*
X115061D02*
D03*
Y67132D02*
D03*
Y69100D02*
D03*
Y71069D02*
D03*
Y73037D02*
D03*
D20*
X40515Y193115D02*
X65185Y217785D01*
X40515Y187200D02*
Y193115D01*
X65185Y209000D02*
Y217785D01*
X21600Y171700D02*
X28800Y178900D01*
X31400D01*
X39533Y187033D01*
X21600Y151400D02*
Y171700D01*
X39533Y187033D02*
X40515Y187200D01*
X96200Y212400D02*
Y213664D01*
X163000Y57550D02*
Y61900D01*
X91316Y218547D02*
X96200Y213664D01*
X256000Y12900D02*
Y15401D01*
X194600Y70400D02*
Y73415D01*
X131200Y84015D02*
Y86700D01*
X120185Y97715D02*
X131200Y86700D01*
X117700Y97715D02*
X120185D01*
X137485Y84015D02*
X144800Y76700D01*
X131200Y84015D02*
X137485D01*
X144600Y71815D02*
Y76500D01*
X144800Y76700D01*
X189753Y73415D02*
X194600D01*
X255946Y47801D02*
X260500Y43246D01*
Y19955D02*
Y43246D01*
X255946Y15401D02*
X260500Y19955D01*
X256046Y80001D02*
X260900Y75146D01*
Y52755D02*
Y75146D01*
X255946Y47801D02*
X260900Y52755D01*
X83847Y138053D02*
X88800Y133100D01*
X83847Y138053D02*
Y148053D01*
X89800Y154006D01*
Y189158D01*
X94800Y194158D01*
Y198800D01*
X180200Y77415D02*
X183700Y73915D01*
X180200Y77415D02*
Y95515D01*
X185600Y100915D01*
X55800Y59630D02*
X63300D01*
X44970D02*
X55800D01*
X42900Y61700D02*
X44970Y59630D01*
X25900Y61700D02*
X42900D01*
X22700Y64900D02*
X25900Y61700D01*
X22700Y64900D02*
Y131300D01*
X12100Y141900D02*
X22700Y131300D01*
X12100Y141900D02*
X21600Y151400D01*
X109800Y190100D02*
X114800Y185100D01*
X109800Y190100D02*
Y215900D01*
X246185Y212400D02*
Y227300D01*
X110470Y173600D02*
Y180770D01*
X114800Y185100D01*
X46285Y190100D02*
X65185Y209000D01*
X87490Y218547D02*
X91316D01*
X230352Y57199D02*
X233552Y60399D01*
X236654D01*
X170582Y267597D02*
X171085D01*
X169485Y266500D02*
X170582Y267597D01*
X169485Y262500D02*
Y266500D01*
X194600Y73415D02*
X195800D01*
X190800Y66600D02*
X194600Y70400D01*
X190800Y44600D02*
Y66600D01*
Y44600D02*
X226900Y8500D01*
X251600D01*
X256000Y12900D01*
X255946Y15401D02*
X256000D01*
X112600Y97700D02*
X112615Y97715D01*
X117700D01*
X189253Y73915D02*
X189753Y73415D01*
X183700Y73915D02*
X189253D01*
X65185Y217785D02*
Y250700D01*
X8515Y208785D02*
X13600D01*
X8500Y208800D02*
X8515Y208785D01*
X31100Y166700D02*
X36100Y161700D01*
Y101700D02*
Y161700D01*
X31100Y96700D02*
X36100Y101700D01*
X184000Y109900D02*
Y117400D01*
Y109900D02*
X185600Y108300D01*
Y100915D02*
Y108300D01*
X178700Y100915D02*
X185600D01*
X178200Y100415D02*
X178700Y100915D01*
X171300Y100415D02*
X178200D01*
X65385Y256200D02*
Y261500D01*
X65185Y256000D02*
X65385Y256200D01*
X65185Y250700D02*
Y256000D01*
X231952Y27999D02*
X236654D01*
X12100Y194990D02*
Y199693D01*
X232052Y92599D02*
X236754D01*
X12100Y251290D02*
Y255993D01*
X126437Y240594D02*
Y250219D01*
X152836Y236264D02*
X157510D01*
Y265791D02*
X162183D01*
X239681Y219203D02*
Y225087D01*
Y260913D02*
Y266797D01*
D21*
X160196Y257200D02*
X164100D01*
X157510Y259886D02*
X160196Y257200D01*
X96300Y204700D02*
X99300Y201700D01*
X91500Y204700D02*
X96300D01*
X89253Y202453D02*
X91500Y204700D01*
X87076Y192124D02*
X89253Y194300D01*
X81824Y192124D02*
X87076D01*
X74800Y185100D02*
X81824Y192124D01*
X97639Y69000D02*
X97739Y69100D01*
X87400Y69000D02*
X97639D01*
X87400Y68800D02*
X87422Y68822D01*
X181015Y173100D02*
X189300D01*
X74600Y221500D02*
X132100D01*
X154800Y198800D01*
X159300Y12100D02*
Y61900D01*
X158600Y11400D02*
X159300Y12100D01*
X92200Y37300D02*
Y65500D01*
X93832Y67132D01*
X97739D01*
X92200Y37300D02*
X107800Y21700D01*
X75815Y254515D02*
X77415D01*
X130000Y70800D02*
Y73385D01*
X173050Y197200D02*
X223700D01*
X173050D02*
Y198800D01*
X158200Y100315D02*
Y111600D01*
X163000Y79200D02*
Y86500D01*
X116500Y84400D02*
Y87085D01*
X117700Y79200D02*
Y87085D01*
Y73037D02*
Y79200D01*
X200300Y67500D02*
X216600Y51200D01*
X106900Y71069D02*
X111100D01*
X155100Y222600D02*
X157510D01*
X194231Y246900D02*
X221500D01*
X189500Y242169D02*
X194231Y246900D01*
X157510Y242169D02*
X189500D01*
X80306Y265791D02*
X87490D01*
X76015Y261500D02*
X80306Y265791D01*
X168085Y63285D02*
X183700D01*
X166700Y61900D02*
X168085Y63285D01*
X82800Y248100D02*
X82825Y248075D01*
X87490Y230358D02*
X92200D01*
X208300Y96700D02*
X221100D01*
X205100Y99900D02*
X208300Y96700D01*
X205100Y99900D02*
Y119900D01*
X159800Y165200D02*
X205100Y119900D01*
X159800Y165200D02*
Y189200D01*
X157100Y191900D02*
X159800Y189200D01*
X131700Y191900D02*
X157100D01*
X124800Y198800D02*
X131700Y191900D01*
X134800Y198800D02*
X138200D01*
X142700Y194300D01*
X162253D01*
X169253Y187300D01*
Y182453D02*
Y187300D01*
X167100Y180300D02*
X169253Y182453D01*
X167100Y167400D02*
Y180300D01*
Y167400D02*
X198700D01*
X209500Y156600D01*
Y108900D02*
Y156600D01*
Y108900D02*
X212900Y105500D01*
X224300D01*
X225600Y104200D01*
Y91200D02*
Y104200D01*
X221100Y86700D02*
X225600Y91200D01*
X116500Y87085D02*
X117700D01*
X115500Y83400D02*
X116500Y84400D01*
X105349Y83400D02*
X115500D01*
X105349D02*
Y103449D01*
X108053Y106153D01*
Y109753D01*
X108800Y110500D01*
Y133100D01*
X116784Y61185D02*
X144600D01*
X108615Y87900D02*
Y101709D01*
X114100Y107194D01*
Y137800D01*
X108800Y143100D02*
X114100Y137800D01*
X55700Y90400D02*
X60200Y85900D01*
X55700Y90400D02*
Y163700D01*
X69300Y177300D01*
Y216200D01*
X74600Y221500D01*
X94800Y146500D02*
Y185100D01*
X94347Y146047D02*
X94800Y146500D01*
X94347Y130047D02*
Y146047D01*
X60200Y95900D02*
X94347Y130047D01*
X181015Y171900D02*
Y173100D01*
X180985Y215300D02*
Y220400D01*
X55800Y44100D02*
Y49000D01*
Y44100D02*
X64800Y35100D01*
X18090Y187200D02*
X29885D01*
X12100Y181210D02*
X18090Y187200D01*
X185600Y90285D02*
X190600D01*
X200300Y80585D01*
Y67500D02*
Y80585D01*
X121100Y173600D02*
Y178700D01*
X170385Y171900D02*
Y177000D01*
X157510Y222600D02*
Y224453D01*
X153400Y220900D02*
X155100Y222600D01*
X153400Y216100D02*
Y220900D01*
Y216100D02*
X154600Y214900D01*
X165100D01*
X173900Y223700D01*
X209700D01*
X242500Y190900D01*
Y73900D02*
Y190900D01*
X227602Y59002D02*
X242500Y73900D01*
X227602Y43202D02*
Y59002D01*
X221100Y36700D02*
X227602Y43202D01*
X157510Y218547D02*
X161047D01*
X179400Y236900D01*
X221500D01*
X157510Y230358D02*
X168558D01*
X177700Y239500D01*
X192900D01*
X194800Y241400D01*
X224300D01*
X226000Y239700D01*
Y209700D02*
Y239700D01*
Y209700D02*
X244100Y191600D01*
Y58400D02*
Y191600D01*
X240300Y54600D02*
X244100Y58400D01*
X235500Y54600D02*
X240300D01*
X232200Y51300D02*
X235500Y54600D01*
X232200Y37800D02*
Y51300D01*
X221100Y26700D02*
X232200Y37800D01*
X163000Y72100D02*
Y79200D01*
X98800Y103900D02*
Y133100D01*
Y103900D02*
X103749Y98951D01*
Y78419D02*
Y98951D01*
Y78419D02*
X111100Y71069D01*
X115061D01*
X89253Y194300D02*
Y202453D01*
X99300Y165200D02*
Y201700D01*
Y165200D02*
X103600Y160900D01*
Y108800D02*
Y160900D01*
X216600Y51200D02*
X221100Y46700D01*
X216600Y51200D02*
Y78500D01*
X219300Y81200D01*
X224300D01*
X229300Y86200D01*
Y102900D01*
X224300Y107900D02*
X229300Y102900D01*
X219200Y107900D02*
X224300D01*
X216600Y110500D02*
X219200Y107900D01*
X216600Y110500D02*
Y188200D01*
X221100Y192700D01*
X191615Y210715D02*
Y215300D01*
X185900Y205000D02*
X191615Y210715D01*
X173100Y205000D02*
X185900D01*
X169800Y201700D02*
X173100Y205000D01*
X169800Y190100D02*
Y201700D01*
Y190100D02*
X174800Y185100D01*
X173050Y198800D02*
X174800D01*
X223700Y197200D02*
X225600Y195300D01*
Y117200D02*
Y195300D01*
X221100Y112700D02*
X225600Y117200D01*
X180115Y251890D02*
Y262500D01*
X176300Y248075D02*
X180115Y251890D01*
X157510Y248075D02*
X176300D01*
X180115Y262500D02*
X223600D01*
X230900Y269800D01*
X253219D01*
X257319Y265700D01*
Y260913D02*
Y265700D01*
X79300Y224453D02*
X87490D01*
X82825Y248075D02*
X87490D01*
X97739Y65163D02*
X101100D01*
X103300Y62963D01*
Y36200D02*
Y62963D01*
Y36200D02*
X117800Y21700D01*
X110910Y48590D02*
X137800Y21700D01*
X110910Y48590D02*
Y64573D01*
X111500Y65163D01*
X115061D01*
X108900Y40600D02*
X127800Y21700D01*
X108900Y40600D02*
Y66832D01*
X109200Y67132D01*
X115061D01*
X92169Y242169D02*
X92200Y242200D01*
X87490Y242169D02*
X92169D01*
X87490Y253980D02*
X92200D01*
X82800Y236264D02*
X87490D01*
X70036Y223500D02*
X82800Y236264D01*
X115061Y73037D02*
X117700D01*
X130000Y73385D02*
X131200D01*
X128300Y69100D02*
X130000Y70800D01*
X115061Y69100D02*
X128300D01*
X82786Y259886D02*
X87490D01*
X77415Y254515D02*
X82786Y259886D01*
X75815Y250700D02*
Y254515D01*
X200885Y62785D02*
X200900Y62800D01*
X195800Y62785D02*
X200885D01*
X157200Y83000D02*
Y89685D01*
Y83000D02*
X159300Y80900D01*
Y72100D02*
Y80900D01*
X157200Y100315D02*
X158200D01*
Y111600D02*
X174000Y127400D01*
X221100Y56700D02*
X240900Y76500D01*
Y182900D01*
X221100Y202700D02*
X240900Y182900D01*
X144600Y61185D02*
X149700D01*
X166700Y72100D02*
Y76450D01*
X166285Y89785D02*
X171300D01*
X163000Y86500D02*
X166285Y89785D01*
X249900Y92599D02*
X256046D01*
X247300Y89999D02*
X249900Y92599D01*
X247300Y49601D02*
Y89999D01*
X245500Y47801D02*
X247300Y49601D01*
X236654Y47801D02*
X245500D01*
X252300Y60399D02*
X255946D01*
X251243Y59342D02*
X252300Y60399D01*
X251243Y25844D02*
Y59342D01*
X240800Y15401D02*
X251243Y25844D01*
X236654Y15401D02*
X240800D01*
X69000Y12000D02*
Y21900D01*
X69300Y22200D01*
Y94500D01*
X83600Y108800D01*
X60200Y105900D02*
Y160500D01*
X84800Y185100D01*
X163000Y67800D02*
Y72100D01*
X94631Y71069D02*
X97739D01*
X93600Y72100D02*
X94631Y71069D01*
X93600Y72100D02*
Y108800D01*
X97985Y80546D02*
Y87900D01*
X97739Y80300D02*
X97985Y80546D01*
X97739Y73037D02*
Y80300D01*
X257319Y225087D02*
Y260913D01*
Y218904D02*
Y225087D01*
X256815Y218400D02*
X257319Y218904D01*
X256815Y212400D02*
Y218400D01*
X230501Y80001D02*
X236754D01*
X227200Y76700D02*
X230501Y80001D01*
X221100Y76700D02*
X227200D01*
X12100Y229200D02*
Y237510D01*
Y229200D02*
X13600Y227700D01*
Y219415D02*
Y227700D01*
X12100Y151900D02*
Y161900D01*
Y113500D02*
Y123500D01*
X-100Y0D02*
X266200D01*
X-100D02*
Y273200D01*
X266200D01*
Y0D02*
Y273200D01*
D22*
X12100Y151900D02*
D03*
Y161900D02*
D03*
Y113500D02*
D03*
Y123500D02*
D03*
X60200Y95900D02*
D03*
Y105900D02*
D03*
X31100Y66700D02*
D03*
Y56700D02*
D03*
Y46700D02*
D03*
Y36700D02*
D03*
Y26700D02*
D03*
X221100Y86700D02*
D03*
Y76700D02*
D03*
Y66700D02*
D03*
Y56700D02*
D03*
Y46700D02*
D03*
Y36700D02*
D03*
Y26700D02*
D03*
Y182700D02*
D03*
Y112700D02*
D03*
Y122700D02*
D03*
Y132700D02*
D03*
Y142700D02*
D03*
Y152700D02*
D03*
Y162700D02*
D03*
Y172700D02*
D03*
Y192700D02*
D03*
X31100Y156700D02*
D03*
Y146700D02*
D03*
Y136700D02*
D03*
Y126700D02*
D03*
Y116700D02*
D03*
Y106700D02*
D03*
Y96700D02*
D03*
X31400Y243500D02*
D03*
Y233500D02*
D03*
Y223500D02*
D03*
Y213500D02*
D03*
Y203500D02*
D03*
X184000Y127400D02*
D03*
Y117400D02*
D03*
X174000Y127400D02*
D03*
X221500Y246900D02*
D03*
Y236900D02*
D03*
X184800Y35100D02*
D03*
X74800D02*
D03*
X137800Y21700D02*
D03*
Y11700D02*
D03*
X127800Y21700D02*
D03*
Y11700D02*
D03*
X117800Y21700D02*
D03*
Y11700D02*
D03*
X107800Y21700D02*
D03*
X158600Y11400D02*
D03*
X79000Y12000D02*
D03*
X93600Y108800D02*
D03*
X103600D02*
D03*
X108800Y143100D02*
D03*
Y133100D02*
D03*
X98800Y143100D02*
D03*
Y133100D02*
D03*
X88800Y143100D02*
D03*
Y133100D02*
D03*
X78800Y143100D02*
D03*
X104800Y198800D02*
D03*
X174800D02*
D03*
X164800D02*
D03*
X154800D02*
D03*
X144800D02*
D03*
X134800D02*
D03*
X124800D02*
D03*
X114800D02*
D03*
X94800D02*
D03*
X174800Y185100D02*
D03*
X164800D02*
D03*
X154800D02*
D03*
X144800D02*
D03*
X134800D02*
D03*
X124800D02*
D03*
X114800D02*
D03*
X104800D02*
D03*
X94800D02*
D03*
X84800D02*
D03*
X74800D02*
D03*
X64800D02*
D03*
D23*
X174000Y117400D02*
D03*
X174800Y35100D02*
D03*
X64800D02*
D03*
X107800Y11700D02*
D03*
X168600Y11400D02*
D03*
X69000Y12000D02*
D03*
X83600Y108800D02*
D03*
X78800Y133100D02*
D03*
X84800Y198800D02*
D03*
X184800Y185100D02*
D03*
D24*
X96200Y212400D02*
D03*
X163000Y57550D02*
D03*
X164100Y257200D02*
D03*
X87400Y69000D02*
D03*
X92200Y230358D02*
D03*
X116784Y61185D02*
D03*
X106900Y71069D02*
D03*
X63300Y59630D02*
D03*
X109800Y215900D02*
D03*
X246185Y227300D02*
D03*
X189300Y173100D02*
D03*
X180985Y220400D02*
D03*
X121100Y178700D02*
D03*
X170385Y177000D02*
D03*
X46285Y190100D02*
D03*
X230352Y57199D02*
D03*
X166700Y76450D02*
D03*
X117700Y79200D02*
D03*
X163000D02*
D03*
X79300Y224453D02*
D03*
X82800Y248100D02*
D03*
X171085Y267597D02*
D03*
X92200Y242200D02*
D03*
Y253980D02*
D03*
X70036Y223500D02*
D03*
X200900Y62800D02*
D03*
X112600Y97700D02*
D03*
X149700Y61185D02*
D03*
X163000Y67800D02*
D03*
X8500Y208800D02*
D03*
X231952Y27999D02*
D03*
X12100Y199693D02*
D03*
X232052Y92599D02*
D03*
X12100Y255993D02*
D03*
X126437Y250219D02*
D03*
X152836Y236264D02*
D03*
X162183Y265791D02*
D03*
X239681Y219203D02*
D03*
Y266797D02*
D03*
M02*
