M48
;Layer_Color=9474304
;FILE_FORMAT=2:5
INCH,LZ
;TYPE=PLATED
T1F00S00C0.01300
T2F00S00C0.03543
%
T01
X00633Y005963
X00874Y0069
X0116784Y0061185
X01497
X0163Y005755
Y00678
X02009Y00628
X0230352Y0057199
X0231952Y0027999
X0232052Y0092599
X0239681Y0219203
X0180985Y02204
X0170385Y0177
X01893Y01731
X01211Y01787
X01098Y02159
X00962Y02124
X00793Y0224453
X0070036Y02235
X01126Y00977
X01177Y00792
X01069Y0071069
X0163Y00792
X01667Y007645
X0046285Y01901
X00121Y0199693
X00085Y02088
X00121Y0255993
X00828Y02481
X00922Y025398
Y02422
Y0230358
X0126437Y0250219
X0152836Y0236264
X01641Y02572
X0162183Y0265791
X0171085Y0267597
X0239681Y0266797
X0246185Y02273
T02
X00311Y00267
Y00367
Y00467
Y00567
Y00667
X00648Y00351
X00748
X0079Y0012
X0069
X01078Y00117
X01178
X01278
X01378
Y00217
X01278
X01178
X01078
X01586Y00114
X01686
X01748Y00351
X01848
X02211Y00367
Y00467
Y00567
Y00667
Y00267
Y00767
Y00867
Y00967
Y01127
Y01227
Y01327
Y01427
Y01527
Y01627
Y01727
Y01827
Y01927
Y02027
X01748Y01988
X01648
X01548
X01448
X01348
X01248
X01148
X01048
X00948
X00848
Y01851
X00948
X01048
X01148
X01248
X01348
X01448
X01548
X01648
X01748
X01848
X0184Y01274
Y01174
X0174
Y01274
X01088Y01331
Y01431
X00988
Y01331
X00888
Y01431
X00788
Y01331
X00836Y01088
X00936
X01036
X00602Y01059
Y00959
Y00859
X00648Y01851
X00748
X00314Y02035
Y02135
Y02235
X00311Y01667
Y01567
Y01467
Y01367
Y01267
Y01167
Y01067
Y00967
Y00767
X00121Y01035
Y01135
Y01235
Y01419
Y01519
Y01619
X00314Y02335
Y02435
Y02535
X02215Y02569
Y02469
Y02369
M30
