G04 Layer_Color=8421504*
%FSLAX25Y25*%
%MOIN*%
G70*
G01*
G75*
%ADD10R,0.06693X0.04331*%
%ADD11R,0.05787X0.01181*%
%ADD12R,0.05709X0.01181*%
%ADD13R,0.02200X0.05200*%
%ADD14R,0.15748X0.15748*%
%ADD15R,0.05847X0.03543*%
%ADD16R,0.04331X0.06693*%
%ADD17R,0.05433X0.08268*%
%ADD18R,0.05905X0.03937*%
%ADD19R,0.05905X0.05905*%
%ADD20C,0.01000*%
D10*
X183700Y63285D02*
D03*
Y73915D02*
D03*
X185600Y100915D02*
D03*
Y90285D02*
D03*
X144600Y71815D02*
D03*
Y61185D02*
D03*
X157200Y89685D02*
D03*
Y100315D02*
D03*
X55800Y49000D02*
D03*
Y59630D02*
D03*
X195800Y73415D02*
D03*
Y62785D02*
D03*
X131200Y73385D02*
D03*
Y84015D02*
D03*
X117700Y97715D02*
D03*
Y87085D02*
D03*
X171300Y100415D02*
D03*
Y89785D02*
D03*
X13600Y219415D02*
D03*
Y208785D02*
D03*
D11*
X115061Y73037D02*
D03*
Y71069D02*
D03*
Y69100D02*
D03*
Y67132D02*
D03*
Y65163D02*
D03*
X97739D02*
D03*
Y67132D02*
D03*
Y69100D02*
D03*
Y71069D02*
D03*
D12*
Y73037D02*
D03*
D13*
X159300Y72100D02*
D03*
X163000D02*
D03*
X166700D02*
D03*
Y61900D02*
D03*
X163000D02*
D03*
X159300D02*
D03*
D14*
X126437Y240594D02*
D03*
D15*
X157510Y265791D02*
D03*
Y259886D02*
D03*
Y253980D02*
D03*
Y248075D02*
D03*
Y242169D02*
D03*
Y236264D02*
D03*
Y230358D02*
D03*
Y224453D02*
D03*
Y218547D02*
D03*
X87490D02*
D03*
Y224453D02*
D03*
Y230358D02*
D03*
Y236264D02*
D03*
Y242169D02*
D03*
Y248075D02*
D03*
Y253980D02*
D03*
Y259886D02*
D03*
Y265791D02*
D03*
D16*
X256815Y212400D02*
D03*
X246185D02*
D03*
X121100Y173600D02*
D03*
X110470D02*
D03*
X180985Y215300D02*
D03*
X191615D02*
D03*
X181015Y171900D02*
D03*
X170385D02*
D03*
X108615Y87900D02*
D03*
X97985D02*
D03*
X65185Y250700D02*
D03*
X75815D02*
D03*
X76015Y261500D02*
D03*
X65385D02*
D03*
X169485Y262500D02*
D03*
X180115D02*
D03*
X29885Y187200D02*
D03*
X40515D02*
D03*
D17*
X257319Y225087D02*
D03*
X239681D02*
D03*
X257319Y260913D02*
D03*
X239681D02*
D03*
D18*
X256046Y92599D02*
D03*
Y80001D02*
D03*
X236754D02*
D03*
Y92599D02*
D03*
X255946Y27999D02*
D03*
Y15401D02*
D03*
X236654D02*
D03*
Y27999D02*
D03*
X255946Y60399D02*
D03*
Y47801D02*
D03*
X236654D02*
D03*
Y60399D02*
D03*
D19*
X12100Y251290D02*
D03*
Y237510D02*
D03*
Y194990D02*
D03*
Y181210D02*
D03*
D20*
X266200Y0D02*
Y273200D01*
X-100D02*
X266200D01*
X-100Y0D02*
Y273200D01*
Y0D02*
X266200D01*
M02*
