M48
;Layer_Color=9474304
;FILE_FORMAT=2:5
INCH,LZ
;TYPE=PLATED
T1F00S00C0.01300
T2F00S00C0.03543
%
T01
X00497Y005963
X00722Y00691
X01051Y0069378
X0108Y0061185
X0137Y00616
X01468Y005755
X01563Y00669
X01847Y00628
X0215752Y0060399
Y0027999
X0215852Y0092599
X0229985Y0187653
X0223481Y0219203
X0146Y0218547
X0075964
X00666Y02245
X01049Y01787
X010147Y011237
X01003Y01054
X00928Y00758
X01099Y0075
X01505Y007645
X01745Y00903
X01909Y00767
X0136636Y0236264
X01366Y02599
X0145983Y0265791
X0153285Y0267597
X0110237Y0250219
X0076Y0254
Y0242169
Y02304
X00666Y0236264
Y02481
X0223481Y0266797
T02
X00149Y00267
Y00367
Y00467
Y00567
Y00667
X00486Y00351
X00586
X00628Y0012
X00528
X00916Y00117
X01016
X01116
X01216
Y00217
X01116
X01016
X00916
X01424Y00114
X01524
X01586Y00351
X01686
X02049Y00367
Y00267
Y00467
Y00567
Y00667
Y00767
Y00867
Y00967
Y01127
Y01227
Y01327
Y01427
Y01527
Y01627
Y01727
Y01827
Y01927
Y02027
X01586Y01988
X01486
X01386
X01286
X01186
X01086
X00986
X00886
X00786
X00686
Y01851
X00786
X00886
X00986
X01086
X01186
X01286
X01386
X01486
X01586
X01686
X01678Y01274
Y01174
X01578
Y01274
X00926Y01331
Y01431
X00826
Y01331
X00726
Y01431
X00626
Y01331
X00674Y01088
X00774
X00874
X0044Y01059
Y00959
Y00859
X00486Y01851
X00586
X00152Y02035
Y02135
Y02235
X00149Y01667
Y01567
Y01467
Y01367
Y01267
Y01167
Y01067
Y00967
Y00767
X00152Y02335
Y02435
Y02535
X02053Y02569
Y02469
Y02369
M30
